SplineFontDB: 3.0
FontName: KAN-BadamiItalic
FullName: KAN Badami Italic
FamilyName: KAN Badami
Weight: Book
Copyright: Copyright (c) 2009-2015, NLCI (http://www.nlci.in/fonts/)
Version: 1.0 Sat Apr 29 15:03:15 1995
ItalicAngle: 12
UnderlinePosition: -593
UnderlineWidth: 40
Ascent: 1638
Descent: 410
InvalidEm: 0
LayerCount: 2
Layer: 0 0 "Back" 1
Layer: 1 0 "Fore" 0
XUID: [1021 562 231314170 16760438]
FSType: 0
OS2Version: 0
OS2_WeightWidthSlopeOnly: 0
OS2_UseTypoMetrics: 1
CreationTime: 1250825675
ModificationTime: 1523585987
PfmFamily: 81
TTFWeight: 400
TTFWidth: 5
LineGap: 0
VLineGap: 0
Panose: 5 0 0 0 0 0 0 0 0 0
OS2TypoAscent: -147
OS2TypoAOffset: 1
OS2TypoDescent: -401
OS2TypoDOffset: 1
OS2TypoLinegap: 0
OS2WinAscent: -240
OS2WinAOffset: 1
OS2WinDescent: -319
OS2WinDOffset: 1
HheadAscent: -240
HheadAOffset: 1
HheadDescent: 319
HheadDOffset: 1
OS2SubXSize: 1434
OS2SubYSize: 1331
OS2SubXOff: 0
OS2SubYOff: 293
OS2SupXSize: 1434
OS2SupYSize: 1331
OS2SupXOff: 0
OS2SupYOff: 928
OS2StrikeYSize: 102
OS2StrikeYPos: 530
OS2Vendor: 'Alts'
OS2UnicodeRanges: 00000000.00000000.00000000.00000000
Lookup: 262 0 0 "blwm" { "blwm-2sub"  } []
MarkAttachClasses: 1
DEI: 91125
TtTable: prep
NPUSHB
 1
 1
SCANTYPE
PUSHW_1
 511
SCANCTRL
EndTTInstrs
ShortTable: maxp 16
  1
  0
  319
  159
  6
  209
  8
  2
  8
  64
  10
  0
  3
  557
  4
  2
EndShort
LangName: 1033 "" "" "Italic" "NLCI:KAN Badami Italic" "" "1.0 Sat Apr 29 15:03:15 1995"
Encoding: Original
UnicodeInterp: none
NameList: Adobe Glyph List
DisplaySize: -48
AntiAlias: 1
FitToEm: 1
BeginPrivate: 0
EndPrivate
AnchorClass2: "Sub" "blwm-2sub" "Nukta"""  "s"""  "V""" 
BeginChars: 615 615

StartChar: .notdef
Encoding: 0 -1 0
Width: 1024
Flags: HW
LayerCount: 2
Fore
SplineSet
63 0 m 1
 63 1284 l 1
 961 1284 l 1
 961 0 l 1
 63 0 l 1
897 63 m 1
 897 1221 l 1
 127 1221 l 1
 127 63 l 1
 897 63 l 1
EndSplineSet
EndChar

StartChar: exclam
Encoding: 4 33 4
Width: 433
VWidth: 1024
Flags: HW
LayerCount: 2
Fore
SplineSet
267 397 m 0
 253.666992188 387.666992188 240.5 379.666992188 227.5 373 c 0
 214.5 366.333007812 199.666992188 360.333007812 183 355 c 0
 159 376 l 0
 234 1334 l 0
 244.666992188 1341.33300781 258.333007812 1350 275 1360 c 0
 291.666992188 1370 309.166992188 1380 327.5 1390 c 0
 345.833007812 1400 363.833007812 1409.16699219 381.5 1417.5 c 0
 399.166992188 1425.83300781 415 1432 429 1436 c 0
 467 1409 l 0
 267 397 l 0
306 157 m 0
 306 135.666992188 302.333007812 114 295 92 c 0
 287.666992188 70 277 49.8330078125 263 31.5 c 0
 249 13.1669921875 232 -1.8330078125 212 -13.5 c 0
 192 -25.1669921875 169.666992188 -31 145 -31 c 0
 113 -31 89 -21.5 73 -2.5 c 0
 57 16.5 49 41.6669921875 49 73 c 0
 49 93 53 113.833007812 61 135.5 c 0
 69 157.166992188 80.1669921875 176.833007812 94.5 194.5 c 0
 108.833007812 212.166992188 126 226.833007812 146 238.5 c 0
 166 250.166992188 187.666992188 256 211 256 c 0
 241 256 264.333007812 246.833007812 281 228.5 c 0
 297.666992188 210.166992188 306 186.333007812 306 157 c 0
EndSplineSet
EndChar

StartChar: quotedbl
Encoding: 5 34 5
Width: 824
VWidth: 1024
Flags: HW
LayerCount: 2
Fore
SplineSet
656 868 m 0
 645.333007812 862 632.333007812 857.666992188 617 855 c 0
 601.666992188 852.333007812 586.666992188 851 572 851 c 0
 593 1372 l 0
 601 1376 612 1381 626 1387 c 0
 640 1393 654.666992188 1398.83300781 670 1404.5 c 0
 685.333007812 1410.16699219 699.833007812 1415.33300781 713.5 1420 c 0
 727.166992188 1424.66699219 737.333007812 1428 744 1430 c 0
 783 1407 l 0
 656 868 l 0
314 868 m 0
 302.666992188 862 289.5 857.666992188 274.5 855 c 0
 259.5 852.333007812 244.666992188 851 230 851 c 0
 251 1372 l 0
 259 1376 270 1381 284 1387 c 0
 298 1393 312.666992188 1398.83300781 328 1404.5 c 0
 343.333007812 1410.16699219 357.833007812 1415.33300781 371.5 1420 c 0
 385.166992188 1424.66699219 395.333007812 1428 402 1430 c 0
 442 1407 l 0
 314 868 l 0
EndSplineSet
EndChar

StartChar: numbersign
Encoding: 6 35 6
Width: 859
VWidth: 1024
Flags: HW
LayerCount: 2
Fore
SplineSet
369 595 m 0
 541 595 l 0
 634 841 l 0
 462 841 l 0
 369 595 l 0
794 966 m 0
 935 966 l 0
 955 941 l 0
 952.333007812 933.666992188 949 925.333007812 945 916 c 0
 941 906.666992188 936.666992188 897.333007812 932 888 c 0
 927.333007812 878.666992188 922.833007812 869.833007812 918.5 861.5 c 0
 914.166992188 853.166992188 910.666992188 846.333007812 908 841 c 0
 746 841 l 0
 653 595 l 0
 798 595 l 0
 817 568 l 0
 814.333007812 561.333007812 811 553.666992188 807 545 c 0
 803 536.333007812 799 527.333007812 795 518 c 0
 791 508.666992188 786.833007812 499.833007812 782.5 491.5 c 0
 778.166992188 483.166992188 774.666992188 476 772 470 c 0
 605 470 l 0
 492 170 l 0
 480 160.666992188 464.833007812 152.666992188 446.5 146 c 0
 428.166992188 139.333007812 410.333007812 133 393 127 c 0
 372 147 l 0
 494 470 l 0
 322 470 l 0
 209 170 l 0
 196.333007812 160.666992188 181 152.666992188 163 146 c 0
 145 139.333007812 127.333007812 133 110 127 c 0
 87 147 l 0
 209 470 l 0
 69 470 l 0
 51 495 l 0
 53.6669921875 501.666992188 56.8330078125 509.333007812 60.5 518 c 0
 64.1669921875 526.666992188 68 535.333007812 72 544 c 0
 85 571 l 0
 89.6669921875 580.333007812 94 588.333007812 98 595 c 0
 257 595 l 0
 350 841 l 0
 207 841 l 0
 188 865 l 0
 193.333007812 879.666992188 200.666992188 896.833007812 210 916.5 c 0
 219.333007812 936.166992188 227.666992188 952.666992188 235 966 c 0
 398 966 l 0
 506 1251 l 0
 520 1261.66699219 536 1269.66699219 554 1275 c 0
 572 1280.33300781 588.333007812 1286 603 1292 c 0
 625 1270 l 0
 510 966 l 0
 681 966 l 0
 789 1251 l 0
 803.666992188 1261.66699219 820 1269.66699219 838 1275 c 0
 856 1280.33300781 872 1286 886 1292 c 0
 909 1270 l 0
 794 966 l 0
EndSplineSet
EndChar

StartChar: dollar
Encoding: 7 36 7
Width: 859
VWidth: 1024
Flags: HW
LayerCount: 2
Fore
SplineSet
269 950 m 0
 269 936.666992188 271 923.166992188 275 909.5 c 0
 279 895.833007812 286.5 882 297.5 868 c 0
 308.5 854 323.333007812 839.5 342 824.5 c 0
 360.666992188 809.5 385 793.666992188 415 777 c 0
 464 1125 l 0
 434.666992188 1122.33300781 408 1115.5 384 1104.5 c 0
 360 1093.5 339.5 1079.83300781 322.5 1063.5 c 0
 305.5 1047.16699219 292.333007812 1029.16699219 283 1009.5 c 0
 273.666992188 989.833007812 269 970 269 950 c 0
624 343 m 0
 624 383 612.5 418.833007812 589.5 450.5 c 0
 566.5 482.166992188 528 514 474 546 c 0
 411 103 l 0
 441.666992188 109 470.166992188 119 496.5 133 c 0
 522.833007812 147 545.333007812 164.5 564 185.5 c 0
 582.666992188 206.5 597.333007812 230.333007812 608 257 c 0
 618.666992188 283.666992188 624 312.333007812 624 343 c 0
831 1144 m 0
 835 1141.33300781 833.166992188 1132.16699219 825.5 1116.5 c 0
 817.833007812 1100.83300781 808 1083.83300781 796 1065.5 c 0
 784 1047.16699219 771.666992188 1030 759 1014 c 0
 746.333007812 998 737 988 731 984 c 0
 693 990 l 0
 679 1016.66699219 660.166992188 1041.33300781 636.5 1064 c 0
 612.833007812 1086.66699219 585.333007812 1103.33300781 554 1114 c 0
 500 734 l 0
 546.666992188 710.666992188 587.166992188 687.833007812 621.5 665.5 c 0
 655.833007812 643.166992188 684.333007812 619.666992188 707 595 c 0
 729.666992188 570.333007812 746.5 543.666992188 757.5 515 c 0
 768.5 486.333007812 774 454 774 418 c 0
 774 366.666992188 764.833007812 317.5 746.5 270.5 c 0
 728.166992188 223.5 702.166992188 180.5 668.5 141.5 c 0
 634.833007812 102.5 594.666992188 69.1669921875 548 41.5 c 0
 501.333007812 13.8330078125 450 -6 394 -18 c 0
 378 -136 l 0
 366 -146 355.166992188 -153.333007812 345.5 -158 c 0
 335.833007812 -162.666992188 323 -167 307 -171 c 0
 284 -147 l 0
 300 -30 l 0
 296.666992188 -30.6669921875 293 -31 289 -31 c 0
 277 -31 l 0
 251 -31 221.166992188 -26.5 187.5 -17.5 c 0
 153.833007812 -8.5 122 3 92 17 c 0
 62 31 36.8330078125 46.6669921875 16.5 64 c 0
 -3.8330078125 81.3330078125 -14 98.6669921875 -14 116 c 0
 -14 124.666992188 -9.8330078125 137.666992188 -1.5 155 c 0
 6.8330078125 172.333007812 16.8330078125 189.833007812 28.5 207.5 c 0
 40.1669921875 225.166992188 52.5 240.666992188 65.5 254 c 0
 78.5 267.333007812 89.6669921875 274 99 274 c 0
 106.333007812 274 115.333007812 266 126 250 c 0
 136.666992188 234 150.5 215.666992188 167.5 195 c 0
 184.5 174.333007812 205.166992188 154.666992188 229.5 136 c 0
 253.833007812 117.333007812 283.666992188 105.333007812 319 100 c 0
 388 591 l 0
 360 604 l 0
 276 642 216 684.666992188 180 732 c 0
 144 779.333007812 126 829.666992188 126 883 c 0
 126 920.333007812 133.833007812 957.5 149.5 994.5 c 0
 165.166992188 1031.5 188 1065.5 218 1096.5 c 0
 248 1127.5 284.833007812 1154.33300781 328.5 1177 c 0
 372.166992188 1199.66699219 422 1215.33300781 478 1224 c 0
 494 1338 l 0
 502.666992188 1343.33300781 509.5 1347.66699219 514.5 1351 c 0
 519.5 1354.33300781 524 1357.16699219 528 1359.5 c 0
 532 1361.83300781 536.5 1364.16699219 541.5 1366.5 c 0
 546.5 1368.83300781 553.333007812 1371.33300781 562 1374 c 0
 587 1349 l 0
 570 1231 l 0
 572 1231 l 0
 622.666992188 1231 670.5 1222.33300781 715.5 1205 c 0
 760.5 1187.66699219 799 1167.33300781 831 1144 c 0
EndSplineSet
EndChar

StartChar: percent
Encoding: 8 37 8
Width: 1339
VWidth: 1024
Flags: HW
LayerCount: 2
Fore
SplineSet
659 973 m 0
 659 927 651.166992188 879.5 635.5 830.5 c 0
 619.833007812 781.5 597.166992188 736.666992188 567.5 696 c 0
 537.833007812 655.333007812 502 622 460 596 c 0
 418 570 370.666992188 557 318 557 c 0
 284.666992188 557 254.666992188 563.833007812 228 577.5 c 0
 201.333007812 591.166992188 178.5 610 159.5 634 c 0
 140.5 658 126 686.166992188 116 718.5 c 0
 106 750.833007812 101 785.333007812 101 822 c 0
 101 852.666992188 104.666992188 884.166992188 112 916.5 c 0
 119.333007812 948.833007812 129.833007812 980.333007812 143.5 1011 c 0
 157.166992188 1041.66699219 174 1070.66699219 194 1098 c 0
 214 1125.33300781 236.666992188 1149.16699219 262 1169.5 c 0
 287.333007812 1189.83300781 315.166992188 1206 345.5 1218 c 0
 375.833007812 1230 408.666992188 1236 444 1236 c 0
 476.666992188 1236 506.333007812 1229.5 533 1216.5 c 0
 559.666992188 1203.5 582.333007812 1185.16699219 601 1161.5 c 0
 619.666992188 1137.83300781 634 1110 644 1078 c 0
 654 1046 659 1011 659 973 c 0
506 985 m 0
 506 1045 496.5 1088.5 477.5 1115.5 c 0
 458.5 1142.5 435 1156 407 1156 c 0
 386.333007812 1156 368.333007812 1149.5 353 1136.5 c 0
 337.666992188 1123.5 324.5 1106.5 313.5 1085.5 c 0
 302.5 1064.5 293.333007812 1040.66699219 286 1014 c 0
 278.666992188 987.333007812 272.666992188 960.833007812 268 934.5 c 0
 263.333007812 908.166992188 260.166992188 882.833007812 258.5 858.5 c 0
 256.833007812 834.166992188 256 813.666992188 256 797 c 0
 256 741.666992188 265 701.166992188 283 675.5 c 0
 301 649.833007812 325 637 355 637 c 0
 373.666992188 637 390.333007812 643 405 655 c 0
 419.666992188 667 432.5 682.833007812 443.5 702.5 c 0
 454.5 722.166992188 464 744.333007812 472 769 c 0
 480 793.666992188 486.5 819 491.5 845 c 0
 496.5 871 500.166992188 896.166992188 502.5 920.5 c 0
 504.833007812 944.833007812 506 966.333007812 506 985 c 0
260 13 m 0
 252.666992188 8.3330078125 243.166992188 3.8330078125 231.5 -0.5 c 0
 219.833007812 -4.8330078125 207.333007812 -9.1669921875 194 -13.5 c 0
 180.666992188 -17.8330078125 167.666992188 -21.6669921875 155 -25 c 0
 142.333007812 -28.3330078125 132 -31.3330078125 124 -34 c 0
 105 0 l 0
 1085 1192 l 0
 1093.66699219 1196.66699219 1103.83300781 1201.16699219 1115.5 1205.5 c 0
 1127.16699219 1209.83300781 1139 1214 1151 1218 c 0
 1163 1222 1174.83300781 1225.66699219 1186.5 1229 c 0
 1198.16699219 1232.33300781 1208.33300781 1235 1217 1237 c 0
 1241 1205 l 0
 260 13 l 0
1244 385 m 0
 1244 339 1236 291.333007812 1220 242 c 0
 1204 192.666992188 1181.33300781 147.833007812 1152 107.5 c 0
 1122.66699219 67.1669921875 1086.83300781 34 1044.5 8 c 0
 1002.16699219 -18 955 -31 903 -31 c 0
 869.666992188 -31 839.666992188 -24.1669921875 813 -10.5 c 0
 786.333007812 3.1669921875 763.5 22 744.5 46 c 0
 725.5 70 710.833007812 98.1669921875 700.5 130.5 c 0
 690.166992188 162.833007812 685 197.666992188 685 235 c 0
 685 281 693 328.333007812 709 377 c 0
 725 425.666992188 748 470 778 510 c 0
 808 550 844.166992188 583 886.5 609 c 0
 928.833007812 635 976 648 1028 648 c 0
 1060.66699219 648 1090.33300781 641.5 1117 628.5 c 0
 1143.66699219 615.5 1166.5 597.333007812 1185.5 574 c 0
 1204.5 550.666992188 1219 522.833007812 1229 490.5 c 0
 1239 458.166992188 1244 423 1244 385 c 0
1089 397 m 0
 1089 456.333007812 1079.66699219 499.833007812 1061 527.5 c 0
 1042.33300781 555.166992188 1019.66699219 569 993 569 c 0
 972.333007812 569 954.333007812 562.5 939 549.5 c 0
 923.666992188 536.5 910.333007812 519.333007812 899 498 c 0
 887.666992188 476.666992188 878.333007812 452.833007812 871 426.5 c 0
 863.666992188 400.166992188 857.833007812 373.666992188 853.5 347 c 0
 849.166992188 320.333007812 846 294.833007812 844 270.5 c 0
 842 246.166992188 841 225.666992188 841 209 c 0
 841 154.333007812 849.666992188 114 867 88 c 0
 884.333007812 62 908.333007812 49 939 49 c 0
 957.666992188 49 974.333007812 55 989 67 c 0
 1003.66699219 79 1016.5 94.8330078125 1027.5 114.5 c 0
 1038.5 134.166992188 1048 156.333007812 1056 181 c 0
 1064 205.666992188 1070.33300781 231 1075 257 c 0
 1079.66699219 283 1083.16699219 308.166992188 1085.5 332.5 c 0
 1087.83300781 356.833007812 1089 378.333007812 1089 397 c 0
EndSplineSet
EndChar

StartChar: ampersand
Encoding: 9 38 9
Width: 1224
VWidth: 1024
Flags: HW
LayerCount: 2
Fore
SplineSet
1306 748 m 0
 1288.66699219 727.333007812 1270.5 708.166992188 1251.5 690.5 c 0
 1232.5 672.833007812 1215 658.333007812 1199 647 c 0
 1177.66699219 658.333007812 1153.16699219 668 1125.5 676 c 0
 1097.83300781 684 1073.33300781 688.666992188 1052 690 c 0
 1061.33300781 668 1066.5 645 1067.5 621 c 0
 1068.5 597 1066.66699219 565.666992188 1062 527 c 0
 1055.33300781 481.666992188 1039.66699219 434 1015 384 c 0
 990.333007812 334 958.666992188 285 920 237 c 0
 948 203 975 173 1001 147 c 0
 1045 100.333007812 1102 85.6669921875 1172 103 c 0
 1175 50 l 0
 1147 37.3330078125 1120 26 1094 16 c 0
 1068 6 1044.5 -2.5 1023.5 -9.5 c 0
 1002.5 -16.5 984.333007812 -21.8330078125 969 -25.5 c 0
 953.666992188 -29.1669921875 942.666992188 -31 936 -31 c 0
 922.666992188 -31 902 -19.3330078125 874 4 c 0
 846 27.3330078125 814 59.6669921875 778 101 c 0
 725.333007812 61 668.166992188 29 606.5 5 c 0
 544.833007812 -19 480.333007812 -31 413 -31 c 0
 354.333007812 -31 301.666992188 -22.3330078125 255 -5 c 0
 208.333007812 12.3330078125 169.666992188 37.6669921875 139 71 c 0
 108.333007812 104.333007812 86.6669921875 145.166992188 74 193.5 c 0
 61.3330078125 241.833007812 59.3330078125 297.333007812 68 360 c 0
 77.3330078125 434 110.833007812 507.5 168.5 580.5 c 0
 226.166992188 653.5 304.333007812 724.666992188 403 794 c 0
 391.666992188 842 383.833007812 889.5 379.5 936.5 c 0
 375.166992188 983.5 376 1029 382 1073 c 0
 389.333007812 1127 404.5 1177 427.5 1223 c 0
 450.5 1269 478.833007812 1308.83300781 512.5 1342.5 c 0
 546.166992188 1376.16699219 583.666992188 1402.5 625 1421.5 c 0
 666.333007812 1440.5 708.666992188 1450 752 1450 c 0
 792.666992188 1450 826.666992188 1443 854 1429 c 0
 881.333007812 1415 902.666992188 1396.33300781 918 1373 c 0
 933.333007812 1349.66699219 943.333007812 1322.66699219 948 1292 c 0
 952.666992188 1261.33300781 952.666992188 1229.66699219 948 1197 c 0
 942.666992188 1163 931.166992188 1129.33300781 913.5 1096 c 0
 895.833007812 1062.66699219 873.5 1030.33300781 846.5 999 c 0
 819.5 967.666992188 788.666992188 937.666992188 754 909 c 0
 719.333007812 880.333007812 682.666992188 853.666992188 644 829 c 0
 588 793 l 0
 619.333007812 708.333007812 659 625 707 543 c 0
 755 461 804.666992188 385.666992188 856 317 c 0
 894.666992188 374.333007812 918.666992188 430.666992188 928 486 c 0
 932.666992188 516.666992188 932.5 545 927.5 571 c 0
 922.5 597 914.5 619.5 903.5 638.5 c 0
 892.5 657.5 879 672.166992188 863 682.5 c 0
 847 692.833007812 830 698 812 698 c 0
 793 728 l 0
 797 732 802.166992188 737 808.5 743 c 0
 814.833007812 749 821.666992188 754.833007812 829 760.5 c 0
 836.333007812 766.166992188 843.833007812 771.333007812 851.5 776 c 0
 859.166992188 780.666992188 866.333007812 784.333007812 873 787 c 0
 1287 787 l 0
 1306 748 l 0
466 94 m 0
 513.333007812 94 558 101.333007812 600 116 c 0
 642 130.666992188 681 150.666992188 717 176 c 0
 691.666992188 209.333007812 666 245.5 640 284.5 c 0
 614 323.5 588.666992188 364.666992188 564 408 c 0
 539.333007812 451.333007812 516.166992188 496 494.5 542 c 0
 472.833007812 588 453.666992188 634.666992188 437 682 c 0
 375.666992188 630 330.5 580.166992188 301.5 532.5 c 0
 272.5 484.833007812 254.333007812 434.333007812 247 381 c 0
 241 334.333007812 243.166992188 293.166992188 253.5 257.5 c 0
 263.833007812 221.833007812 279.5 191.833007812 300.5 167.5 c 0
 321.5 143.166992188 346.5 124.833007812 375.5 112.5 c 0
 404.5 100.166992188 434.666992188 94 466 94 c 0
536 1130 m 0
 530.666992188 1092.66699219 530 1054 534 1014 c 0
 538 974 545.666992188 932.666992188 557 890 c 0
 597 914 630.833007812 937.833007812 658.5 961.5 c 0
 686.166992188 985.166992188 708.833007812 1008.5 726.5 1031.5 c 0
 744.166992188 1054.5 757.5 1077 766.5 1099 c 0
 775.5 1121 781.666992188 1142.66699219 785 1164 c 0
 789.666992188 1188 791.166992188 1210.5 789.5 1231.5 c 0
 787.833007812 1252.5 782.833007812 1270.83300781 774.5 1286.5 c 0
 766.166992188 1302.16699219 754.666992188 1314.33300781 740 1323 c 0
 725.333007812 1331.66699219 707.333007812 1336 686 1336 c 0
 664 1336 644.5 1330.16699219 627.5 1318.5 c 0
 610.5 1306.83300781 595.833007812 1291.5 583.5 1272.5 c 0
 571.166992188 1253.5 561 1231.5 553 1206.5 c 0
 545 1181.5 539.333007812 1156 536 1130 c 0
EndSplineSet
EndChar

StartChar: quotesingle
Encoding: 10 39 10
Width: 433
VWidth: 1024
Flags: HW
LayerCount: 2
Fore
SplineSet
314 868 m 0
 302.666992188 862 289.5 857.666992188 274.5 855 c 0
 259.5 852.333007812 244.666992188 851 230 851 c 0
 251 1372 l 0
 259 1376 270 1381 284 1387 c 0
 298 1393 312.5 1398.83300781 327.5 1404.5 c 0
 342.5 1410.16699219 356.833007812 1415.33300781 370.5 1420 c 0
 384.166992188 1424.66699219 394.666992188 1428 402 1430 c 0
 442 1407 l 0
 314 868 l 0
EndSplineSet
EndChar

StartChar: parenleft
Encoding: 11 40 11
Width: 613
VWidth: 1024
Flags: HW
LayerCount: 2
Fore
SplineSet
719 1549 m 0
 673.666992188 1515 629.666992188 1470.5 587 1415.5 c 0
 544.333007812 1360.5 504.833007812 1296 468.5 1222 c 0
 432.166992188 1148 400.166992188 1065 372.5 973 c 0
 344.833007812 881 323.666992188 781.666992188 309 675 c 0
 295 577.666992188 288 482.666992188 288 390 c 0
 288 297.333007812 294.666992188 210.5 308 129.5 c 0
 321.333007812 48.5 341.166992188 -25.3330078125 367.5 -92 c 0
 393.833007812 -158.666992188 426.666992188 -214.666992188 466 -260 c 0
 421 -315 l 0
 357 -279.666992188 302.5 -229.666992188 257.5 -165 c 0
 212.5 -100.333007812 177.166992188 -25.8330078125 151.5 58.5 c 0
 125.833007812 142.833007812 110.166992188 235 104.5 335 c 0
 98.8330078125 435 103.666992188 538 119 644 c 0
 134.333007812 753.333007812 159.333007812 858.333007812 194 959 c 0
 228.666992188 1059.66699219 270.666992188 1152 320 1236 c 0
 369.333007812 1320 425.5 1393.66699219 488.5 1457 c 0
 551.5 1520.33300781 619 1569.33300781 691 1604 c 0
 719 1549 l 0
EndSplineSet
EndChar

StartChar: parenright
Encoding: 12 41 12
Width: 613
VWidth: 1024
Flags: HW
LayerCount: 2
Fore
SplineSet
515 630 m 0
 499.666992188 520 474.666992188 415.5 440 316.5 c 0
 405.333007812 217.5 363.166992188 127 313.5 45 c 0
 263.833007812 -37 207.666992188 -108.833007812 145 -170.5 c 0
 82.3330078125 -232.166992188 15 -280.333007812 -57 -315 c 0
 -87 -260 l 0
 -41.6669921875 -226 2.3330078125 -182.166992188 45 -128.5 c 0
 87.6669921875 -74.8330078125 127.333007812 -11.8330078125 164 60.5 c 0
 200.666992188 132.833007812 232.833007812 214 260.5 304 c 0
 288.166992188 394 309.666992188 492.666992188 325 600 c 0
 338.333007812 696.666992188 345 792 345 886 c 0
 345 980 338.5 1068.5 325.5 1151.5 c 0
 312.5 1234.5 292.833007812 1310.16699219 266.5 1378.5 c 0
 240.166992188 1446.83300781 207.333007812 1503.66699219 168 1549 c 0
 213 1604 l 0
 277 1568 331.333007812 1517 376 1451 c 0
 420.666992188 1385 455.833007812 1308.83300781 481.5 1222.5 c 0
 507.166992188 1136.16699219 522.833007812 1042.33300781 528.5 941 c 0
 534.166992188 839.666992188 529.666992188 736 515 630 c 0
EndSplineSet
EndChar

StartChar: asterisk
Encoding: 13 42 13
Width: 730
VWidth: 1024
Flags: HW
LayerCount: 2
Fore
SplineSet
425 1199 m 0
 681 1391 l 0
 687 1386.33300781 694.166992188 1380.66699219 702.5 1374 c 0
 710.833007812 1367.33300781 719.333007812 1360.16699219 728 1352.5 c 0
 736.666992188 1344.83300781 744.833007812 1337.33300781 752.5 1330 c 0
 760.166992188 1322.66699219 765.666992188 1316.33300781 769 1311 c 0
 762 1265 l 0
 451 1135 l 0
 704 1017 l 0
 702.666992188 1009 700.666992188 999 698 987 c 0
 695.333007812 975 692.5 962.5 689.5 949.5 c 0
 686.5 936.5 683.333007812 924.166992188 680 912.5 c 0
 676.666992188 900.833007812 673.666992188 891.333007812 671 884 c 0
 629 862 l 0
 409 1070 l 0
 405 761 l 0
 397.666992188 757 388.5 752.166992188 377.5 746.5 c 0
 366.5 740.833007812 355.166992188 735.5 343.5 730.5 c 0
 331.833007812 725.5 320.5 721 309.5 717 c 0
 298.5 713 289.666992188 710.333007812 283 709 c 0
 251 732 l 0
 339 1069 l 0
 83 877 l 0
 77 881.666992188 69.6669921875 887.5 61 894.5 c 0
 52.3330078125 901.5 43.6669921875 908.666992188 35 916 c 0
 26.3330078125 923.333007812 18.3330078125 930.666992188 11 938 c 0
 3.6669921875 945.333007812 -2 951.666992188 -6 957 c 0
 4 1004 l 0
 313 1133 l 0
 59 1251 l 0
 61 1259 63.3330078125 1269.16699219 66 1281.5 c 0
 68.6669921875 1293.83300781 71.5 1306.33300781 74.5 1319 c 0
 77.5 1331.66699219 80.5 1343.83300781 83.5 1355.5 c 0
 86.5 1367.16699219 89.6669921875 1376.33300781 93 1383 c 0
 135 1405 l 0
 354 1198 l 0
 359 1508 l 0
 365.666992188 1512 374.5 1516.66699219 385.5 1522 c 0
 396.5 1527.33300781 407.833007812 1532.5 419.5 1537.5 c 0
 431.166992188 1542.5 442.5 1547.16699219 453.5 1551.5 c 0
 464.5 1555.83300781 473.666992188 1559 481 1561 c 0
 515 1535 l 0
 425 1199 l 0
EndSplineSet
EndChar

StartChar: plus
Encoding: 14 43 14
Width: 786
VWidth: 1024
Flags: HW
LayerCount: 2
Fore
SplineSet
736 599 m 0
 734 591.666992188 731.166992188 583.5 727.5 574.5 c 0
 723.833007812 565.5 719.666992188 556.333007812 715 547 c 0
 710.333007812 537.666992188 705.833007812 528.833007812 701.5 520.5 c 0
 697.166992188 512.166992188 693.666992188 505.333007812 691 500 c 0
 459 500 l 0
 421 232 l 0
 415 228.666992188 407.666992188 225.333007812 399 222 c 0
 390.333007812 218.666992188 381.333007812 215.5 372 212.5 c 0
 362.666992188 209.5 353.5 206.833007812 344.5 204.5 c 0
 335.5 202.166992188 327.666992188 200.333007812 321 199 c 0
 299 223 l 0
 338 500 l 0
 91 500 l 0
 70 527 l 0
 72.6669921875 533.666992188 75.8330078125 541.333007812 79.5 550 c 0
 83.1669921875 558.666992188 87.1669921875 567.5 91.5 576.5 c 0
 95.8330078125 585.5 100.166992188 594.166992188 104.5 602.5 c 0
 108.833007812 610.833007812 112.666992188 618.333007812 116 625 c 0
 355 625 l 0
 394 895 l 0
 399.333007812 897 406.333007812 899.333007812 415 902 c 0
 423.666992188 904.666992188 432.833007812 907.5 442.5 910.5 c 0
 452.166992188 913.5 461.5 916.333007812 470.5 919 c 0
 479.5 921.666992188 487.333007812 924 494 926 c 0
 516 901 l 0
 477 625 l 0
 716 625 l 0
 736 599 l 0
EndSplineSet
EndChar

StartChar: comma
Encoding: 15 44 15
Width: 433
VWidth: 1024
Flags: HW
LayerCount: 2
Fore
SplineSet
327 107 m 0
 327 86.3330078125 322.833007812 63.3330078125 314.5 38 c 0
 306.166992188 12.6669921875 294.666992188 -13.8330078125 280 -41.5 c 0
 265.333007812 -69.1669921875 248.333007812 -97 229 -125 c 0
 209.666992188 -153 188.833007812 -179.666992188 166.5 -205 c 0
 144.166992188 -230.333007812 121 -253.666992188 97 -275 c 0
 73 -296.333007812 49.3330078125 -314 26 -328 c 0
 -16 -288 l 0
 35.3330078125 -234 73.6669921875 -183.166992188 99 -135.5 c 0
 124.333007812 -87.8330078125 137 -45.3330078125 137 -8 c 0
 137 4.6669921875 135.166992188 16.8330078125 131.5 28.5 c 0
 127.833007812 40.1669921875 121.666992188 50.3330078125 113 59 c 0
 104.333007812 67.6669921875 93 74.1669921875 79 78.5 c 0
 65 82.8330078125 48 83.6669921875 28 81 c 0
 20 137 l 0
 28.6669921875 145 43.6669921875 155 65 167 c 0
 86.3330078125 179 109.5 190.333007812 134.5 201 c 0
 159.5 211.666992188 183.666992188 220.666992188 207 228 c 0
 230.333007812 235.333007812 248 239 260 239 c 0
 272 232.333007812 282.166992188 225.666992188 290.5 219 c 0
 298.833007812 212.333007812 305.666992188 204 311 194 c 0
 316.333007812 184 320.333007812 172.166992188 323 158.5 c 0
 325.666992188 144.833007812 327 127.666992188 327 107 c 0
EndSplineSet
EndChar

StartChar: hyphen
Encoding: 16 45 16
Width: 654
VWidth: 1024
Flags: HW
LayerCount: 2
Fore
SplineSet
566 434 m 0
 62 434 l 0
 90 577 l 0
 594 577 l 0
 566 434 l 0
EndSplineSet
Refer: 375 727 N 1 0 0 1 0 0 2
EndChar

StartChar: period
Encoding: 17 46 17
Width: 433
VWidth: 1024
Flags: HW
LayerCount: 2
Fore
SplineSet
306 157 m 0
 306 135.666992188 302.333007812 114 295 92 c 0
 287.666992188 70 277 49.8330078125 263 31.5 c 0
 249 13.1669921875 232 -1.8330078125 212 -13.5 c 0
 192 -25.1669921875 169.666992188 -31 145 -31 c 0
 113 -31 89 -21.5 73 -2.5 c 0
 57 16.5 49 41.6669921875 49 73 c 0
 49 93 53 113.833007812 61 135.5 c 0
 69 157.166992188 80.1669921875 176.833007812 94.5 194.5 c 0
 108.833007812 212.166992188 126 226.833007812 146 238.5 c 0
 166 250.166992188 187.666992188 256 211 256 c 0
 241 256 264.333007812 246.833007812 281 228.5 c 0
 297.666992188 210.166992188 306 186.333007812 306 157 c 0
EndSplineSet
EndChar

StartChar: slash
Encoding: 18 47 18
Width: 842
VWidth: 1024
Flags: HW
LayerCount: 2
Fore
SplineSet
63 -280 m 0
 56.3330078125 -284.666992188 46.6669921875 -289.666992188 34 -295 c 0
 21.3330078125 -300.333007812 8 -305.666992188 -6 -311 c 0
 -20 -316.333007812 -33.8330078125 -321.166992188 -47.5 -325.5 c 0
 -61.1669921875 -329.833007812 -72 -333.333007812 -80 -336 c 0
 -111 -309 l 0
 791 1545 l 0
 799.666992188 1551 810 1556.66699219 822 1562 c 0
 834 1567.33300781 846.166992188 1572.33300781 858.5 1577 c 0
 870.833007812 1581.66699219 883 1585.83300781 895 1589.5 c 0
 907 1593.16699219 918 1596.33300781 928 1599 c 0
 962 1575 l 0
 63 -280 l 0
EndSplineSet
EndChar

StartChar: zero
Encoding: 19 48 19
Width: 859
VWidth: 1024
Flags: HW
LayerCount: 2
Fore
SplineSet
834 784 m 0
 834 740.666992188 831.833007812 695.833007812 827.5 649.5 c 0
 823.166992188 603.166992188 816 556.5 806 509.5 c 0
 796 462.5 782.5 415.833007812 765.5 369.5 c 0
 748.5 323.166992188 727.333007812 278.666992188 702 236 c 0
 680 198.666992188 656 163.833007812 630 131.5 c 0
 604 99.1669921875 575.833007812 71 545.5 47 c 0
 515.166992188 23 482.333007812 4 447 -10 c 0
 411.666992188 -24 373.666992188 -31 333 -31 c 0
 285 -31 243 -19.3330078125 207 4 c 0
 171 27.3330078125 140.666992188 59.5 116 100.5 c 0
 91.3330078125 141.5 72.8330078125 189.5 60.5 244.5 c 0
 48.1669921875 299.5 42 358.666992188 42 422 c 0
 42 509.333007812 51.3330078125 598.666992188 70 690 c 0
 88.6669921875 781.333007812 121.666992188 871.666992188 169 961 c 0
 189.666992188 999 213 1034.66699219 239 1068 c 0
 265 1101.33300781 293.5 1130.33300781 324.5 1155 c 0
 355.5 1179.66699219 389 1199.16699219 425 1213.5 c 0
 461 1227.83300781 500 1235 542 1235 c 0
 588.666992188 1235 630.166992188 1224 666.5 1202 c 0
 702.833007812 1180 733.333007812 1149 758 1109 c 0
 782.666992188 1069 801.5 1021.33300781 814.5 966 c 0
 827.5 910.666992188 834 850 834 784 c 0
652 794 m 0
 652 848 647.833007812 895.166992188 639.5 935.5 c 0
 631.166992188 975.833007812 619.666992188 1009.33300781 605 1036 c 0
 590.333007812 1062.66699219 573.166992188 1082.5 553.5 1095.5 c 0
 533.833007812 1108.5 513 1115 491 1115 c 0
 454.333007812 1115 422.333007812 1102.33300781 395 1077 c 0
 367.666992188 1051.66699219 344 1018.66699219 324 978 c 0
 304 937.333007812 287.5 891.5 274.5 840.5 c 0
 261.5 789.5 251.166992188 738.333007812 243.5 687 c 0
 235.833007812 635.666992188 230.5 587 227.5 541 c 0
 224.5 495 223 456.333007812 223 425 c 0
 223 313 237.333007812 229.333007812 266 174 c 0
 294.666992188 118.666992188 335 91 387 91 c 0
 423 91 454.5 103.5 481.5 128.5 c 0
 508.5 153.5 531.833007812 186 551.5 226 c 0
 571.166992188 266 587.5 311.5 600.5 362.5 c 0
 613.5 413.5 623.833007812 465 631.5 517 c 0
 639.166992188 569 644.5 619.333007812 647.5 668 c 0
 650.5 716.666992188 652 758.666992188 652 794 c 0
EndSplineSet
EndChar

StartChar: one
Encoding: 20 49 20
Width: 859
VWidth: 1024
Flags: HW
LayerCount: 2
Fore
SplineSet
701 0 m 0
 65 0 l 0
 73 63 l 0
 121.666992188 69 162.333007812 75.8330078125 195 83.5 c 0
 227.666992188 91.1669921875 254 99 274 107 c 0
 294 115 308.333007812 122.833007812 317 130.5 c 0
 325.666992188 138.166992188 330.666992188 145.666992188 332 153 c 0
 437 930 l 0
 441 956.666992188 443.166992188 977.333007812 443.5 992 c 0
 443.833007812 1006.66699219 441 1018.66699219 435 1028 c 0
 431.666992188 1032 425.166992188 1035.33300781 415.5 1038 c 0
 405.833007812 1040.66699219 391.666992188 1041.66699219 373 1041 c 0
 354.333007812 1040.33300781 330.666992188 1038 302 1034 c 0
 273.333007812 1030 238.666992188 1023.33300781 198 1014 c 0
 184 1075 l 0
 210 1082.33300781 242.666992188 1093 282 1107 c 0
 321.333007812 1121 361.5 1136.33300781 402.5 1153 c 0
 443.5 1169.66699219 482.666992188 1186.16699219 520 1202.5 c 0
 557.333007812 1218.83300781 587 1233 609 1245 c 0
 639 1208 l 0
 496 153 l 0
 494.666992188 146.333007812 496.833007812 139.166992188 502.5 131.5 c 0
 508.166992188 123.833007812 518.833007812 116 534.5 108 c 0
 550.166992188 100 572.166992188 92 600.5 84 c 0
 628.833007812 76 665.333007812 69 710 63 c 0
 701 0 l 0
EndSplineSet
EndChar

StartChar: two
Encoding: 21 50 21
Width: 859
VWidth: 1024
Flags: HW
LayerCount: 2
Fore
SplineSet
818 1011 m 0
 818 983 814.166992188 953.833007812 806.5 923.5 c 0
 798.833007812 893.166992188 785.666992188 859.5 767 822.5 c 0
 748.333007812 785.5 723.666992188 744.666992188 693 700 c 0
 662.333007812 655.333007812 624 605.166992188 578 549.5 c 0
 532 493.833007812 477.333007812 431.666992188 414 363 c 0
 350.666992188 294.333007812 277.666992188 218 195 134 c 0
 565 134 l 0
 575 134 584.333007812 136.666992188 593 142 c 0
 601.666992188 147.333007812 609.833007812 154.5 617.5 163.5 c 0
 625.166992188 172.5 632 182.666992188 638 194 c 0
 644 205.333007812 649.666992188 217 655 229 c 0
 667 256.333007812 676.666992188 288 684 324 c 0
 737 310 l 0
 682 0 l 0
 12 0 l 0
 -3 74 l 0
 117.666992188 194.666992188 219.166992188 301.666992188 301.5 395 c 0
 383.833007812 488.333007812 450.333007812 571.166992188 501 643.5 c 0
 551.666992188 715.833007812 588 779 610 833 c 0
 632 887 643 935 643 977 c 0
 643 1025 629.333007812 1063.16699219 602 1091.5 c 0
 574.666992188 1119.83300781 535.666992188 1134 485 1134 c 0
 460.333007812 1134 438.333007812 1127.66699219 419 1115 c 0
 399.666992188 1102.33300781 383.166992188 1086.16699219 369.5 1066.5 c 0
 355.833007812 1046.83300781 345 1024.83300781 337 1000.5 c 0
 329 976.166992188 324 952.333007812 322 929 c 0
 300.666992188 916.333007812 277 905 251 895 c 0
 225 885 198 878.333007812 170 875 c 0
 148 918 l 0
 152.666992188 952.666992188 167.5 988.666992188 192.5 1026 c 0
 217.5 1063.33300781 249 1097.5 287 1128.5 c 0
 325 1159.5 367.833007812 1185 415.5 1205 c 0
 463.166992188 1225 512 1235 562 1235 c 0
 596.666992188 1235 629.5 1230.83300781 660.5 1222.5 c 0
 691.5 1214.16699219 718.666992188 1201 742 1183 c 0
 765.333007812 1165 783.833007812 1141.83300781 797.5 1113.5 c 0
 811.166992188 1085.16699219 818 1051 818 1011 c 0
EndSplineSet
EndChar

StartChar: three
Encoding: 22 51 22
Width: 859
VWidth: 1024
Flags: HW
LayerCount: 2
Fore
SplineSet
768 1001 m 0
 768 965 762.166992188 931.5 750.5 900.5 c 0
 738.833007812 869.5 722.666992188 841.166992188 702 815.5 c 0
 681.333007812 789.833007812 657 767.166992188 629 747.5 c 0
 601 727.833007812 571 711.333007812 539 698 c 0
 570.333007812 694 598.666992188 684 624 668 c 0
 649.333007812 652 670.833007812 631.666992188 688.5 607 c 0
 706.166992188 582.333007812 719.833007812 554.666992188 729.5 524 c 0
 739.166992188 493.333007812 744 461.333007812 744 428 c 0
 744 365.333007812 733 306.166992188 711 250.5 c 0
 689 194.833007812 658 146.166992188 618 104.5 c 0
 578 62.8330078125 530.166992188 29.8330078125 474.5 5.5 c 0
 418.833007812 -18.8330078125 357.333007812 -31 290 -31 c 0
 242.666992188 -31 193.666992188 -18.3330078125 143 7 c 0
 92.3330078125 32.3330078125 42.3330078125 71.3330078125 -7 124 c 0
 37 201 l 0
 62.3330078125 178.333007812 85.6669921875 159.666992188 107 145 c 0
 128.333007812 130.333007812 149 118.5 169 109.5 c 0
 189 100.5 209 94.1669921875 229 90.5 c 0
 249 86.8330078125 270.666992188 85 294 85 c 0
 336.666992188 85 374.833007812 93.3330078125 408.5 110 c 0
 442.166992188 126.666992188 470.666992188 149.5 494 178.5 c 0
 517.333007812 207.5 535 241 547 279 c 0
 559 317 565 357.666992188 565 401 c 0
 565 438.333007812 559.666992188 470.5 549 497.5 c 0
 538.333007812 524.5 524.166992188 546.833007812 506.5 564.5 c 0
 488.833007812 582.166992188 468.5 595.166992188 445.5 603.5 c 0
 422.5 611.833007812 399 616 375 616 c 0
 356 616 l 0
 352 616 348.166992188 615.666992188 344.5 615 c 0
 340.833007812 614.333007812 336.666992188 613.666992188 332 613 c 0
 327.333007812 612.333007812 320.333007812 611 311 609 c 0
 305 679 l 0
 345 690.333007812 382.666992188 704.166992188 418 720.5 c 0
 453.333007812 736.833007812 484 756.833007812 510 780.5 c 0
 536 804.166992188 556.5 832.166992188 571.5 864.5 c 0
 586.5 896.833007812 594 934.333007812 594 977 c 0
 594 997.666992188 591.5 1017.5 586.5 1036.5 c 0
 581.5 1055.5 573.5 1072.33300781 562.5 1087 c 0
 551.5 1101.66699219 537.666992188 1113.16699219 521 1121.5 c 0
 504.333007812 1129.83300781 484 1134 460 1134 c 0
 438.666992188 1134 419 1129.66699219 401 1121 c 0
 383 1112.33300781 367.833007812 1100.5 355.5 1085.5 c 0
 343.166992188 1070.5 333.666992188 1053 327 1033 c 0
 320.333007812 1013 317.333007812 991.333007812 318 968 c 0
 294.666992188 955.333007812 269.333007812 944.5 242 935.5 c 0
 214.666992188 926.5 187.333007812 921 160 919 c 0
 138 960 l 0
 142 988 155.333007812 1018 178 1050 c 0
 200.666992188 1082 229.333007812 1111.83300781 264 1139.5 c 0
 298.666992188 1167.16699219 337.833007812 1190 381.5 1208 c 0
 425.166992188 1226 470 1235 516 1235 c 0
 560.666992188 1235 599 1228.5 631 1215.5 c 0
 663 1202.5 689.166992188 1185.16699219 709.5 1163.5 c 0
 729.833007812 1141.83300781 744.666992188 1116.83300781 754 1088.5 c 0
 763.333007812 1060.16699219 768 1031 768 1001 c 0
EndSplineSet
EndChar

StartChar: four
Encoding: 23 52 23
Width: 859
VWidth: 1024
Flags: HW
LayerCount: 2
Fore
SplineSet
795 432 m 0
 778.333007812 411.333007812 762.666992188 394.5 748 381.5 c 0
 733.333007812 368.5 718.666992188 356.333007812 704 345 c 0
 642 345 l 0
 611 114 l 0
 609.666992188 108.666992188 610.666992188 103.833007812 614 99.5 c 0
 617.333007812 95.1669921875 623.5 90.5 632.5 85.5 c 0
 641.5 80.5 653.833007812 75.3330078125 669.5 70 c 0
 685.166992188 64.6669921875 705 59 729 53 c 0
 722 0 l 0
 250 0 l 0
 257 53 l 0
 297 60.3330078125 329.833007812 67.1669921875 355.5 73.5 c 0
 381.166992188 79.8330078125 401.333007812 85.8330078125 416 91.5 c 0
 430.666992188 97.1669921875 441 102.666992188 447 108 c 0
 453 113.333007812 456.666992188 119 458 125 c 0
 486 345 l 0
 45 345 l 0
 16 381 l 0
 568 1172 l 0
 597.333007812 1183.33300781 626.333007812 1195.66699219 655 1209 c 0
 683.666992188 1222.33300781 708.666992188 1234.33300781 730 1245 c 0
 759 1208 l 0
 658 463 l 0
 773 463 l 0
 795 432 l 0
185 462 m 0
 504 462 l 0
 581 1020 l 0
 185 462 l 0
EndSplineSet
EndChar

StartChar: five
Encoding: 24 53 24
Width: 859
VWidth: 1024
Flags: HW
LayerCount: 2
Fore
SplineSet
836 1192 m 0
 828 1180.66699219 818.5 1168.66699219 807.5 1156 c 0
 796.5 1143.33300781 785.166992188 1130.83300781 773.5 1118.5 c 0
 761.833007812 1106.16699219 750.666992188 1094.83300781 740 1084.5 c 0
 729.333007812 1074.16699219 720 1066 712 1060 c 0
 348 1060 l 0
 344 1040.66699219 338.333007812 1016.5 331 987.5 c 0
 323.666992188 958.5 316 929.166992188 308 899.5 c 0
 300 869.833007812 292.333007812 841.833007812 285 815.5 c 0
 277.666992188 789.166992188 271.666992188 768.666992188 267 754 c 0
 291.666992188 763.333007812 321 770.833007812 355 776.5 c 0
 389 782.166992188 422.666992188 785 456 785 c 0
 505.333007812 785 548.833007812 776.333007812 586.5 759 c 0
 624.166992188 741.666992188 655.666992188 718.666992188 681 690 c 0
 706.333007812 661.333007812 725.5 628.5 738.5 591.5 c 0
 751.5 554.5 758 516.333007812 758 477 c 0
 758 437 753.666992188 396.833007812 745 356.5 c 0
 736.333007812 316.166992188 723.5 277.166992188 706.5 239.5 c 0
 689.5 201.833007812 668.5 166.5 643.5 133.5 c 0
 618.5 100.5 589.666992188 71.8330078125 557 47.5 c 0
 524.333007812 23.1669921875 488 4 448 -10 c 0
 408 -24 364.666992188 -31 318 -31 c 0
 261.333007812 -31 206 -18.5 152 6.5 c 0
 98 31.5 47 70.3330078125 -1 123 c 0
 46 197 l 0
 76 173.666992188 103.5 154.5 128.5 139.5 c 0
 153.5 124.5 176.5 112.666992188 197.5 104 c 0
 218.5 95.3330078125 238.333007812 89.5 257 86.5 c 0
 275.666992188 83.5 294 82 312 82 c 0
 357.333007812 82 397 92.3330078125 431 113 c 0
 465 133.666992188 493.166992188 160.833007812 515.5 194.5 c 0
 537.833007812 228.166992188 554.5 266.333007812 565.5 309 c 0
 576.5 351.666992188 582 395 582 439 c 0
 582 471.666992188 577.5 501.666992188 568.5 529 c 0
 559.5 556.333007812 546.166992188 580 528.5 600 c 0
 510.833007812 620 489.5 635.5 464.5 646.5 c 0
 439.5 657.5 411 663 379 663 c 0
 339.666992188 663 302 655.833007812 266 641.5 c 0
 230 627.166992188 194 606.666992188 158 580 c 0
 120 613 l 0
 127.333007812 637 135.666992188 665 145 697 c 0
 154.333007812 729 164 763 174 799 c 0
 184 835 194.166992188 872 204.5 910 c 0
 214.833007812 948 224.5 984.833007812 233.5 1020.5 c 0
 242.5 1056.16699219 250.833007812 1089.83300781 258.5 1121.5 c 0
 266.166992188 1153.16699219 272 1180.66699219 276 1204 c 0
 701 1204 l 0
 717.666992188 1204 732.833007812 1204.83300781 746.5 1206.5 c 0
 760.166992188 1208.16699219 771.666992188 1210.33300781 781 1213 c 0
 792.333007812 1215.66699219 802.333007812 1219 811 1223 c 0
 836 1192 l 0
EndSplineSet
EndChar

StartChar: six
Encoding: 25 54 25
Width: 859
VWidth: 1024
Flags: HW
LayerCount: 2
Fore
SplineSet
824 1180 m 0
 750 1164.66699219 683.666992188 1141 625 1109 c 0
 566.333007812 1077 514.666992188 1038.5 470 993.5 c 0
 425.333007812 948.5 387.333007812 898 356 842 c 0
 324.666992188 786 300 726.666992188 282 664 c 0
 326.666992188 704 369.833007812 732.5 411.5 749.5 c 0
 453.166992188 766.5 492 775 528 775 c 0
 570.666992188 775 608.666992188 768.166992188 642 754.5 c 0
 675.333007812 740.833007812 703.5 721.333007812 726.5 696 c 0
 749.5 670.666992188 766.833007812 640 778.5 604 c 0
 790.166992188 568 796 527.666992188 796 483 c 0
 796 447 791.666992188 409.166992188 783 369.5 c 0
 774.333007812 329.833007812 761.666992188 291 745 253 c 0
 728.333007812 215 707.833007812 178.833007812 683.5 144.5 c 0
 659.166992188 110.166992188 631.333007812 80 600 54 c 0
 568.666992188 28 534.333007812 7.3330078125 497 -8 c 0
 459.666992188 -23.3330078125 419.333007812 -31 376 -31 c 0
 331.333007812 -31 290 -21.5 252 -2.5 c 0
 214 16.5 181 43.1669921875 153 77.5 c 0
 125 111.833007812 103.166992188 153 87.5 201 c 0
 71.8330078125 249 64 302 64 360 c 0
 64 432 71.6669921875 502.5 87 571.5 c 0
 102.333007812 640.5 124.833007812 706.166992188 154.5 768.5 c 0
 184.166992188 830.833007812 220.5 889 263.5 943 c 0
 306.5 997 355.833007812 1045 411.5 1087 c 0
 467.166992188 1129 528.833007812 1164 596.5 1192 c 0
 664.166992188 1220 737 1239 815 1249 c 0
 824 1180 l 0
465 654 m 0
 430.333007812 654 395.5 644.666992188 360.5 626 c 0
 325.5 607.333007812 290 578 254 538 c 0
 249.333007812 510.666992188 246.166992188 483.333007812 244.5 456 c 0
 242.833007812 428.666992188 242 401 242 373 c 0
 242 323 246.333007812 279.833007812 255 243.5 c 0
 263.666992188 207.166992188 276 177.166992188 292 153.5 c 0
 308 129.833007812 327.333007812 112.333007812 350 101 c 0
 372.666992188 89.6669921875 398 84 426 84 c 0
 451.333007812 84 473.666992188 89.5 493 100.5 c 0
 512.333007812 111.5 529.333007812 126.333007812 544 145 c 0
 558.666992188 163.666992188 571.166992188 185 581.5 209 c 0
 591.833007812 233 600.166992188 257.666992188 606.5 283 c 0
 612.833007812 308.333007812 617.333007812 333.833007812 620 359.5 c 0
 622.666992188 385.166992188 624 408.666992188 624 430 c 0
 624 475.333007812 619.166992188 512.5 609.5 541.5 c 0
 599.833007812 570.5 587.333007812 593.333007812 572 610 c 0
 556.666992188 626.666992188 539.666992188 638.166992188 521 644.5 c 0
 502.333007812 650.833007812 483.666992188 654 465 654 c 0
EndSplineSet
EndChar

StartChar: seven
Encoding: 26 55 26
Width: 859
VWidth: 1024
Flags: HW
LayerCount: 2
Fore
SplineSet
901 1167 m 0
 863 1095 825 1022.33300781 787 949 c 0
 749 875.666992188 712 803.5 676 732.5 c 0
 640 661.5 605.333007812 592.333007812 572 525 c 0
 538.666992188 457.666992188 507.666992188 394.5 479 335.5 c 0
 450.333007812 276.5 424.5 222.333007812 401.5 173 c 0
 378.5 123.666992188 359.333007812 81.3330078125 344 46 c 0
 320.666992188 29.3330078125 293.166992188 14.5 261.5 1.5 c 0
 229.833007812 -11.5 198.666992188 -22.3330078125 168 -31 c 0
 133 5 l 0
 199 107 259 203.5 313 294.5 c 0
 367 385.5 417.5 473.666992188 464.5 559 c 0
 511.5 644.333007812 556.666992188 728.166992188 600 810.5 c 0
 643.333007812 892.833007812 687.666992188 976.333007812 733 1061 c 0
 319 1061 l 0
 310.333007812 1061 301.333007812 1060.33300781 292 1059 c 0
 282.666992188 1057.66699219 272.166992188 1052.16699219 260.5 1042.5 c 0
 248.833007812 1032.83300781 236 1017.66699219 222 997 c 0
 208 976.333007812 191.666992188 946.666992188 173 908 c 0
 129 928 l 0
 133 943.333007812 138.333007812 963.666992188 145 989 c 0
 151.666992188 1014.33300781 158.666992188 1040.5 166 1067.5 c 0
 173.333007812 1094.5 180.666992188 1120.33300781 188 1145 c 0
 195.333007812 1169.66699219 202 1189.33300781 208 1204 c 0
 876 1204 l 0
 901 1167 l 0
EndSplineSet
EndChar

StartChar: eight
Encoding: 27 56 27
Width: 859
VWidth: 1024
Flags: HW
LayerCount: 2
Fore
SplineSet
817 1001 m 0
 817 965 810.333007812 932 797 902 c 0
 783.666992188 872 766.333007812 844.5 745 819.5 c 0
 723.666992188 794.5 699.333007812 771.5 672 750.5 c 0
 644.666992188 729.5 617 710 589 692 c 0
 614.333007812 676.666992188 638.5 660 661.5 642 c 0
 684.5 624 704.833007812 603.166992188 722.5 579.5 c 0
 740.166992188 555.833007812 754.166992188 529.166992188 764.5 499.5 c 0
 774.833007812 469.833007812 780 435.666992188 780 397 c 0
 780 340.333007812 767.833007812 286.166992188 743.5 234.5 c 0
 719.166992188 182.833007812 686.5 137.333007812 645.5 98 c 0
 604.5 58.6669921875 557.166992188 27.3330078125 503.5 4 c 0
 449.833007812 -19.3330078125 394 -31 336 -31 c 0
 284.666992188 -31 240.166992188 -23.3330078125 202.5 -8 c 0
 164.833007812 7.3330078125 133.333007812 28 108 54 c 0
 82.6669921875 80 63.8330078125 109.833007812 51.5 143.5 c 0
 39.1669921875 177.166992188 33 212.666992188 33 250 c 0
 33 294.666992188 41.5 336.5 58.5 375.5 c 0
 75.5 414.5 97.8330078125 450.333007812 125.5 483 c 0
 153.166992188 515.666992188 184.833007812 545.333007812 220.5 572 c 0
 256.166992188 598.666992188 292.666992188 622 330 642 c 0
 308 655.333007812 287 669.5 267 684.5 c 0
 247 699.5 229.5 716.833007812 214.5 736.5 c 0
 199.5 756.166992188 187.5 778.333007812 178.5 803 c 0
 169.5 827.666992188 165 856.333007812 165 889 c 0
 165 937.666992188 175.666992188 983.166992188 197 1025.5 c 0
 218.333007812 1067.83300781 246.833007812 1104.5 282.5 1135.5 c 0
 318.166992188 1166.5 359.166992188 1190.83300781 405.5 1208.5 c 0
 451.833007812 1226.16699219 500.333007812 1235 551 1235 c 0
 595.666992188 1235 634.666992188 1229.16699219 668 1217.5 c 0
 701.333007812 1205.83300781 729 1189.66699219 751 1169 c 0
 773 1148.33300781 789.5 1123.66699219 800.5 1095 c 0
 811.5 1066.33300781 817 1035 817 1001 c 0
600 342 m 0
 600 377.333007812 594.333007812 408.166992188 583 434.5 c 0
 571.666992188 460.833007812 556.833007812 484 538.5 504 c 0
 520.166992188 524 499 541.833007812 475 557.5 c 0
 451 573.166992188 426.333007812 588 401 602 c 0
 371.666992188 580.666992188 345.333007812 558.666992188 322 536 c 0
 298.666992188 513.333007812 278.833007812 489 262.5 463 c 0
 246.166992188 437 233.5 408.5 224.5 377.5 c 0
 215.5 346.5 211 312 211 274 c 0
 211 245.333007812 215.166992188 219 223.5 195 c 0
 231.833007812 171 243.833007812 150.333007812 259.5 133 c 0
 275.166992188 115.666992188 293.833007812 102.166992188 315.5 92.5 c 0
 337.166992188 82.8330078125 361.333007812 78 388 78 c 0
 422 78 452.166992188 85.8330078125 478.5 101.5 c 0
 504.833007812 117.166992188 527 137.5 545 162.5 c 0
 563 187.5 576.666992188 215.833007812 586 247.5 c 0
 595.333007812 279.166992188 600 310.666992188 600 342 c 0
320 940 m 0
 320 914.666992188 325.333007812 892.333007812 336 873 c 0
 346.666992188 853.666992188 361 836 379 820 c 0
 397 804 417.666992188 789 441 775 c 0
 464.333007812 761 489 747 515 733 c 0
 534.333007812 747.666992188 552.333007812 763.333007812 569 780 c 0
 585.666992188 796.666992188 600 814.833007812 612 834.5 c 0
 624 854.166992188 633.5 875.5 640.5 898.5 c 0
 647.5 921.5 651 947 651 975 c 0
 651 1027 636.666992188 1066.5 608 1093.5 c 0
 579.333007812 1120.5 540.666992188 1134 492 1134 c 0
 467.333007812 1134 444.5 1128.5 423.5 1117.5 c 0
 402.5 1106.5 384.333007812 1091.83300781 369 1073.5 c 0
 353.666992188 1055.16699219 341.666992188 1034.33300781 333 1011 c 0
 324.333007812 987.666992188 320 964 320 940 c 0
EndSplineSet
EndChar

StartChar: nine
Encoding: 28 57 28
Width: 859
VWidth: 1024
Flags: HW
LayerCount: 2
Fore
SplineSet
838 862 m 0
 838 748 821.666992188 639.666992188 789 537 c 0
 756.333007812 434.333007812 708 342.5 644 261.5 c 0
 580 180.5 501 113.333007812 407 60 c 0
 313 6.6669921875 204.666992188 -27.6669921875 82 -43 c 0
 73 26 l 0
 152.333007812 44 222.666992188 69.3330078125 284 102 c 0
 345.333007812 134.666992188 398.666992188 173.666992188 444 219 c 0
 489.333007812 264.333007812 527 315.5 557 372.5 c 0
 587 429.5 610 491.666992188 626 559 c 0
 591.333007812 523 552.5 493.666992188 509.5 471 c 0
 466.5 448.333007812 420.333007812 437 371 437 c 0
 328.333007812 437 290.5 444.333007812 257.5 459 c 0
 224.5 473.666992188 196.5 494 173.5 520 c 0
 150.5 546 133 576.5 121 611.5 c 0
 109 646.5 103 684.333007812 103 725 c 0
 103 763 108.166992188 802.166992188 118.5 842.5 c 0
 128.833007812 882.833007812 143.5 921.833007812 162.5 959.5 c 0
 181.5 997.166992188 204.333007812 1032.66699219 231 1066 c 0
 257.666992188 1099.33300781 287.5 1128.5 320.5 1153.5 c 0
 353.5 1178.5 389.166992188 1198.33300781 427.5 1213 c 0
 465.833007812 1227.66699219 506.333007812 1235 549 1235 c 0
 589.666992188 1235 627.5 1227.5 662.5 1212.5 c 0
 697.5 1197.5 728 1174.66699219 754 1144 c 0
 780 1113.33300781 800.5 1074.5 815.5 1027.5 c 0
 830.5 980.5 838 925.333007812 838 862 c 0
434 560 m 0
 478.666992188 560 518.5 571.666992188 553.5 595 c 0
 588.5 618.333007812 620 648.333007812 648 685 c 0
 654 735 657 787 657 841 c 0
 657 893.666992188 652.5 938 643.5 974 c 0
 634.5 1010 622.666992188 1039 608 1061 c 0
 593.333007812 1083 576.5 1098.83300781 557.5 1108.5 c 0
 538.5 1118.16699219 519 1123 499 1123 c 0
 455.666992188 1123 419.666992188 1111.5 391 1088.5 c 0
 362.333007812 1065.5 339.333007812 1036.66699219 322 1002 c 0
 304.666992188 967.333007812 292.333007812 929.166992188 285 887.5 c 0
 277.666992188 845.833007812 274 806.666992188 274 770 c 0
 274 728.666992188 279.166992188 694.5 289.5 667.5 c 0
 299.833007812 640.5 313 619 329 603 c 0
 345 587 362.333007812 575.833007812 381 569.5 c 0
 399.666992188 563.166992188 417.333007812 560 434 560 c 0
EndSplineSet
EndChar

StartChar: colon
Encoding: 29 58 29
Width: 433
VWidth: 1024
Flags: HW
LayerCount: 2
Fore
SplineSet
306 157 m 0
 306 135.666992188 302.333007812 114 295 92 c 0
 287.666992188 70 277 49.8330078125 263 31.5 c 0
 249 13.1669921875 232 -1.8330078125 212 -13.5 c 0
 192 -25.1669921875 169.666992188 -31 145 -31 c 0
 113 -31 89 -21.5 73 -2.5 c 0
 57 16.5 49 41.6669921875 49 73 c 0
 49 93 53 113.833007812 61 135.5 c 0
 69 157.166992188 80.1669921875 176.833007812 94.5 194.5 c 0
 108.833007812 212.166992188 126 226.833007812 146 238.5 c 0
 166 250.166992188 187.666992188 256 211 256 c 0
 241 256 264.333007812 246.833007812 281 228.5 c 0
 297.666992188 210.166992188 306 186.333007812 306 157 c 0
404 861 m 0
 404 840.333007812 400.333007812 819 393 797 c 0
 385.666992188 775 375.166992188 755 361.5 737 c 0
 347.833007812 719 331 704.333007812 311 693 c 0
 291 681.666992188 268.666992188 676 244 676 c 0
 212 676 188 685.333007812 172 704 c 0
 156 722.666992188 148 747.666992188 148 779 c 0
 148 799 152 819.666992188 160 841 c 0
 168 862.333007812 179.166992188 881.833007812 193.5 899.5 c 0
 207.833007812 917.166992188 224.833007812 931.833007812 244.5 943.5 c 0
 264.166992188 955.166992188 285.666992188 961 309 961 c 0
 339 961 362.333007812 951.833007812 379 933.5 c 0
 395.666992188 915.166992188 404 891 404 861 c 0
EndSplineSet
EndChar

StartChar: semicolon
Encoding: 30 59 30
Width: 433
VWidth: 1024
Flags: HW
LayerCount: 2
Fore
SplineSet
327 107 m 0
 327 86.3330078125 322.833007812 63.3330078125 314.5 38 c 0
 306.166992188 12.6669921875 294.666992188 -13.8330078125 280 -41.5 c 0
 265.333007812 -69.1669921875 248.333007812 -97 229 -125 c 0
 209.666992188 -153 188.833007812 -179.666992188 166.5 -205 c 0
 144.166992188 -230.333007812 121 -253.666992188 97 -275 c 0
 73 -296.333007812 49.3330078125 -314 26 -328 c 0
 -16 -288 l 0
 35.3330078125 -234 73.6669921875 -183.166992188 99 -135.5 c 0
 124.333007812 -87.8330078125 137 -45.3330078125 137 -8 c 0
 137 4.6669921875 135.166992188 16.8330078125 131.5 28.5 c 0
 127.833007812 40.1669921875 121.666992188 50.3330078125 113 59 c 0
 104.333007812 67.6669921875 93 74.1669921875 79 78.5 c 0
 65 82.8330078125 48 83.6669921875 28 81 c 0
 20 137 l 0
 28.6669921875 145 43.6669921875 155 65 167 c 0
 86.3330078125 179 109.5 190.333007812 134.5 201 c 0
 159.5 211.666992188 183.666992188 220.666992188 207 228 c 0
 230.333007812 235.333007812 248 239 260 239 c 0
 272 232.333007812 282.166992188 225.666992188 290.5 219 c 0
 298.833007812 212.333007812 305.666992188 204 311 194 c 0
 316.333007812 184 320.333007812 172.166992188 323 158.5 c 0
 325.666992188 144.833007812 327 127.666992188 327 107 c 0
404 861 m 0
 404 840.333007812 400.333007812 819 393 797 c 0
 385.666992188 775 375.333007812 755 362 737 c 0
 348.666992188 719 332 704.333007812 312 693 c 0
 292 681.666992188 269.666992188 676 245 676 c 0
 213 676 188.833007812 685.333007812 172.5 704 c 0
 156.166992188 722.666992188 148 747.666992188 148 779 c 0
 148 799 152 819.666992188 160 841 c 0
 168 862.333007812 179.166992188 881.833007812 193.5 899.5 c 0
 207.833007812 917.166992188 225 931.833007812 245 943.5 c 0
 265 955.166992188 286.666992188 961 310 961 c 0
 340 961 363.166992188 951.833007812 379.5 933.5 c 0
 395.833007812 915.166992188 404 891 404 861 c 0
EndSplineSet
EndChar

StartChar: less
Encoding: 31 60 31
Width: 855
VWidth: 1024
Flags: HW
LayerCount: 2
Fore
SplineSet
821 879 m 0
 818.333007812 872.333007812 815.166992188 864 811.5 854 c 0
 807.833007812 844 804.166992188 833.666992188 800.5 823 c 0
 796.833007812 812.333007812 793 802 789 792 c 0
 785 782 781.666992188 774 779 768 c 0
 251 565 l 0
 727 361 l 0
 740 322 l 0
 724.666992188 308.666992188 710.833007812 296.666992188 698.5 286 c 0
 686.166992188 275.333007812 669.666992188 263.666992188 649 251 c 0
 75 498 l 0
 53 529 l 0
 55 537 57.8330078125 545.666992188 61.5 555 c 0
 65.1669921875 564.333007812 69 573.666992188 73 583 c 0
 77 592.333007812 80.8330078125 601.333007812 84.5 610 c 0
 88.1669921875 618.666992188 91.6669921875 626 95 632 c 0
 799 906 l 0
 821 879 l 0
EndSplineSet
EndChar

StartChar: equal
Encoding: 32 61 32
Width: 855
VWidth: 1024
Flags: HW
LayerCount: 2
Fore
SplineSet
776 449 m 0
 774 441.666992188 771 433.5 767 424.5 c 0
 763 415.5 758.833007812 406.333007812 754.5 397 c 0
 750.166992188 387.666992188 745.833007812 378.833007812 741.5 370.5 c 0
 737.166992188 362.166992188 733.666992188 355.333007812 731 350 c 0
 68 350 l 0
 48 377 l 0
 50.6669921875 383.666992188 53.8330078125 391.333007812 57.5 400 c 0
 61.1669921875 408.666992188 65.1669921875 417.5 69.5 426.5 c 0
 73.8330078125 435.5 78.1669921875 444.166992188 82.5 452.5 c 0
 86.8330078125 460.833007812 90.6669921875 468.333007812 94 475 c 0
 756 475 l 0
 776 449 l 0
816 749 m 0
 814 741.666992188 811.166992188 733.5 807.5 724.5 c 0
 803.833007812 715.5 799.666992188 706.333007812 795 697 c 0
 790.333007812 687.666992188 785.833007812 678.833007812 781.5 670.5 c 0
 777.166992188 662.166992188 773.666992188 655.333007812 771 650 c 0
 109 650 l 0
 88 677 l 0
 90.6669921875 683.666992188 93.8330078125 691.333007812 97.5 700 c 0
 101.166992188 708.666992188 105.166992188 717.5 109.5 726.5 c 0
 113.833007812 735.5 118.166992188 744.166992188 122.5 752.5 c 0
 126.833007812 760.833007812 130.666992188 768.333007812 134 775 c 0
 796 775 l 0
 816 749 l 0
EndSplineSet
EndChar

StartChar: greater
Encoding: 33 62 33
Width: 855
VWidth: 1024
Flags: HW
LayerCount: 2
Fore
SplineSet
797 628 m 0
 791.666992188 612.666992188 785 595 777 575 c 0
 769 555 761.333007812 538.333007812 754 525 c 0
 50 251 l 0
 29 279 l 0
 31.6669921875 285.666992188 34.6669921875 294 38 304 c 0
 41.3330078125 314 44.8330078125 324.333007812 48.5 335 c 0
 52.1669921875 345.666992188 55.8330078125 356 59.5 366 c 0
 63.1669921875 376 66.6669921875 384 70 390 c 0
 598 592 l 0
 122 796 l 0
 109 835 l 0
 117 841.666992188 124.166992188 848 130.5 854 c 0
 136.833007812 860 143.5 865.833007812 150.5 871.5 c 0
 157.5 877.166992188 165 882.833007812 173 888.5 c 0
 181 894.166992188 190 900 200 906 c 0
 774 659 l 0
 797 628 l 0
EndSplineSet
EndChar

StartChar: question
Encoding: 34 63 34
Width: 835
VWidth: 1024
Flags: HW
LayerCount: 2
Fore
SplineSet
837 1186 m 0
 837 1128 828.166992188 1077.16699219 810.5 1033.5 c 0
 792.833007812 989.833007812 770.5 950 743.5 914 c 0
 716.5 878 686.833007812 844.333007812 654.5 813 c 0
 622.166992188 781.666992188 591.333007812 749.833007812 562 717.5 c 0
 532.666992188 685.166992188 507 650.833007812 485 614.5 c 0
 463 578.166992188 448.666992188 536.666992188 442 490 c 0
 430 397 l 0
 417.333007812 387.666992188 404.333007812 379.333007812 391 372 c 0
 377.666992188 364.666992188 362.666992188 358.333007812 346 353 c 0
 323 374 l 0
 328 493 l 0
 329.333007812 536.333007812 338 576.666992188 354 614 c 0
 370 651.333007812 389.833007812 686.666992188 413.5 720 c 0
 437.166992188 753.333007812 462.666992188 785.666992188 490 817 c 0
 517.333007812 848.333007812 542.666992188 880.333007812 566 913 c 0
 589.333007812 945.666992188 608.666992188 979.5 624 1014.5 c 0
 639.333007812 1049.5 647 1087.33300781 647 1128 c 0
 647 1190.66699219 633.666992188 1240 607 1276 c 0
 580.333007812 1312 540.666992188 1330 488 1330 c 0
 462 1330 439.166992188 1323.83300781 419.5 1311.5 c 0
 399.833007812 1299.16699219 384 1282.33300781 372 1261 c 0
 360 1239.66699219 352.333007812 1214.83300781 349 1186.5 c 0
 345.666992188 1158.16699219 347 1128 353 1096 c 0
 323.666992188 1082.66699219 294.833007812 1072.33300781 266.5 1065 c 0
 238.166992188 1057.66699219 209.333007812 1052.33300781 180 1049 c 0
 157 1083 l 0
 157 1125.66699219 166.833007812 1167.66699219 186.5 1209 c 0
 206.166992188 1250.33300781 234.333007812 1287.33300781 271 1320 c 0
 307.666992188 1352.66699219 351.833007812 1379.16699219 403.5 1399.5 c 0
 455.166992188 1419.83300781 512.666992188 1430 576 1430 c 0
 620 1430 658.333007812 1423.66699219 691 1411 c 0
 723.666992188 1398.33300781 750.833007812 1381 772.5 1359 c 0
 794.166992188 1337 810.333007812 1311.16699219 821 1281.5 c 0
 831.666992188 1251.83300781 837 1220 837 1186 c 0
467 157 m 0
 467 135.666992188 463.333007812 114 456 92 c 0
 448.666992188 70 438 49.8330078125 424 31.5 c 0
 410 13.1669921875 393 -1.8330078125 373 -13.5 c 0
 353 -25.1669921875 330.666992188 -31 306 -31 c 0
 275.333007812 -31 251.666992188 -21.5 235 -2.5 c 0
 218.333007812 16.5 210 41.6669921875 210 73 c 0
 210 93 214 113.833007812 222 135.5 c 0
 230 157.166992188 241.166992188 176.833007812 255.5 194.5 c 0
 269.833007812 212.166992188 286.833007812 226.833007812 306.5 238.5 c 0
 326.166992188 250.166992188 347.666992188 256 371 256 c 0
 402.333007812 256 426.166992188 246.833007812 442.5 228.5 c 0
 458.833007812 210.166992188 467 186.333007812 467 157 c 0
EndSplineSet
EndChar

StartChar: at
Encoding: 35 64 35
Width: 1627
VWidth: 1024
Flags: HW
LayerCount: 2
Fore
SplineSet
944 403 m 0
 948 433 952.833007812 465 958.5 499 c 0
 964.166992188 533 969.833007812 566.166992188 975.5 598.5 c 0
 981.166992188 630.833007812 986.333007812 660.833007812 991 688.5 c 0
 995.666992188 716.166992188 999.666992188 738.333007812 1003 755 c 0
 983.666992188 771 962.666992188 785.666992188 940 799 c 0
 917.333007812 812.333007812 893 819 867 819 c 0
 837.666992188 819 810.833007812 811.833007812 786.5 797.5 c 0
 762.166992188 783.166992188 739.833007812 764 719.5 740 c 0
 699.166992188 716 681.333007812 688.666992188 666 658 c 0
 650.666992188 627.333007812 637.833007812 595.666992188 627.5 563 c 0
 617.166992188 530.333007812 609.333007812 498 604 466 c 0
 598.666992188 434 596 405 596 379 c 0
 596 337.666992188 599.333007812 300.833007812 606 268.5 c 0
 612.666992188 236.166992188 621.5 208.666992188 632.5 186 c 0
 643.5 163.333007812 656.333007812 146 671 134 c 0
 685.666992188 122 701 116 717 116 c 0
 731.666992188 116 748 124 766 140 c 0
 784 156 803 177.333007812 823 204 c 0
 843 230.666992188 863.333007812 261.166992188 884 295.5 c 0
 904.666992188 329.833007812 924.666992188 365.666992188 944 403 c 0
1541 549 m 0
 1533 491 1518.83300781 436.333007812 1498.5 385 c 0
 1478.16699219 333.666992188 1454 286.166992188 1426 242.5 c 0
 1398 198.833007812 1367.16699219 159.5 1333.5 124.5 c 0
 1299.83300781 89.5 1265.83300781 59.6669921875 1231.5 35 c 0
 1197.16699219 10.3330078125 1163.83300781 -8.5 1131.5 -21.5 c 0
 1099.16699219 -34.5 1069.66699219 -41 1043 -41 c 0
 1031.66699219 -41 1019.83300781 -37.1669921875 1007.5 -29.5 c 0
 995.166992188 -21.8330078125 983.5 -7.6669921875 972.5 13 c 0
 961.5 33.6669921875 952.166992188 62.3330078125 944.5 99 c 0
 936.833007812 135.666992188 932.333007812 183 931 241 c 0
 914.333007812 211 895 179.5 873 146.5 c 0
 851 113.5 827.5 83 802.5 55 c 0
 777.5 27 751.833007812 4 725.5 -14 c 0
 699.166992188 -32 673 -41 647 -41 c 0
 624.333007812 -41 600.333007812 -34.6669921875 575 -22 c 0
 549.666992188 -9.3330078125 526.166992188 10.8330078125 504.5 38.5 c 0
 482.833007812 66.1669921875 464.833007812 101.833007812 450.5 145.5 c 0
 436.166992188 189.166992188 429 242.333007812 429 305 c 0
 429 357.666992188 434.5 409.166992188 445.5 459.5 c 0
 456.5 509.833007812 473.333007812 558 496 604 c 0
 518.666992188 650 547.166992188 693.166992188 581.5 733.5 c 0
 615.833007812 773.833007812 656.666992188 810 704 842 c 0
 722 854 742.166992188 865.666992188 764.5 877 c 0
 786.833007812 888.333007812 809.833007812 898.333007812 833.5 907 c 0
 857.166992188 915.666992188 880.833007812 922.666992188 904.5 928 c 0
 928.166992188 933.333007812 950.666992188 936 972 936 c 0
 998.666992188 936 1024 929.833007812 1048 917.5 c 0
 1072 905.166992188 1094.33300781 892.333007812 1115 879 c 0
 1132.33300781 889.666992188 1150.33300781 899.666992188 1169 909 c 0
 1223 936 l 0
 1247 891 l 0
 1235.66699219 881.666992188 1226.16699219 873.333007812 1218.5 866 c 0
 1210.83300781 858.666992188 1204.33300781 850.166992188 1199 840.5 c 0
 1193.66699219 830.833007812 1188.83300781 819 1184.5 805 c 0
 1180.16699219 791 1175.66699219 772.666992188 1171 750 c 0
 1161 702 1151.83300781 653.666992188 1143.5 605 c 0
 1135.16699219 556.333007812 1128 511 1122 469 c 0
 1116 427 1111.33300781 389.833007812 1108 357.5 c 0
 1104.66699219 325.166992188 1103 301.666992188 1103 287 c 0
 1103 253 1104.66699219 225.166992188 1108 203.5 c 0
 1111.33300781 181.833007812 1115.66699219 164.5 1121 151.5 c 0
 1126.33300781 138.5 1132.66699219 129.5 1140 124.5 c 0
 1147.33300781 119.5 1155 117 1163 117 c 0
 1179.66699219 117 1199.5 126.833007812 1222.5 146.5 c 0
 1245.5 166.166992188 1268.16699219 193.5 1290.5 228.5 c 0
 1312.83300781 263.5 1333.16699219 305 1351.5 353 c 0
 1369.83300781 401 1383.33300781 453.333007812 1392 510 c 0
 1408.66699219 622.666992188 1407.33300781 722.166992188 1388 808.5 c 0
 1368.66699219 894.833007812 1336.5 967.333007812 1291.5 1026 c 0
 1246.5 1084.66699219 1191.66699219 1129 1127 1159 c 0
 1062.33300781 1189 993 1204 919 1204 c 0
 859.666992188 1204 803.166992188 1195 749.5 1177 c 0
 695.833007812 1159 645.833007812 1134.16699219 599.5 1102.5 c 0
 553.166992188 1070.83300781 510.666992188 1033 472 989 c 0
 433.333007812 945 399.333007812 897.166992188 370 845.5 c 0
 340.666992188 793.833007812 316.166992188 739 296.5 681 c 0
 276.833007812 623 262.666992188 564 254 504 c 0
 237.333007812 382.666992188 241 275.5 265 182.5 c 0
 289 89.5 327.666992188 11.5 381 -51.5 c 0
 434.333007812 -114.5 499 -162.333007812 575 -195 c 0
 651 -227.666992188 732.666992188 -244 820 -244 c 0
 871.333007812 -244 922.166992188 -237.666992188 972.5 -225 c 0
 1022.83300781 -212.333007812 1070.16699219 -196.833007812 1114.5 -178.5 c 0
 1158.83300781 -160.166992188 1198.66699219 -140.5 1234 -119.5 c 0
 1269.33300781 -98.5 1297.66699219 -79.3330078125 1319 -62 c 0
 1340 -130 l 0
 1314.66699219 -155.333007812 1282.33300781 -182.333007812 1243 -211 c 0
 1203.66699219 -239.666992188 1158.83300781 -266.166992188 1108.5 -290.5 c 0
 1058.16699219 -314.833007812 1002.83300781 -335 942.5 -351 c 0
 882.166992188 -367 818.333007812 -375 751 -375 c 0
 639 -375 537.666992188 -355.333007812 447 -316 c 0
 356.333007812 -276.666992188 280.5 -220.5 219.5 -147.5 c 0
 158.5 -74.5 115 13.8330078125 89 117.5 c 0
 63 221.166992188 59 337 77 465 c 0
 87.6669921875 539.666992188 106.666992188 613.166992188 134 685.5 c 0
 161.333007812 757.833007812 195.833007812 826 237.5 890 c 0
 279.166992188 954 327 1013.16699219 381 1067.5 c 0
 435 1121.83300781 493.833007812 1168.66699219 557.5 1208 c 0
 621.166992188 1247.33300781 688.666992188 1278 760 1300 c 0
 831.333007812 1322 905 1333 981 1333 c 0
 1041 1333 1098.16699219 1325.16699219 1152.5 1309.5 c 0
 1206.83300781 1293.83300781 1256.83300781 1270.83300781 1302.5 1240.5 c 0
 1348.16699219 1210.16699219 1388.5 1172.83300781 1423.5 1128.5 c 0
 1458.5 1084.16699219 1486.66699219 1032.83300781 1508 974.5 c 0
 1529.33300781 916.166992188 1543.16699219 851.5 1549.5 780.5 c 0
 1555.83300781 709.5 1553 632.333007812 1541 549 c 0
EndSplineSet
EndChar

StartChar: A
Encoding: 36 65 36
Width: 1163
VWidth: 1024
Flags: HW
LayerCount: 2
Fore
SplineSet
732 540 m 0
 640 1060 l 0
 415 540 l 0
 732 540 l 0
371 439 m 0
 233 121 l 0
 224.333007812 100.333007812 229.833007812 85.6669921875 249.5 77 c 0
 269.166992188 68.3330078125 304.333007812 60.3330078125 355 53 c 0
 348 0 l 0
 -40 0 l 0
 -33 53 l 0
 9.6669921875 61 43.3330078125 69.5 68 78.5 c 0
 92.6669921875 87.5 109.333007812 101.666992188 118 121 c 0
 599 1221 l 0
 610.333007812 1231 623.166992188 1240.66699219 637.5 1250 c 0
 651.833007812 1259.33300781 666.5 1268.16699219 681.5 1276.5 c 0
 696.5 1284.83300781 711.166992188 1292.5 725.5 1299.5 c 0
 739.833007812 1306.5 752.666992188 1312.33300781 764 1317 c 0
 983 121 l 0
 985 111.666992188 987.833007812 103.5 991.5 96.5 c 0
 995.166992188 89.5 1001 83.1669921875 1009 77.5 c 0
 1017 71.8330078125 1027.5 67 1040.5 63 c 0
 1053.5 59 1070.66699219 55.6669921875 1092 53 c 0
 1086 0 l 0
 676 0 l 0
 682 53 l 0
 729.333007812 56.3330078125 763 63.1669921875 783 73.5 c 0
 803 83.8330078125 811 99.6669921875 807 121 c 0
 751 439 l 0
 371 439 l 0
EndSplineSet
EndChar

StartChar: B
Encoding: 37 66 37
Width: 1039
VWidth: 1024
Flags: HW
LayerCount: 2
Fore
SplineSet
556 1199 m 0
 508 1199 l 0
 493.333007812 1199 479.333007812 1198.66699219 466 1198 c 0
 402 730 l 0
 434 730 l 0
 476.666992188 730 518.333007812 733.833007812 559 741.5 c 0
 599.666992188 749.166992188 635.833007812 762.833007812 667.5 782.5 c 0
 699.166992188 802.166992188 724.5 828.5 743.5 861.5 c 0
 762.5 894.5 772 936.333007812 772 987 c 0
 772 1027 765 1060.5 751 1087.5 c 0
 737 1114.5 719.5 1136.16699219 698.5 1152.5 c 0
 677.5 1168.83300781 654.166992188 1180.66699219 628.5 1188 c 0
 602.833007812 1195.33300781 578.666992188 1199 556 1199 c 0
528 644 m 0
 498.666992188 644 473.166992188 642.5 451.5 639.5 c 0
 429.833007812 636.5 408.666992188 633.333007812 388 630 c 0
 317 114 l 0
 315.666992188 109.333007812 319.666992188 102.666992188 329 94 c 0
 353 82 380.833007812 73.8330078125 412.5 69.5 c 0
 444.166992188 65.1669921875 474 63 502 63 c 0
 544.666992188 63 583 71.6669921875 617 89 c 0
 651 106.333007812 680 129.5 704 158.5 c 0
 728 187.5 746.333007812 220.666992188 759 258 c 0
 771.666992188 295.333007812 778 334.333007812 778 375 c 0
 778 408.333007812 773.5 441 764.5 473 c 0
 755.5 505 741.166992188 533.666992188 721.5 559 c 0
 701.833007812 584.333007812 676.166992188 604.833007812 644.5 620.5 c 0
 612.833007812 636.166992188 574 644 528 644 c 0
964 410 m 0
 964 344.666992188 950.833007812 285 924.5 231 c 0
 898.166992188 177 862.666992188 130.666992188 818 92 c 0
 773.333007812 53.3330078125 721 23.1669921875 661 1.5 c 0
 601 -20.1669921875 537.666992188 -31 471 -31 c 0
 457.666992188 -31 441.5 -30.6669921875 422.5 -30 c 0
 403.5 -29.3330078125 383.166992188 -28.1669921875 361.5 -26.5 c 0
 339.833007812 -24.8330078125 317.333007812 -23.1669921875 294 -21.5 c 0
 270.666992188 -19.8330078125 248 -18 226 -16 c 0
 174 -11.3330078125 119 -6 61 0 c 0
 -3 0 l 0
 4 53 l 0
 46 62.3330078125 79.1669921875 72.5 103.5 83.5 c 0
 127.833007812 94.5 140.666992188 104.666992188 142 114 c 0
 289 1185 l 0
 260.333007812 1181.66699219 234 1177.66699219 210 1173 c 0
 186 1168.33300781 162.333007812 1163.33300781 139 1158 c 0
 139 1227 l 0
 200.333007812 1244.33300781 267.333007812 1259.16699219 340 1271.5 c 0
 412.666992188 1283.83300781 495.333007812 1290 588 1290 c 0
 706 1290 797.166992188 1268 861.5 1224 c 0
 925.833007812 1180 958 1118.66699219 958 1040 c 0
 958 1005.33300781 952.5 971.833007812 941.5 939.5 c 0
 930.5 907.166992188 914.833007812 877.166992188 894.5 849.5 c 0
 874.166992188 821.833007812 849.833007812 797.166992188 821.5 775.5 c 0
 793.166992188 753.833007812 761.666992188 736.333007812 727 723 c 0
 761.666992188 715.666992188 793.666992188 702.833007812 823 684.5 c 0
 852.333007812 666.166992188 877.333007812 643.166992188 898 615.5 c 0
 918.666992188 587.833007812 934.833007812 556.666992188 946.5 522 c 0
 958.166992188 487.333007812 964 450 964 410 c 0
EndSplineSet
EndChar

StartChar: C
Encoding: 38 67 38
Width: 1010
VWidth: 1024
Flags: HW
LayerCount: 2
Fore
SplineSet
1036 1190 m 0
 1038.66699219 1186.66699219 1036 1178 1028 1164 c 0
 1020 1150 1009.66699219 1134.33300781 997 1117 c 0
 984.333007812 1099.66699219 971.166992188 1082.66699219 957.5 1066 c 0
 943.833007812 1049.33300781 932.666992188 1037.33300781 924 1030 c 0
 884 1040 l 0
 872 1056.66699219 858.333007812 1072.66699219 843 1088 c 0
 827.666992188 1103.33300781 810.333007812 1116.5 791 1127.5 c 0
 771.666992188 1138.5 750.5 1147.33300781 727.5 1154 c 0
 704.5 1160.66699219 679.333007812 1164 652 1164 c 0
 625.333007812 1164 596.833007812 1158.5 566.5 1147.5 c 0
 536.166992188 1136.5 507.666992188 1120.66699219 481 1100 c 0
 439 1067.33300781 403.5 1026.33300781 374.5 977 c 0
 345.5 927.666992188 321.833007812 875.833007812 303.5 821.5 c 0
 285.166992188 767.166992188 272 713.166992188 264 659.5 c 0
 256 605.833007812 252 558 252 516 c 0
 252 443.333007812 261.666992188 381.166992188 281 329.5 c 0
 300.333007812 277.833007812 325 235.666992188 355 203 c 0
 385 170.333007812 418 146.5 454 131.5 c 0
 490 116.5 524.666992188 109 558 109 c 0
 576 109 596 111.333007812 618 116 c 0
 640 120.666992188 664.5 129 691.5 141 c 0
 718.5 153 748 169 780 189 c 0
 812 209 847.333007812 234 886 264 c 0
 889.333007812 262.666992188 892.5 259.5 895.5 254.5 c 0
 898.5 249.5 901.333007812 244.166992188 904 238.5 c 0
 906.666992188 232.833007812 909.166992188 227.333007812 911.5 222 c 0
 913.833007812 216.666992188 915.666992188 213 917 211 c 0
 871.666992188 165.666992188 828.666992188 127.833007812 788 97.5 c 0
 747.333007812 67.1669921875 708.166992188 42.6669921875 670.5 24 c 0
 632.833007812 5.3330078125 597 -7.8330078125 563 -15.5 c 0
 529 -23.1669921875 496.333007812 -27 465 -27 c 0
 412.333007812 -27 362.166992188 -16.1669921875 314.5 5.5 c 0
 266.833007812 27.1669921875 225 58.6669921875 189 100 c 0
 153 141.333007812 124.333007812 192.166992188 103 252.5 c 0
 81.6669921875 312.833007812 71 381.666992188 71 459 c 0
 71 521.666992188 77.3330078125 585.5 90 650.5 c 0
 102.666992188 715.5 122.166992188 778.833007812 148.5 840.5 c 0
 174.833007812 902.166992188 208.5 960.833007812 249.5 1016.5 c 0
 290.5 1072.16699219 339 1122.33300781 395 1167 c 0
 443.666992188 1205 497.833007812 1235 557.5 1257 c 0
 617.166992188 1279 678.333007812 1290 741 1290 c 0
 807 1290 865.333007812 1280.33300781 916 1261 c 0
 966.666992188 1241.66699219 1006.66699219 1218 1036 1190 c 0
EndSplineSet
EndChar

StartChar: D
Encoding: 39 68 39
Width: 1148
VWidth: 1024
Flags: HW
LayerCount: 2
Fore
SplineSet
1112 748 m 0
 1112 689.333007812 1105.83300781 630.166992188 1093.5 570.5 c 0
 1081.16699219 510.833007812 1063.16699219 453.333007812 1039.5 398 c 0
 1015.83300781 342.666992188 986.333007812 290.666992188 951 242 c 0
 915.666992188 193.333007812 875 151.166992188 829 115.5 c 0
 783 79.8330078125 731.666992188 51.6669921875 675 31 c 0
 618.333007812 10.3330078125 557 0 491 0 c 0
 -3 0 l 0
 5 53 l 0
 47 62.3330078125 80.1669921875 72.5 104.5 83.5 c 0
 128.833007812 94.5 141.666992188 104.666992188 143 114 c 0
 290 1182 l 0
 141 1164 l 0
 141 1237 l 0
 217.666992188 1255.66699219 295.5 1269.16699219 374.5 1277.5 c 0
 453.5 1285.83300781 527.333007812 1290 596 1290 c 0
 680 1290 754.166992188 1277.16699219 818.5 1251.5 c 0
 882.833007812 1225.83300781 936.833007812 1189.5 980.5 1142.5 c 0
 1024.16699219 1095.5 1057 1038.66699219 1079 972 c 0
 1101 905.333007812 1112 830.666992188 1112 748 c 0
527 1199 m 0
 517 1199 507 1198.83300781 497 1198.5 c 0
 487 1198.16699219 477 1197.66699219 467 1197 c 0
 324 147 l 0
 322.666992188 137 323.833007812 128.666992188 327.5 122 c 0
 331.166992188 115.333007812 338.5 109.666992188 349.5 105 c 0
 360.5 100.333007812 375.833007812 97 395.5 95 c 0
 415.166992188 93 440 92 470 92 c 0
 518 92 562.5 101.166992188 603.5 119.5 c 0
 644.5 137.833007812 681.666992188 162.666992188 715 194 c 0
 748.333007812 225.333007812 777.833007812 262 803.5 304 c 0
 829.166992188 346 850.5 390.5 867.5 437.5 c 0
 884.5 484.5 897.5 532.833007812 906.5 582.5 c 0
 915.5 632.166992188 920 680.333007812 920 727 c 0
 920 798.333007812 911.833007812 863 895.5 921 c 0
 879.166992188 979 854.666992188 1028.66699219 822 1070 c 0
 789.333007812 1111.33300781 748.333007812 1143.16699219 699 1165.5 c 0
 649.666992188 1187.83300781 592.333007812 1199 527 1199 c 0
EndSplineSet
EndChar

StartChar: E
Encoding: 40 69 40
Width: 967
VWidth: 1024
Flags: HW
LayerCount: 2
Fore
SplineSet
886 264 m 0
 879.333007812 235.333007812 872.5 207.333007812 865.5 180 c 0
 858.5 152.666992188 851.666992188 127.166992188 845 103.5 c 0
 838.333007812 79.8330078125 832.166992188 59.1669921875 826.5 41.5 c 0
 820.833007812 23.8330078125 816 10 812 0 c 0
 -3 0 l 0
 5 53 l 0
 47 62.3330078125 80.3330078125 72.5 105 83.5 c 0
 129.666992188 94.5 142.666992188 104.666992188 144 114 c 0
 287 1145 l 0
 288.333007812 1153 279 1163 259 1175 c 0
 239 1187 207.333007812 1197.66699219 164 1207 c 0
 171 1260 l 0
 935 1260 l 0
 962 1233 l 0
 958.666992188 1215.66699219 954.333007812 1195.83300781 949 1173.5 c 0
 943.666992188 1151.16699219 937.666992188 1128.5 931 1105.5 c 0
 924.333007812 1082.5 917.5 1060.66699219 910.5 1040 c 0
 903.5 1019.33300781 897.333007812 1002.66699219 892 990 c 0
 840 990 l 0
 846 1051.33300781 844.5 1094.83300781 835.5 1120.5 c 0
 826.5 1146.16699219 810.333007812 1159 787 1159 c 0
 460 1159 l 0
 402 735 l 0
 775 735 l 0
 797 705 l 0
 790.333007812 695.666992188 782.833007812 685.5 774.5 674.5 c 0
 766.166992188 663.5 757.5 652.666992188 748.5 642 c 0
 739.5 631.333007812 730.5 621.5 721.5 612.5 c 0
 712.5 603.5 704.333007812 596 697 590 c 0
 687 600.666992188 676.333007812 609.666992188 665 617 c 0
 653.666992188 624.333007812 639.666992188 630 623 634 c 0
 606.333007812 638 586.166992188 640.833007812 562.5 642.5 c 0
 538.833007812 644.166992188 509.666992188 645 475 645 c 0
 390 645 l 0
 325 164 l 0
 323.666992188 154 324.666992188 145.166992188 328 137.5 c 0
 331.333007812 129.833007812 339.333007812 123.166992188 352 117.5 c 0
 364.666992188 111.833007812 383.166992188 107.5 407.5 104.5 c 0
 431.833007812 101.5 464 100 504 100 c 0
 615 100 l 0
 643 100 667 102.333007812 687 107 c 0
 707 111.666992188 725.166992188 120.666992188 741.5 134 c 0
 757.833007812 147.333007812 773.5 166 788.5 190 c 0
 803.5 214 820.333007812 245.666992188 839 285 c 0
 886 264 l 0
EndSplineSet
EndChar

StartChar: F
Encoding: 41 70 41
Width: 912
VWidth: 1024
Flags: HW
LayerCount: 2
Fore
SplineSet
970 1233 m 0
 966.666992188 1215.66699219 962.333007812 1195.83300781 957 1173.5 c 0
 951.666992188 1151.16699219 945.666992188 1128.5 939 1105.5 c 0
 932.333007812 1082.5 925.666992188 1060.66699219 919 1040 c 0
 912.333007812 1019.33300781 906.333007812 1002.66699219 901 990 c 0
 850 990 l 0
 854.666992188 1051.33300781 852.5 1094.83300781 843.5 1120.5 c 0
 834.5 1146.16699219 818.333007812 1159 795 1159 c 0
 460 1159 l 0
 402 735 l 0
 729 735 l 0
 754 705 l 0
 746.666992188 695 738.666992188 684.5 730 673.5 c 0
 721.333007812 662.5 712.5 651.666992188 703.5 641 c 0
 694.5 630.333007812 685.666992188 620.666992188 677 612 c 0
 668.333007812 603.333007812 660.666992188 596 654 590 c 0
 643.333007812 600.666992188 632 609.666992188 620 617 c 0
 608 624.333007812 594.5 630 579.5 634 c 0
 564.5 638 547.833007812 640.833007812 529.5 642.5 c 0
 511.166992188 644.166992188 490.666992188 645 468 645 c 0
 389 645 l 0
 317 114 l 0
 315.666992188 106 326 97 348 87 c 0
 370 77 410 65.6669921875 468 53 c 0
 461 0 l 0
 -3 0 l 0
 5 53 l 0
 47 62.3330078125 80.3330078125 72.5 105 83.5 c 0
 129.666992188 94.5 142.666992188 104.666992188 144 114 c 0
 287 1145 l 0
 288.333007812 1153 279 1163 259 1175 c 0
 239 1187 207.333007812 1197.66699219 164 1207 c 0
 171 1260 l 0
 944 1260 l 0
 970 1233 l 0
EndSplineSet
EndChar

StartChar: G
Encoding: 42 71 42
Width: 1089
VWidth: 1024
Flags: HW
LayerCount: 2
Fore
SplineSet
1078 542 m 0
 1042 531.333007812 1015.66699219 518.833007812 999 504.5 c 0
 982.333007812 490.166992188 973 475.333007812 971 460 c 0
 968.333007812 442 965.166992188 418.666992188 961.5 390 c 0
 957.833007812 361.333007812 954 332 950 302 c 0
 946 272 942.333007812 243.833007812 939 217.5 c 0
 935.666992188 191.166992188 933.333007812 171.666992188 932 159 c 0
 881.333007812 118.333007812 836 85.6669921875 796 61 c 0
 756 36.3330078125 719.333007812 17.1669921875 686 3.5 c 0
 652.666992188 -10.1669921875 621.666992188 -19.3330078125 593 -24 c 0
 564.333007812 -28.6669921875 536.666992188 -31 510 -31 c 0
 452.666992188 -31 397.5 -19.5 344.5 3.5 c 0
 291.5 26.5 244.833007812 59.6669921875 204.5 103 c 0
 164.166992188 146.333007812 131.833007812 199.666992188 107.5 263 c 0
 83.1669921875 326.333007812 71 398 71 478 c 0
 71 541.333007812 78.3330078125 604.666992188 93 668 c 0
 107.666992188 731.333007812 128.333007812 792 155 850 c 0
 181.666992188 908 213.5 962 250.5 1012 c 0
 287.5 1062 328.666992188 1105 374 1141 c 0
 430.666992188 1187 493.833007812 1223.33300781 563.5 1250 c 0
 633.166992188 1276.66699219 710.666992188 1290 796 1290 c 0
 816.666992188 1290 839.666992188 1287.66699219 865 1283 c 0
 890.333007812 1278.33300781 915.833007812 1271.66699219 941.5 1263 c 0
 967.166992188 1254.33300781 991.5 1243.66699219 1014.5 1231 c 0
 1037.5 1218.33300781 1057.66699219 1204 1075 1188 c 0
 1079 1184.66699219 1077 1175.83300781 1069 1161.5 c 0
 1061 1147.16699219 1050.5 1131.5 1037.5 1114.5 c 0
 1024.5 1097.5 1010.83300781 1081 996.5 1065 c 0
 982.166992188 1049 970.333007812 1037.33300781 961 1030 c 0
 923 1038 l 0
 891.666992188 1082.66699219 855.166992188 1115.66699219 813.5 1137 c 0
 771.833007812 1158.33300781 719.666992188 1169 657 1169 c 0
 630.333007812 1169 599.5 1160.5 564.5 1143.5 c 0
 529.5 1126.5 494.333007812 1103 459 1073 c 0
 427.666992188 1047 399.166992188 1012.33300781 373.5 969 c 0
 347.833007812 925.666992188 325.833007812 878.5 307.5 827.5 c 0
 289.166992188 776.5 275 724.333007812 265 671 c 0
 255 617.666992188 250 567.666992188 250 521 c 0
 250 449.666992188 260.333007812 388 281 336 c 0
 301.666992188 284 328.166992188 241.166992188 360.5 207.5 c 0
 392.833007812 173.833007812 429 148.833007812 469 132.5 c 0
 509 116.166992188 548.666992188 108 588 108 c 0
 620 108 651.833007812 112.5 683.5 121.5 c 0
 715.166992188 130.5 742.666992188 143.666992188 766 161 c 0
 806 460 l 0
 806.666992188 466.666992188 805.5 473.333007812 802.5 480 c 0
 799.5 486.666992188 790.666992188 493.333007812 776 500 c 0
 761.333007812 506.666992188 739.5 513.333007812 710.5 520 c 0
 681.5 526.666992188 642 534 592 542 c 0
 598 595 l 0
 1084 595 l 0
 1078 542 l 0
EndSplineSet
EndChar

StartChar: H
Encoding: 43 72 43
Width: 1259
VWidth: 1024
Flags: HW
LayerCount: 2
Fore
SplineSet
599 1207 m 0
 557 1197.66699219 523.666992188 1187.33300781 499 1176 c 0
 474.333007812 1164.66699219 461 1154.33300781 459 1145 c 0
 400 710 l 0
 931 710 l 0
 991 1145 l 0
 992.333007812 1153 983 1163 963 1175 c 0
 943 1187 911.666992188 1197.66699219 869 1207 c 0
 875 1260 l 0
 1312 1260 l 0
 1305 1207 l 0
 1262.33300781 1197.66699219 1228.66699219 1187.33300781 1204 1176 c 0
 1179.33300781 1164.66699219 1166.33300781 1154.33300781 1165 1145 c 0
 1023 114 l 0
 1021.66699219 106 1031 96.1669921875 1051 84.5 c 0
 1071 72.8330078125 1102.66699219 62.3330078125 1146 53 c 0
 1139 0 l 0
 703 0 l 0
 711 53 l 0
 753.666992188 62.3330078125 787 72.5 811 83.5 c 0
 835 94.5 847.666992188 104.666992188 849 114 c 0
 917 609 l 0
 386 609 l 0
 319 114 l 0
 317 106 326 96.1669921875 346 84.5 c 0
 366 72.8330078125 397.333007812 62.3330078125 440 53 c 0
 433 0 l 0
 -3 0 l 0
 5 53 l 0
 47 62.3330078125 80.3330078125 72.5 105 83.5 c 0
 129.666992188 94.5 142.666992188 104.666992188 144 114 c 0
 287 1145 l 0
 288.333007812 1153 279 1163 259 1175 c 0
 239 1187 207.333007812 1197.66699219 164 1207 c 0
 171 1260 l 0
 607 1260 l 0
 599 1207 l 0
EndSplineSet
EndChar

StartChar: I
Encoding: 44 73 44
Width: 593
VWidth: 1024
Flags: HW
LayerCount: 2
Fore
SplineSet
619 1207 m 0
 577 1197.66699219 543.666992188 1187.33300781 519 1176 c 0
 494.333007812 1164.66699219 481.333007812 1154.33300781 480 1145 c 0
 337 114 l 0
 335.666992188 106 345 96.1669921875 365 84.5 c 0
 385 72.8330078125 416.666992188 62.3330078125 460 53 c 0
 453 0 l 0
 18 0 l 0
 26 53 l 0
 68 62.3330078125 101.166992188 72.5 125.5 83.5 c 0
 149.833007812 94.5 163 104.666992188 165 114 c 0
 305 1145 l 0
 306.333007812 1153 297 1163 277 1175 c 0
 257 1187 226 1197.66699219 184 1207 c 0
 192 1260 l 0
 626 1260 l 0
 619 1207 l 0
EndSplineSet
EndChar

StartChar: J
Encoding: 45 74 45
Width: 598
VWidth: 1024
Flags: HW
LayerCount: 2
Fore
SplineSet
644 1207 m 0
 602 1197.66699219 568.5 1187.33300781 543.5 1176 c 0
 518.5 1164.66699219 505.333007812 1154.33300781 504 1145 c 0
 375 205 l 0
 364.333007812 127.666992188 349.833007812 62.3330078125 331.5 9 c 0
 313.166992188 -44.3330078125 292.333007812 -89.5 269 -126.5 c 0
 245.666992188 -163.5 220.666992188 -194.5 194 -219.5 c 0
 167.333007812 -244.5 140.333007812 -267.666992188 113 -289 c 0
 95 -303 75 -316 53 -328 c 0
 31 -340 8.8330078125 -350.333007812 -13.5 -359 c 0
 -35.8330078125 -367.666992188 -57.1669921875 -374.333007812 -77.5 -379 c 0
 -97.8330078125 -383.666992188 -115.333007812 -386 -130 -386 c 0
 -150.666992188 -386 -170.5 -382.833007812 -189.5 -376.5 c 0
 -208.5 -370.166992188 -225.333007812 -362.5 -240 -353.5 c 0
 -254.666992188 -344.5 -266.5 -335.166992188 -275.5 -325.5 c 0
 -284.5 -315.833007812 -289 -307.666992188 -289 -301 c 0
 -289 -294.333007812 -283.333007812 -284.333007812 -272 -271 c 0
 -260.666992188 -257.666992188 -247.5 -244.333007812 -232.5 -231 c 0
 -217.5 -217.666992188 -202.166992188 -206 -186.5 -196 c 0
 -170.833007812 -186 -159 -181 -151 -181 c 0
 -144.333007812 -181 -137 -184.5 -129 -191.5 c 0
 -121 -198.5 -111.5 -206.166992188 -100.5 -214.5 c 0
 -89.5 -222.833007812 -76.5 -230.5 -61.5 -237.5 c 0
 -46.5 -244.5 -28.6669921875 -248 -8 -248 c 0
 8 -248 25.3330078125 -242.833007812 44 -232.5 c 0
 62.6669921875 -222.166992188 81.1669921875 -203 99.5 -175 c 0
 117.833007812 -147 135.166992188 -108.166992188 151.5 -58.5 c 0
 167.833007812 -8.8330078125 181.333007812 55 192 133 c 0
 331 1145 l 0
 331.666992188 1149 330 1153.33300781 326 1158 c 0
 322 1162.66699219 313.833007812 1167.66699219 301.5 1173 c 0
 289.166992188 1178.33300781 272 1183.83300781 250 1189.5 c 0
 228 1195.16699219 199 1201 163 1207 c 0
 169 1260 l 0
 652 1260 l 0
 644 1207 l 0
EndSplineSet
EndChar

StartChar: K
Encoding: 46 75 46
Width: 1136
VWidth: 1024
Flags: HW
LayerCount: 2
Fore
SplineSet
599 1207 m 0
 557 1197.66699219 523.666992188 1187.33300781 499 1176 c 0
 474.333007812 1164.66699219 461 1154.33300781 459 1145 c 0
 392 652 l 0
 834 1118 l 0
 850.666992188 1136 862 1150.33300781 868 1161 c 0
 874 1171.66699219 874.833007812 1180 870.5 1186 c 0
 866.166992188 1192 857 1196.5 843 1199.5 c 0
 829 1202.5 810.333007812 1205 787 1207 c 0
 794 1260 l 0
 1188 1260 l 0
 1181 1207 l 0
 1160.33300781 1204.33300781 1142.5 1201.66699219 1127.5 1199 c 0
 1112.5 1196.33300781 1098.83300781 1192.66699219 1086.5 1188 c 0
 1074.16699219 1183.33300781 1062.83300781 1177.66699219 1052.5 1171 c 0
 1042.16699219 1164.33300781 1031.66699219 1155.66699219 1021 1145 c 0
 543 672 l 0
 894 172 l 0
 903.333007812 158.666992188 913.833007812 148.666992188 925.5 142 c 0
 937.166992188 135.333007812 950.833007812 131.666992188 966.5 131 c 0
 982.166992188 130.333007812 1000.33300781 132.833007812 1021 138.5 c 0
 1041.66699219 144.166992188 1065.66699219 152.666992188 1093 164 c 0
 1114 116 l 0
 1090 97.3330078125 1065 80 1039 64 c 0
 1013 48 987.833007812 34.3330078125 963.5 23 c 0
 939.166992188 11.6669921875 916.666992188 2.6669921875 896 -4 c 0
 875.333007812 -10.6669921875 858.333007812 -14 845 -14 c 0
 825 -14 808.166992188 -10.1669921875 794.5 -2.5 c 0
 780.833007812 5.1669921875 766.666992188 21.3330078125 752 46 c 0
 389 632 l 0
 319 114 l 0
 317 106 326 96.1669921875 346 84.5 c 0
 366 72.8330078125 397.333007812 62.3330078125 440 53 c 0
 433 0 l 0
 -3 0 l 0
 5 53 l 0
 47 62.3330078125 80.3330078125 72.5 105 83.5 c 0
 129.666992188 94.5 142.666992188 104.666992188 144 114 c 0
 287 1145 l 0
 288.333007812 1153 279 1163 259 1175 c 0
 239 1187 207.333007812 1197.66699219 164 1207 c 0
 171 1260 l 0
 607 1260 l 0
 599 1207 l 0
EndSplineSet
EndChar

StartChar: L
Encoding: 47 76 47
Width: 943
VWidth: 1024
Flags: HW
LayerCount: 2
Fore
SplineSet
878 264 m 0
 871.333007812 235.333007812 864.5 207.333007812 857.5 180 c 0
 850.5 152.666992188 843.5 127.166992188 836.5 103.5 c 0
 829.5 79.8330078125 823 59.1669921875 817 41.5 c 0
 811 23.8330078125 806 10 802 0 c 0
 -3 0 l 0
 5 53 l 0
 47 62.3330078125 80.3330078125 72.5 105 83.5 c 0
 129.666992188 94.5 142.666992188 104.666992188 144 114 c 0
 287 1145 l 0
 288.333007812 1153 279 1163 259 1175 c 0
 239 1187 207.333007812 1197.66699219 164 1207 c 0
 171 1260 l 0
 607 1260 l 0
 599 1207 l 0
 557 1197.66699219 523.666992188 1187.33300781 499 1176 c 0
 474.333007812 1164.66699219 461 1154.33300781 459 1145 c 0
 325 167 l 0
 323.666992188 155 325 144.833007812 329 136.5 c 0
 333 128.166992188 341.166992188 121.166992188 353.5 115.5 c 0
 365.833007812 109.833007812 382.833007812 105.833007812 404.5 103.5 c 0
 426.166992188 101.166992188 453.666992188 100 487 100 c 0
 607 100 l 0
 635 100 658.833007812 102.333007812 678.5 107 c 0
 698.166992188 111.666992188 716.166992188 120.666992188 732.5 134 c 0
 748.833007812 147.333007812 764.666992188 166 780 190 c 0
 795.333007812 214 812.333007812 245.666992188 831 285 c 0
 878 264 l 0
EndSplineSet
EndChar

StartChar: M
Encoding: 48 77 48
Width: 1543
VWidth: 1024
Flags: HW
LayerCount: 2
Fore
SplineSet
1565 1207 m 0
 1547.66699219 1207 1527.66699219 1204 1505 1198 c 0
 1482.33300781 1192 1459 1184 1435 1174 c 0
 1313 114 l 0
 1311.66699219 106 1321.83300781 96.1669921875 1343.5 84.5 c 0
 1365.16699219 72.8330078125 1397.66699219 62.3330078125 1441 53 c 0
 1434 0 l 0
 1000 0 l 0
 1007 53 l 0
 1049.66699219 62.3330078125 1084.33300781 72.5 1111 83.5 c 0
 1137.66699219 94.5 1151.66699219 104.666992188 1153 114 c 0
 1258 1023 l 0
 724 0 l 0
 668 0 l 0
 396 1015 l 0
 265 114 l 0
 263.666992188 106 272.833007812 96.1669921875 292.5 84.5 c 0
 312.166992188 72.8330078125 343.666992188 62.3330078125 387 53 c 0
 380 0 l 0
 5 0 l 0
 12 53 l 0
 55.3330078125 62.3330078125 88.8330078125 72.5 112.5 83.5 c 0
 136.166992188 94.5 148.666992188 104.666992188 150 114 c 0
 304 1170 l 0
 283.333007812 1183.33300781 262 1192.83300781 240 1198.5 c 0
 218 1204.16699219 198.333007812 1207 181 1207 c 0
 188 1260 l 0
 472 1260 l 0
 478 1260 482.833007812 1259 486.5 1257 c 0
 490.166992188 1255 493.833007812 1251 497.5 1245 c 0
 501.166992188 1239 504.666992188 1230.5 508 1219.5 c 0
 511.333007812 1208.5 515.333007812 1194 520 1176 c 0
 762 302 l 0
 1221 1176 l 0
 1230.33300781 1194 1238.33300781 1208.5 1245 1219.5 c 0
 1251.66699219 1230.5 1257.5 1239 1262.5 1245 c 0
 1267.5 1251 1272.33300781 1255 1277 1257 c 0
 1281.66699219 1259 1287 1260 1293 1260 c 0
 1571 1260 l 0
 1565 1207 l 0
EndSplineSet
EndChar

StartChar: N
Encoding: 49 78 49
Width: 1248
VWidth: 1024
Flags: HW
LayerCount: 2
Fore
SplineSet
1306 1207 m 0
 1261.33300781 1200.33300781 1228 1191.16699219 1206 1179.5 c 0
 1184 1167.83300781 1172.33300781 1156.33300781 1171 1145 c 0
 1008 -31 l 0
 970 -26.3330078125 939.5 -17.8330078125 916.5 -5.5 c 0
 893.5 6.8330078125 874.333007812 27.6669921875 859 57 c 0
 378 977 l 0
 260 114 l 0
 258.666992188 106 266.833007812 95.6669921875 284.5 83 c 0
 302.166992188 70.3330078125 334 60.3330078125 380 53 c 0
 373 0 l 0
 -1 0 l 0
 7 53 l 0
 52.3330078125 59 86 68.3330078125 108 81 c 0
 130 93.6669921875 141.666992188 104.666992188 143 114 c 0
 285 1141 l 0
 267.666992188 1161 248.833007812 1175.83300781 228.5 1185.5 c 0
 208.166992188 1195.16699219 184.666992188 1202.33300781 158 1207 c 0
 165 1260 l 0
 369 1260 l 0
 382.333007812 1260 392.833007812 1259.5 400.5 1258.5 c 0
 408.166992188 1257.5 415 1254.5 421 1249.5 c 0
 427 1244.5 433 1236.66699219 439 1226 c 0
 445 1215.33300781 452.666992188 1200.66699219 462 1182 c 0
 936 282 l 0
 1054 1145 l 0
 1054.66699219 1149 1053.16699219 1153.83300781 1049.5 1159.5 c 0
 1045.83300781 1165.16699219 1039.33300781 1170.83300781 1030 1176.5 c 0
 1020.66699219 1182.16699219 1008.16699219 1187.66699219 992.5 1193 c 0
 976.833007812 1198.33300781 957 1203 933 1207 c 0
 940 1260 l 0
 1313 1260 l 0
 1306 1207 l 0
EndSplineSet
EndChar

StartChar: O
Encoding: 50 79 50
Width: 1135
VWidth: 1024
Flags: HW
LayerCount: 2
Fore
SplineSet
1109 774 m 0
 1109 726.666992188 1104.83300781 678.666992188 1096.5 630 c 0
 1088.16699219 581.333007812 1076 533.333007812 1060 486 c 0
 1044 438.666992188 1024.33300781 392.833007812 1001 348.5 c 0
 977.666992188 304.166992188 951 263 921 225 c 0
 893 189 862.666992188 155.5 830 124.5 c 0
 797.333007812 93.5 762.5 66.5 725.5 43.5 c 0
 688.5 20.5 649.666992188 2.3330078125 609 -11 c 0
 568.333007812 -24.3330078125 525.666992188 -31 481 -31 c 0
 415.666992188 -31 358.333007812 -17.3330078125 309 10 c 0
 259.666992188 37.3330078125 218.333007812 74.5 185 121.5 c 0
 151.666992188 168.5 126.666992188 223.333007812 110 286 c 0
 93.3330078125 348.666992188 85 415 85 485 c 0
 85 529.666992188 89 575.666992188 97 623 c 0
 105 670.333007812 116.333007812 717.166992188 131 763.5 c 0
 145.666992188 809.833007812 163.5 854.666992188 184.5 898 c 0
 205.5 941.333007812 229.333007812 981.333007812 256 1018 c 0
 284 1055.33300781 314.333007812 1090.5 347 1123.5 c 0
 379.666992188 1156.5 415.166992188 1185.33300781 453.5 1210 c 0
 491.833007812 1234.66699219 532.666992188 1254.16699219 576 1268.5 c 0
 619.333007812 1282.83300781 665.666992188 1290 715 1290 c 0
 782.333007812 1290 840.833007812 1276.33300781 890.5 1249 c 0
 940.166992188 1221.66699219 981.166992188 1184.5 1013.5 1137.5 c 0
 1045.83300781 1090.5 1069.83300781 1035.66699219 1085.5 973 c 0
 1101.16699219 910.333007812 1109 844 1109 774 c 0
930 756 m 0
 930 812 924.166992188 864.833007812 912.5 914.5 c 0
 900.833007812 964.166992188 883.833007812 1007.33300781 861.5 1044 c 0
 839.166992188 1080.66699219 811.5 1109.66699219 778.5 1131 c 0
 745.5 1152.33300781 707.666992188 1163 665 1163 c 0
 617.666992188 1163 575 1153.33300781 537 1134 c 0
 499 1114.66699219 465.166992188 1088.5 435.5 1055.5 c 0
 405.833007812 1022.5 380.5 984.666992188 359.5 942 c 0
 338.5 899.333007812 321.166992188 854.5 307.5 807.5 c 0
 293.833007812 760.5 283.666992188 713.333007812 277 666 c 0
 270.333007812 618.666992188 267 574 267 532 c 0
 267 470 273.166992188 412.666992188 285.5 360 c 0
 297.833007812 307.333007812 315.5 262 338.5 224 c 0
 361.5 186 389.333007812 156.333007812 422 135 c 0
 454.666992188 113.666992188 491 103 531 103 c 0
 579.666992188 103 623.166992188 113.166992188 661.5 133.5 c 0
 699.833007812 153.833007812 733.833007812 181.166992188 763.5 215.5 c 0
 793.166992188 249.833007812 818.5 289.333007812 839.5 334 c 0
 860.5 378.666992188 877.666992188 425.166992188 891 473.5 c 0
 904.333007812 521.833007812 914.166992188 570.333007812 920.5 619 c 0
 926.833007812 667.666992188 930 713.333007812 930 756 c 0
EndSplineSet
EndChar

StartChar: P
Encoding: 51 80 51
Width: 998
VWidth: 1024
Flags: HW
LayerCount: 2
Fore
SplineSet
1013 942 m 0
 1013 885.333007812 1001.5 832 978.5 782 c 0
 955.5 732 924.333007812 688.333007812 885 651 c 0
 845.666992188 613.666992188 799.666992188 584.166992188 747 562.5 c 0
 694.333007812 540.833007812 638 530 578 530 c 0
 552.666992188 530 527 533.166992188 501 539.5 c 0
 475 545.833007812 453 554 435 564 c 0
 422 648 l 0
 444.666992188 638.666992188 466.5 630.833007812 487.5 624.5 c 0
 508.5 618.166992188 530 615 552 615 c 0
 594.666992188 615 633.5 622 668.5 636 c 0
 703.5 650 733.333007812 669.666992188 758 695 c 0
 782.666992188 720.333007812 801.833007812 750.833007812 815.5 786.5 c 0
 829.166992188 822.166992188 836 861.666992188 836 905 c 0
 836 961 827.166992188 1007.66699219 809.5 1045 c 0
 791.833007812 1082.33300781 768.333007812 1112.5 739 1135.5 c 0
 709.666992188 1158.5 675.5 1174.83300781 636.5 1184.5 c 0
 597.5 1194.16699219 556.666992188 1199 514 1199 c 0
 490 1199 l 0
 482.666992188 1199 475.333007812 1198.66699219 468 1198 c 0
 319 114 l 0
 317.666992188 110 319 105.666992188 323 101 c 0
 327 96.3330078125 334.666992188 91.3330078125 346 86 c 0
 357.333007812 80.6669921875 373 75.3330078125 393 70 c 0
 413 64.6669921875 438.666992188 59 470 53 c 0
 463 0 l 0
 -3 0 l 0
 5 53 l 0
 47 62.3330078125 80.1669921875 72.5 104.5 83.5 c 0
 128.833007812 94.5 141.666992188 104.666992188 143 114 c 0
 290 1184 l 0
 266.666992188 1180.66699219 242.5 1176.66699219 217.5 1172 c 0
 192.5 1167.33300781 166.333007812 1161.66699219 139 1155 c 0
 139 1225 l 0
 198.333007812 1245 263.666992188 1260.83300781 335 1272.5 c 0
 406.333007812 1284.16699219 485.333007812 1290 572 1290 c 0
 640.666992188 1290 702.166992188 1282.66699219 756.5 1268 c 0
 810.833007812 1253.33300781 857 1231.33300781 895 1202 c 0
 933 1172.66699219 962.166992188 1136.33300781 982.5 1093 c 0
 1002.83300781 1049.66699219 1013 999.333007812 1013 942 c 0
EndSplineSet
EndChar

StartChar: Q
Encoding: 52 81 52
Width: 1157
VWidth: 1024
Flags: HW
LayerCount: 2
Fore
SplineSet
1154 -120 m 0
 1134.66699219 -149.333007812 1115.33300781 -175.5 1096 -198.5 c 0
 1076.66699219 -221.5 1058.16699219 -241 1040.5 -257 c 0
 1022.83300781 -273 1006.66699219 -285.333007812 992 -294 c 0
 977.333007812 -302.666992188 965 -307 955 -307 c 0
 916.333007812 -307 879.166992188 -296.833007812 843.5 -276.5 c 0
 807.833007812 -256.166992188 772.666992188 -231.5 738 -202.5 c 0
 703.333007812 -173.5 669 -143 635 -111 c 0
 601 -79 566 -51.3330078125 530 -28 c 0
 514 -30 497.666992188 -31 481 -31 c 0
 415.666992188 -31 358.333007812 -17.3330078125 309 10 c 0
 259.666992188 37.3330078125 218.333007812 74.5 185 121.5 c 0
 151.666992188 168.5 126.666992188 223.333007812 110 286 c 0
 93.3330078125 348.666992188 85 415 85 485 c 0
 85 529.666992188 89 575.666992188 97 623 c 0
 105 670.333007812 116.333007812 717.166992188 131 763.5 c 0
 145.666992188 809.833007812 163.5 854.666992188 184.5 898 c 0
 205.5 941.333007812 229.333007812 981.333007812 256 1018 c 0
 284 1055.33300781 314.333007812 1090.5 347 1123.5 c 0
 379.666992188 1156.5 415.166992188 1185.33300781 453.5 1210 c 0
 491.833007812 1234.66699219 532.666992188 1254.16699219 576 1268.5 c 0
 619.333007812 1282.83300781 665.666992188 1290 715 1290 c 0
 782.333007812 1290 840.833007812 1276.33300781 890.5 1249 c 0
 940.166992188 1221.66699219 981.166992188 1184.5 1013.5 1137.5 c 0
 1045.83300781 1090.5 1069.83300781 1035.66699219 1085.5 973 c 0
 1101.16699219 910.333007812 1109 844 1109 774 c 0
 1109 726.666992188 1104.83300781 678.666992188 1096.5 630 c 0
 1088.16699219 581.333007812 1076 533.333007812 1060 486 c 0
 1044 438.666992188 1024.33300781 392.833007812 1001 348.5 c 0
 977.666992188 304.166992188 951 263 921 225 c 0
 886.333007812 181 848.833007812 141.166992188 808.5 105.5 c 0
 768.166992188 69.8330078125 724.666992188 40.3330078125 678 17 c 0
 706 1.6669921875 733.166992188 -15.6669921875 759.5 -35 c 0
 785.833007812 -54.3330078125 811.5 -72.5 836.5 -89.5 c 0
 861.5 -106.5 886.333007812 -120.833007812 911 -132.5 c 0
 935.666992188 -144.166992188 960 -150 984 -150 c 0
 992 -150 1000 -148.833007812 1008 -146.5 c 0
 1016 -144.166992188 1025.5 -140.166992188 1036.5 -134.5 c 0
 1047.5 -128.833007812 1060.16699219 -121.166992188 1074.5 -111.5 c 0
 1088.83300781 -101.833007812 1106.33300781 -89.6669921875 1127 -75 c 0
 1154 -120 l 0
930 756 m 0
 930 812 924.166992188 864.833007812 912.5 914.5 c 0
 900.833007812 964.166992188 883.833007812 1007.33300781 861.5 1044 c 0
 839.166992188 1080.66699219 811.5 1109.66699219 778.5 1131 c 0
 745.5 1152.33300781 707.666992188 1163 665 1163 c 0
 617.666992188 1163 575 1153.33300781 537 1134 c 0
 499 1114.66699219 465.166992188 1088.5 435.5 1055.5 c 0
 405.833007812 1022.5 380.5 984.666992188 359.5 942 c 0
 338.5 899.333007812 321.166992188 854.5 307.5 807.5 c 0
 293.833007812 760.5 283.666992188 713.333007812 277 666 c 0
 270.333007812 618.666992188 267 574 267 532 c 0
 267 470 273.166992188 412.666992188 285.5 360 c 0
 297.833007812 307.333007812 315.5 262 338.5 224 c 0
 361.5 186 389.333007812 156.333007812 422 135 c 0
 454.666992188 113.666992188 491 103 531 103 c 0
 579.666992188 103 623.166992188 113.166992188 661.5 133.5 c 0
 699.833007812 153.833007812 733.833007812 181.166992188 763.5 215.5 c 0
 793.166992188 249.833007812 818.5 289.333007812 839.5 334 c 0
 860.5 378.666992188 877.666992188 425.166992188 891 473.5 c 0
 904.333007812 521.833007812 914.166992188 570.333007812 920.5 619 c 0
 926.833007812 667.666992188 930 713.333007812 930 756 c 0
EndSplineSet
EndChar

StartChar: R
Encoding: 53 82 53
Width: 1100
VWidth: 1024
Flags: HW
LayerCount: 2
Fore
SplineSet
1105 112 m 0
 1079 94.6669921875 1052.5 78.3330078125 1025.5 63 c 0
 998.5 47.6669921875 973 34.3330078125 949 23 c 0
 925 11.6669921875 903.666992188 2.6669921875 885 -4 c 0
 866.333007812 -10.6669921875 852.666992188 -14 844 -14 c 0
 832.666992188 -14 821.666992188 -12.3330078125 811 -9 c 0
 800.333007812 -5.6669921875 789.666992188 0.6669921875 779 10 c 0
 768.333007812 19.3330078125 757.5 32.6669921875 746.5 50 c 0
 735.5 67.3330078125 724 89.6669921875 712 117 c 0
 501 586 l 0
 481.666992188 587.333007812 462 589.166992188 442 591.5 c 0
 422 593.833007812 403.333007812 597.333007812 386 602 c 0
 319 114 l 0
 317 106 326.5 96.1669921875 347.5 84.5 c 0
 368.5 72.8330078125 400 62.3330078125 442 53 c 0
 435 0 l 0
 -3 0 l 0
 5 53 l 0
 47 62.3330078125 80.1669921875 72.5 104.5 83.5 c 0
 128.833007812 94.5 141.666992188 104.666992188 143 114 c 0
 289 1183 l 0
 263 1179.66699219 237.333007812 1175.83300781 212 1171.5 c 0
 186.666992188 1167.16699219 162 1162.33300781 138 1157 c 0
 139 1227 l 0
 169 1235.66699219 200.166992188 1243.83300781 232.5 1251.5 c 0
 264.833007812 1259.16699219 299 1265.83300781 335 1271.5 c 0
 371 1277.16699219 409 1281.66699219 449 1285 c 0
 489 1288.33300781 531.666992188 1290 577 1290 c 0
 639 1290 695.166992188 1283.16699219 745.5 1269.5 c 0
 795.833007812 1255.83300781 838.5 1235.5 873.5 1208.5 c 0
 908.5 1181.5 935.5 1148.16699219 954.5 1108.5 c 0
 973.5 1068.83300781 983 1023 983 971 c 0
 983 943 976.666992188 910.333007812 964 873 c 0
 951.333007812 835.666992188 931.666992188 799 905 763 c 0
 878.333007812 727 844 694 802 664 c 0
 760 634 710 612.333007812 652 599 c 0
 881 194 l 0
 892.333007812 174 903.333007812 158.833007812 914 148.5 c 0
 924.666992188 138.166992188 937.333007812 132 952 130 c 0
 966.666992188 128 984.333007812 129.666992188 1005 135 c 0
 1025.66699219 140.333007812 1052 148.666992188 1084 160 c 0
 1105 112 l 0
530 1199 m 0
 519.333007812 1199 508.833007812 1198.83300781 498.5 1198.5 c 0
 488.166992188 1198.16699219 477.666992188 1198 467 1198 c 0
 397 687 l 0
 433 677 469 672 505 672 c 0
 545 672 583.166992188 677.666992188 619.5 689 c 0
 655.833007812 700.333007812 688 717.333007812 716 740 c 0
 744 762.666992188 766.333007812 790.833007812 783 824.5 c 0
 799.666992188 858.166992188 808 897.333007812 808 942 c 0
 808 991.333007812 799.333007812 1032.5 782 1065.5 c 0
 764.666992188 1098.5 742.5 1124.83300781 715.5 1144.5 c 0
 688.5 1164.16699219 658.5 1178.16699219 625.5 1186.5 c 0
 592.5 1194.83300781 560.666992188 1199 530 1199 c 0
EndSplineSet
EndChar

StartChar: S
Encoding: 54 83 54
Width: 924
VWidth: 1024
Flags: HW
LayerCount: 2
Fore
SplineSet
902 1198 m 0
 906 1194.66699219 904.333007812 1185.33300781 897 1170 c 0
 889.666992188 1154.66699219 879.833007812 1138 867.5 1120 c 0
 855.166992188 1102 842.333007812 1085 829 1069 c 0
 815.666992188 1053 805.333007812 1043 798 1039 c 0
 759 1045 l 0
 738.333007812 1084.33300781 710.833007812 1116.83300781 676.5 1142.5 c 0
 642.166992188 1168.16699219 605 1181 565 1181 c 0
 529.666992188 1181 498.5 1175.5 471.5 1164.5 c 0
 444.5 1153.5 421.833007812 1139 403.5 1121 c 0
 385.166992188 1103 371.333007812 1083 362 1061 c 0
 352.666992188 1039 348 1017 348 995 c 0
 348 980.333007812 350.333007812 965 355 949 c 0
 359.666992188 933 369.333007812 916.333007812 384 899 c 0
 398.666992188 881.666992188 419.5 863.166992188 446.5 843.5 c 0
 473.5 823.833007812 509.333007812 802.666992188 554 780 c 0
 606.666992188 752.666992188 651.5 726.666992188 688.5 702 c 0
 725.5 677.333007812 755.666992188 651.666992188 779 625 c 0
 802.333007812 598.333007812 819.333007812 569.833007812 830 539.5 c 0
 840.666992188 509.166992188 846 475.333007812 846 438 c 0
 846 375.333007812 832.833007812 315.666992188 806.5 259 c 0
 780.166992188 202.333007812 744.333007812 152.5 699 109.5 c 0
 653.666992188 66.5 600.666992188 32.3330078125 540 7 c 0
 479.333007812 -18.3330078125 414.666992188 -31 346 -31 c 0
 318 -31 286.166992188 -26.6669921875 250.5 -18 c 0
 214.833007812 -9.3330078125 181.5 2 150.5 16 c 0
 119.5 30 93.3330078125 46 72 64 c 0
 50.6669921875 82 40 100 40 118 c 0
 40 126.666992188 44.5 139.666992188 53.5 157 c 0
 62.5 174.333007812 73.1669921875 191.666992188 85.5 209 c 0
 97.8330078125 226.333007812 110.833007812 241.5 124.5 254.5 c 0
 138.166992188 267.5 149.666992188 274 159 274 c 0
 165 274 171.666992188 269.666992188 179 261 c 0
 186.333007812 252.333007812 195 241.666992188 205 229 c 0
 215 216.333007812 226.5 202.5 239.5 187.5 c 0
 252.5 172.5 267.5 158.666992188 284.5 146 c 0
 301.5 133.333007812 320.666992188 122.666992188 342 114 c 0
 363.333007812 105.333007812 387.666992188 101 415 101 c 0
 453 101 488.333007812 107.333007812 521 120 c 0
 553.666992188 132.666992188 582.166992188 150.166992188 606.5 172.5 c 0
 630.833007812 194.833007812 650 221.333007812 664 252 c 0
 678 282.666992188 685 316.333007812 685 353 c 0
 685 381 680.666992188 406.833007812 672 430.5 c 0
 663.333007812 454.166992188 648.833007812 477.333007812 628.5 500 c 0
 608.166992188 522.666992188 581 545 547 567 c 0
 513 589 470.666992188 612 420 636 c 0
 376 656.666992188 339.666992188 678.666992188 311 702 c 0
 282.333007812 725.333007812 259.833007812 749.5 243.5 774.5 c 0
 227.166992188 799.5 215.666992188 824.833007812 209 850.5 c 0
 202.333007812 876.166992188 199 902 199 928 c 0
 199 972 209.5 1015.66699219 230.5 1059 c 0
 251.5 1102.33300781 281.333007812 1141 320 1175 c 0
 358.666992188 1209 405.166992188 1236.66699219 459.5 1258 c 0
 513.833007812 1279.33300781 574.666992188 1290 642 1290 c 0
 695.333007812 1290 744 1280.83300781 788 1262.5 c 0
 832 1244.16699219 870 1222.66699219 902 1198 c 0
EndSplineSet
EndChar

StartChar: T
Encoding: 55 84 55
Width: 1081
VWidth: 1024
Flags: HW
LayerCount: 2
Fore
SplineSet
709 0 m 0
 238 0 l 0
 245 53 l 0
 273.666992188 59 297.833007812 65.3330078125 317.5 72 c 0
 337.166992188 78.6669921875 353.166992188 85.1669921875 365.5 91.5 c 0
 377.833007812 97.8330078125 386.833007812 103.833007812 392.5 109.5 c 0
 398.166992188 115.166992188 401.333007812 120.333007812 402 125 c 0
 546 1159 l 0
 287 1159 l 0
 277.666992188 1159 269 1156.66699219 261 1152 c 0
 253 1147.33300781 244 1138.33300781 234 1125 c 0
 224 1111.66699219 212.666992188 1092.83300781 200 1068.5 c 0
 187.333007812 1044.16699219 171.666992188 1012.66699219 153 974 c 0
 107 995 l 0
 109.666992188 1013 113.5 1033.83300781 118.5 1057.5 c 0
 123.5 1081.16699219 129.166992188 1105.16699219 135.5 1129.5 c 0
 141.833007812 1153.83300781 148.333007812 1177.5 155 1200.5 c 0
 161.666992188 1223.5 168 1243.33300781 174 1260 c 0
 1119 1260 l 0
 1143 1233 l 0
 1140.33300781 1217 1136.66699219 1198 1132 1176 c 0
 1127.33300781 1154 1122.16699219 1131.33300781 1116.5 1108 c 0
 1110.83300781 1084.66699219 1105 1061.83300781 1099 1039.5 c 0
 1093 1017.16699219 1087 997 1081 979 c 0
 1030 979 l 0
 1028.66699219 1011.66699219 1027 1039.5 1025 1062.5 c 0
 1023 1085.5 1019.83300781 1104.16699219 1015.5 1118.5 c 0
 1011.16699219 1132.83300781 1005 1143.16699219 997 1149.5 c 0
 989 1155.83300781 978.333007812 1159 965 1159 c 0
 718 1159 l 0
 577 125 l 0
 576.333007812 121 578.166992188 116.166992188 582.5 110.5 c 0
 586.833007812 104.833007812 594.333007812 98.6669921875 605 92 c 0
 615.666992188 85.3330078125 630 78.6669921875 648 72 c 0
 666 65.3330078125 688.666992188 59 716 53 c 0
 709 0 l 0
EndSplineSet
EndChar

StartChar: U
Encoding: 56 85 56
Width: 1241
VWidth: 1024
Flags: HW
LayerCount: 2
Fore
SplineSet
1295 1207 m 0
 1253 1197.66699219 1220.83300781 1187.33300781 1198.5 1176 c 0
 1176.16699219 1164.66699219 1164.33300781 1154.33300781 1163 1145 c 0
 1074 512 l 0
 1062 424.666992188 1041.16699219 347.166992188 1011.5 279.5 c 0
 981.833007812 211.833007812 945 155 901 109 c 0
 857 63 806.666992188 28.1669921875 750 4.5 c 0
 693.333007812 -19.1669921875 632 -31 566 -31 c 0
 511.333007812 -31 460.5 -22.6669921875 413.5 -6 c 0
 366.5 10.6669921875 325.833007812 35 291.5 67 c 0
 257.166992188 99 230.333007812 138.5 211 185.5 c 0
 191.666992188 232.5 182 286.666992188 182 348 c 0
 182 383.333007812 185 421.666992188 191 463 c 0
 288 1145 l 0
 289.333007812 1153 280.166992188 1163 260.5 1175 c 0
 240.833007812 1187 209.333007812 1197.66699219 166 1207 c 0
 173 1260 l 0
 607 1260 l 0
 599 1207 l 0
 557 1197.66699219 523.666992188 1187.33300781 499 1176 c 0
 474.333007812 1164.66699219 461.333007812 1154.33300781 460 1145 c 0
 372 510 l 0
 369.333007812 490.666992188 367.5 471.333007812 366.5 452 c 0
 365.5 432.666992188 365 414.333007812 365 397 c 0
 365 350.333007812 370.5 308.5 381.5 271.5 c 0
 392.5 234.5 408.833007812 203 430.5 177 c 0
 452.166992188 151 479.166992188 131 511.5 117 c 0
 543.833007812 103 581.333007812 96 624 96 c 0
 667.333007812 96 706.666992188 106.166992188 742 126.5 c 0
 777.333007812 146.833007812 808.333007812 174 835 208 c 0
 861.666992188 242 883.5 281.5 900.5 326.5 c 0
 917.5 371.5 929.333007812 419 936 469 c 0
 1028 1145 l 0
 1029.33300781 1153 1021 1163 1003 1175 c 0
 985 1187 954.333007812 1197.66699219 911 1207 c 0
 918 1260 l 0
 1302 1260 l 0
 1295 1207 l 0
EndSplineSet
EndChar

StartChar: V
Encoding: 57 86 57
Width: 1225
VWidth: 1024
Flags: HW
LayerCount: 2
Fore
SplineSet
1313 1207 m 0
 1270.33300781 1198.33300781 1236.5 1189.83300781 1211.5 1181.5 c 0
 1186.5 1173.16699219 1169.66699219 1159.66699219 1161 1141 c 0
 664 67 l 0
 657.333007812 52.3330078125 647 39.5 633 28.5 c 0
 619 17.5 603.666992188 8 587 0 c 0
 570.333007812 -8 554 -14.5 538 -19.5 c 0
 522 -24.5 508.666992188 -28.3330078125 498 -31 c 0
 250 1141 l 0
 246.666992188 1158.33300781 236.333007812 1172.33300781 219 1183 c 0
 201.666992188 1193.66699219 173.333007812 1201.66699219 134 1207 c 0
 141 1260 l 0
 564 1260 l 0
 557 1207 l 0
 509 1203.66699219 475.333007812 1197 456 1187 c 0
 436.666992188 1177 429.333007812 1162 434 1142 c 0
 622 225 l 0
 1045 1141 l 0
 1054.33300781 1160.33300781 1049.33300781 1174.5 1030 1183.5 c 0
 1010.66699219 1192.5 976.666992188 1200.33300781 928 1207 c 0
 935 1260 l 0
 1321 1260 l 0
 1313 1207 l 0
EndSplineSet
EndChar

StartChar: W
Encoding: 58 87 58
Width: 1579
VWidth: 1024
Flags: HW
LayerCount: 2
Fore
SplineSet
1676 1207 m 0
 1632 1197 1597.16699219 1188 1571.5 1180 c 0
 1545.83300781 1172 1530.33300781 1160.33300781 1525 1145 c 0
 1166 59 l 0
 1160.66699219 44.3330078125 1152 31.8330078125 1140 21.5 c 0
 1128 11.1669921875 1115 2.5 1101 -4.5 c 0
 1087 -11.5 1073 -17.1669921875 1059 -21.5 c 0
 1045 -25.8330078125 1033.66699219 -29 1025 -31 c 0
 851 923 l 0
 469 59 l 0
 462.333007812 43.6669921875 452.5 30.8330078125 439.5 20.5 c 0
 426.5 10.1669921875 412.5 1.5 397.5 -5.5 c 0
 382.5 -12.5 367.833007812 -18 353.5 -22 c 0
 339.166992188 -26 327.333007812 -29 318 -31 c 0
 241 1137 l 0
 239.666992188 1153.66699219 230.666992188 1167.33300781 214 1178 c 0
 197.333007812 1188.66699219 167.333007812 1198.33300781 124 1207 c 0
 131 1260 l 0
 543 1260 l 0
 536 1207 l 0
 506 1203.66699219 482.166992188 1199.5 464.5 1194.5 c 0
 446.833007812 1189.5 433.333007812 1184 424 1178 c 0
 414.666992188 1172 408.666992188 1165.5 406 1158.5 c 0
 403.333007812 1151.5 402.333007812 1144.33300781 403 1137 c 0
 461 298 l 0
 883 1260 l 0
 951 1260 l 0
 1134 298 l 0
 1412 1145 l 0
 1414.66699219 1153 1413.16699219 1160 1407.5 1166 c 0
 1401.83300781 1172 1393 1177.33300781 1381 1182 c 0
 1369 1186.66699219 1354.5 1191 1337.5 1195 c 0
 1320.5 1199 1301.66699219 1203 1281 1207 c 0
 1288 1260 l 0
 1682 1260 l 0
 1676 1207 l 0
EndSplineSet
EndChar

StartChar: X
Encoding: 59 88 59
Width: 1185
VWidth: 1024
Flags: HW
LayerCount: 2
Fore
SplineSet
1096 0 m 0
 658 0 l 0
 665 53 l 0
 692.333007812 55.6669921875 714.5 59.1669921875 731.5 63.5 c 0
 748.5 67.8330078125 761.333007812 73.1669921875 770 79.5 c 0
 778.666992188 85.8330078125 783 93.6669921875 783 103 c 0
 783 112.333007812 779.666992188 123.666992188 773 137 c 0
 577 533 l 0
 295 137 l 0
 273.666992188 107.666992188 271.166992188 87.3330078125 287.5 76 c 0
 303.833007812 64.6669921875 339.666992188 57 395 53 c 0
 388 0 l 0
 -25 0 l 0
 -18 53 l 0
 22.6669921875 56.3330078125 57.8330078125 64.3330078125 87.5 77 c 0
 117.166992188 89.6669921875 141.666992188 109.666992188 161 137 c 0
 521 647 l 0
 286 1123 l 0
 278 1137.66699219 270.333007812 1149.66699219 263 1159 c 0
 255.666992188 1168.33300781 247 1176 237 1182 c 0
 227 1188 215.166992188 1192.83300781 201.5 1196.5 c 0
 187.833007812 1200.16699219 171 1203.66699219 151 1207 c 0
 158 1260 l 0
 599 1260 l 0
 592 1207 l 0
 539.333007812 1201.66699219 504.166992188 1193.66699219 486.5 1183 c 0
 468.833007812 1172.33300781 467.333007812 1152.33300781 482 1123 c 0
 652 779 l 0
 895 1123 l 0
 905.666992188 1138.33300781 911.5 1150.83300781 912.5 1160.5 c 0
 913.5 1170.16699219 909.666992188 1178.16699219 901 1184.5 c 0
 892.333007812 1190.83300781 879 1195.66699219 861 1199 c 0
 843 1202.33300781 820.666992188 1205 794 1207 c 0
 802 1260 l 0
 1216 1260 l 0
 1208 1207 l 0
 1186 1204.33300781 1166.16699219 1201.16699219 1148.5 1197.5 c 0
 1130.83300781 1193.83300781 1114.83300781 1188.83300781 1100.5 1182.5 c 0
 1086.16699219 1176.16699219 1073.16699219 1168.16699219 1061.5 1158.5 c 0
 1049.83300781 1148.83300781 1039 1137 1029 1123 c 0
 706 670 l 0
 971 137 l 0
 977.666992188 123 985.166992188 111.166992188 993.5 101.5 c 0
 1001.83300781 91.8330078125 1011.16699219 83.8330078125 1021.5 77.5 c 0
 1031.83300781 71.1669921875 1043.83300781 66.1669921875 1057.5 62.5 c 0
 1071.16699219 58.8330078125 1086.66699219 55.6669921875 1104 53 c 0
 1096 0 l 0
EndSplineSet
EndChar

StartChar: Y
Encoding: 60 89 60
Width: 1153
VWidth: 1024
Flags: HW
LayerCount: 2
Fore
SplineSet
756 0 m 0
 284 0 l 0
 292 53 l 0
 320.666992188 59 345 65.3330078125 365 72 c 0
 385 78.6669921875 401.166992188 85.1669921875 413.5 91.5 c 0
 425.833007812 97.8330078125 434.833007812 103.833007812 440.5 109.5 c 0
 446.166992188 115.166992188 449.333007812 120.333007812 450 125 c 0
 507 544 l 0
 494.333007812 593.333007812 478.333007812 646.166992188 459 702.5 c 0
 439.666992188 758.833007812 418.666992188 814.166992188 396 868.5 c 0
 373.333007812 922.833007812 350.166992188 974 326.5 1022 c 0
 302.833007812 1070 280.666992188 1110.66699219 260 1144 c 0
 254 1153.33300781 247.5 1161 240.5 1167 c 0
 233.5 1173 224.666992188 1177.5 214 1180.5 c 0
 203.333007812 1183.5 190 1185.16699219 174 1185.5 c 0
 158 1185.83300781 138 1185 114 1183 c 0
 109 1236 l 0
 127 1240 147.333007812 1244.33300781 170 1249 c 0
 192.666992188 1253.66699219 215.166992188 1257.83300781 237.5 1261.5 c 0
 259.833007812 1265.16699219 280.833007812 1268.33300781 300.5 1271 c 0
 320.166992188 1273.66699219 336.333007812 1275 349 1275 c 0
 359.666992188 1275 370.5 1271.33300781 381.5 1264 c 0
 392.5 1256.66699219 402.333007812 1246.33300781 411 1233 c 0
 425 1211 439.666992188 1185.33300781 455 1156 c 0
 470.333007812 1126.66699219 485.5 1095.66699219 500.5 1063 c 0
 515.5 1030.33300781 530.166992188 996.5 544.5 961.5 c 0
 558.833007812 926.5 572.333007812 892.166992188 585 858.5 c 0
 597.666992188 824.833007812 609 792.5 619 761.5 c 0
 629 730.5 637.333007812 702.666992188 644 678 c 0
 943 1141 l 0
 954.333007812 1159.66699219 952.666992188 1173.66699219 938 1183 c 0
 923.333007812 1192.33300781 893 1200.33300781 847 1207 c 0
 854 1260 l 0
 1223 1260 l 0
 1216 1207 l 0
 1173.33300781 1198.33300781 1140.66699219 1189.5 1118 1180.5 c 0
 1095.33300781 1171.5 1078.33300781 1158.33300781 1067 1141 c 0
 680 535 l 0
 624 125 l 0
 623.333007812 121 625.166992188 116.166992188 629.5 110.5 c 0
 633.833007812 104.833007812 641.166992188 98.6669921875 651.5 92 c 0
 661.833007812 85.3330078125 676.166992188 78.6669921875 694.5 72 c 0
 712.833007812 65.3330078125 735.666992188 59 763 53 c 0
 756 0 l 0
EndSplineSet
EndChar

StartChar: Z
Encoding: 61 90 61
Width: 1036
VWidth: 1024
Flags: HW
LayerCount: 2
Fore
SplineSet
268 110 m 0
 732 110 l 0
 745.333007812 110 758 113.833007812 770 121.5 c 0
 782 129.166992188 794.166992188 141.833007812 806.5 159.5 c 0
 818.833007812 177.166992188 832 200.5 846 229.5 c 0
 860 258.5 875.666992188 294.333007812 893 337 c 0
 951 321 l 0
 947 299 942.5 273.5 937.5 244.5 c 0
 932.5 215.5 927.5 186.166992188 922.5 156.5 c 0
 917.5 126.833007812 912.666992188 98.1669921875 908 70.5 c 0
 903.333007812 42.8330078125 899.333007812 19.3330078125 896 0 c 0
 47 0 l 0
 26 48 l 0
 809 1155 l 0
 406 1155 l 0
 396 1155 384.333007812 1150.66699219 371 1142 c 0
 357.666992188 1133.33300781 343.833007812 1120.16699219 329.5 1102.5 c 0
 315.166992188 1084.83300781 300.833007812 1062.66699219 286.5 1036 c 0
 272.166992188 1009.33300781 259 977.666992188 247 941 c 0
 186 955 l 0
 262 1284 l 0
 278 1278 292.833007812 1273.33300781 306.5 1270 c 0
 320.166992188 1266.66699219 333.5 1264.33300781 346.5 1263 c 0
 359.5 1261.66699219 373.166992188 1260.83300781 387.5 1260.5 c 0
 401.833007812 1260.16699219 417.666992188 1260 435 1260 c 0
 1023 1260 l 0
 1043 1212 l 0
 268 110 l 0
EndSplineSet
EndChar

StartChar: bracketleft
Encoding: 62 91 62
Width: 632
VWidth: 1024
Flags: HW
LayerCount: 2
Fore
SplineSet
732 1571 m 0
 730 1563 727.166992188 1554.33300781 723.5 1545 c 0
 719.833007812 1535.66699219 716 1526.66699219 712 1518 c 0
 708 1509.33300781 704 1501.33300781 700 1494 c 0
 696 1486.66699219 692.666992188 1481 690 1477 c 0
 428 1477 l 0
 193 -211 l 0
 449 -211 l 0
 480 -243 l 0
 478 -249.666992188 475.333007812 -257.166992188 472 -265.5 c 0
 468.666992188 -273.833007812 465.166992188 -282.166992188 461.5 -290.5 c 0
 457.833007812 -298.833007812 454 -307 450 -315 c 0
 446 -323 442.333007812 -330 439 -336 c 0
 18 -336 l 0
 290 1599 l 0
 703 1599 l 0
 732 1571 l 0
EndSplineSet
EndChar

StartChar: backslash
Encoding: 63 92 63
Width: 832
VWidth: 1024
Flags: HW
LayerCount: 2
Fore
SplineSet
660 -336 m 0
 652.666992188 -333.333007812 642.833007812 -329.833007812 630.5 -325.5 c 0
 618.166992188 -321.166992188 605.5 -316.333007812 592.5 -311 c 0
 579.5 -305.666992188 567.333007812 -300.333007812 556 -295 c 0
 544.666992188 -289.666992188 536.666992188 -284.666992188 532 -280 c 0
 143 1575 l 0
 182 1599 l 0
 191.333007812 1596.33300781 201.666992188 1593.16699219 213 1589.5 c 0
 224.333007812 1585.83300781 236 1581.66699219 248 1577 c 0
 260 1572.33300781 271.5 1567.33300781 282.5 1562 c 0
 293.5 1556.66699219 303 1551 311 1545 c 0
 697 -309 l 0
 660 -336 l 0
EndSplineSet
EndChar

StartChar: bracketright
Encoding: 64 93 64
Width: 616
VWidth: 1024
Flags: HW
LayerCount: 2
Fore
SplineSet
358 -336 m 0
 -55 -336 l 0
 -86 -305 l 0
 -83.3330078125 -297 -80.1669921875 -288.5 -76.5 -279.5 c 0
 -72.8330078125 -270.5 -69.1669921875 -261.666992188 -65.5 -253 c 0
 -61.8330078125 -244.333007812 -58.1669921875 -236.166992188 -54.5 -228.5 c 0
 -50.8330078125 -220.833007812 -47.6669921875 -215 -45 -211 c 0
 217 -211 l 0
 455 1477 l 0
 201 1477 l 0
 169 1506 l 0
 173 1520.66699219 179.333007812 1537 188 1555 c 0
 196.666992188 1573 204 1587.66699219 210 1599 c 0
 628 1599 l 0
 358 -336 l 0
EndSplineSet
EndChar

StartChar: asciicircum
Encoding: 65 94 65
Width: 938
VWidth: 1024
Flags: HW
LayerCount: 2
Fore
SplineSet
854 635 m 0
 835.333007812 619.666992188 817.833007812 606.833007812 801.5 596.5 c 0
 785.166992188 586.166992188 765.666992188 575.666992188 743 565 c 0
 713 592 l 0
 553 1315 l 0
 223 635 l 0
 215.666992188 628.333007812 207 621.5 197 614.5 c 0
 187 607.5 176.833007812 600.833007812 166.5 594.5 c 0
 156.166992188 588.166992188 146.333007812 582.5 137 577.5 c 0
 127.666992188 572.5 119.666992188 568.333007812 113 565 c 0
 94 592 l 0
 516 1462 l 0
 524.666992188 1470 535 1478.16699219 547 1486.5 c 0
 559 1494.83300781 571.333007812 1503 584 1511 c 0
 596.666992188 1519 609 1526.33300781 621 1533 c 0
 633 1539.66699219 643.666992188 1545.33300781 653 1550 c 0
 854 635 l 0
EndSplineSet
EndChar

StartChar: underscore
Encoding: 66 95 66
Width: 902
VWidth: 1024
Flags: HW
LayerCount: 2
Fore
SplineSet
751 -159 m 0
 749 -166.333007812 746.166992188 -174.166992188 742.5 -182.5 c 0
 738.833007812 -190.833007812 735 -199.5 731 -208.5 c 0
 727 -217.5 722.833007812 -226.166992188 718.5 -234.5 c 0
 714.166992188 -242.833007812 710.333007812 -250 707 -256 c 0
 -27 -256 l 0
 -46 -227 l 0
 -42 -213.666992188 -35.5 -197.666992188 -26.5 -179 c 0
 -17.5 -160.333007812 -8.3330078125 -144.333007812 1 -131 c 0
 731 -131 l 0
 751 -159 l 0
EndSplineSet
EndChar

StartChar: grave
Encoding: 67 96 67
Width: 606
VWidth: 1024
Flags: HW
LayerCount: 2
Fore
SplineSet
569 1050 m 0
 555.666992188 1042 543.833007812 1036 533.5 1032 c 0
 523.166992188 1028 512 1025.33300781 500 1024 c 0
 237 1402 l 0
 272 1443 l 0
 280 1444.33300781 291.333007812 1446.16699219 306 1448.5 c 0
 320.666992188 1450.83300781 336.166992188 1453 352.5 1455 c 0
 368.833007812 1457 384.5 1458.66699219 399.5 1460 c 0
 414.5 1461.33300781 426.333007812 1462 435 1462 c 0
 569 1050 l 0
EndSplineSet
EndChar

StartChar: a
Encoding: 68 97 68
Width: 943
VWidth: 1024
Flags: HW
LayerCount: 2
Fore
SplineSet
927 81 m 0
 869.666992188 41.6669921875 820.833007812 11.5 780.5 -9.5 c 0
 740.166992188 -30.5 709.333007812 -41 688 -41 c 0
 676 -41 664 -37 652 -29 c 0
 640 -21 628.833007812 -6.3330078125 618.5 15 c 0
 608.166992188 36.3330078125 599.5 65.6669921875 592.5 103 c 0
 585.5 140.333007812 581.666992188 188 581 246 c 0
 563 215.333007812 541.5 183.166992188 516.5 149.5 c 0
 491.5 115.833007812 465 84.8330078125 437 56.5 c 0
 409 28.1669921875 380.333007812 4.8330078125 351 -13.5 c 0
 321.666992188 -31.8330078125 293.333007812 -41 266 -41 c 0
 243.333007812 -41 219.333007812 -34.6669921875 194 -22 c 0
 168.666992188 -9.3330078125 145.166992188 10.8330078125 123.5 38.5 c 0
 101.833007812 66.1669921875 83.8330078125 101.833007812 69.5 145.5 c 0
 55.1669921875 189.166992188 48 242.333007812 48 305 c 0
 48 357.666992188 54.3330078125 409.166992188 67 459.5 c 0
 79.6669921875 509.833007812 98.5 558 123.5 604 c 0
 148.5 650 179 693.166992188 215 733.5 c 0
 251 773.833007812 292.666992188 810 340 842 c 0
 358 854 377.833007812 865.666992188 399.5 877 c 0
 421.166992188 888.333007812 443.833007812 898.333007812 467.5 907 c 0
 491.166992188 915.666992188 515 922.666992188 539 928 c 0
 563 933.333007812 586.666992188 936 610 936 c 0
 624 936 637.666992188 934.166992188 651 930.5 c 0
 664.333007812 926.833007812 677.333007812 922 690 916 c 0
 702.666992188 910 715 903.5 727 896.5 c 0
 739 889.5 750.333007812 882.666992188 761 876 c 0
 778.333007812 887.333007812 796.666992188 897.833007812 816 907.5 c 0
 835.333007812 917.166992188 854 926.666992188 872 936 c 0
 896 891 l 0
 884.666992188 881.666992188 875.333007812 873.333007812 868 866 c 0
 860.666992188 858.666992188 854.166992188 850.166992188 848.5 840.5 c 0
 842.833007812 830.833007812 838 819 834 805 c 0
 830 791 825.666992188 772.666992188 821 750 c 0
 811 702 801.666992188 653.666992188 793 605 c 0
 784.333007812 556.333007812 776.833007812 511 770.5 469 c 0
 764.166992188 427 759.333007812 389.833007812 756 357.5 c 0
 752.666992188 325.166992188 751 301.666992188 751 287 c 0
 751 220.333007812 755.666992188 172.333007812 765 143 c 0
 774.333007812 113.666992188 786.666992188 99 802 99 c 0
 815.333007812 99 830.666992188 100.833007812 848 104.5 c 0
 865.333007812 108.166992188 887.333007812 115.666992188 914 127 c 0
 927 81 l 0
597 414 m 0
 601 442.666992188 605.666992188 473 611 505 c 0
 616.333007812 537 621.666992188 568.166992188 627 598.5 c 0
 632.333007812 628.833007812 637.333007812 656.833007812 642 682.5 c 0
 646.666992188 708.166992188 650.666992188 729.666992188 654 747 c 0
 644 755.666992188 633.166992188 764.166992188 621.5 772.5 c 0
 609.833007812 780.833007812 597.666992188 788.5 585 795.5 c 0
 572.333007812 802.5 559.333007812 808.166992188 546 812.5 c 0
 532.666992188 816.833007812 519 819 505 819 c 0
 475 819 447.166992188 811.666992188 421.5 797 c 0
 395.833007812 782.333007812 372.166992188 763.166992188 350.5 739.5 c 0
 328.833007812 715.833007812 309.666992188 688.666992188 293 658 c 0
 276.333007812 627.333007812 262.166992188 595.666992188 250.5 563 c 0
 238.833007812 530.333007812 230 498 224 466 c 0
 218 434 215 405 215 379 c 0
 215 337.666992188 218.333007812 300.833007812 225 268.5 c 0
 231.666992188 236.166992188 240.666992188 208.666992188 252 186 c 0
 263.333007812 163.333007812 276.833007812 146 292.5 134 c 0
 308.166992188 122 324.666992188 116 342 116 c 0
 356 116 373.333007812 124.333007812 394 141 c 0
 414.666992188 157.666992188 436.5 180 459.5 208 c 0
 482.5 236 505.833007812 267.833007812 529.5 303.5 c 0
 553.166992188 339.166992188 575.666992188 376 597 414 c 0
EndSplineSet
EndChar

StartChar: b
Encoding: 69 98 69
Width: 977
VWidth: 1024
Flags: HW
LayerCount: 2
Fore
SplineSet
911 610 m 0
 909.666992188 539.333007812 897.833007812 468 875.5 396 c 0
 853.166992188 324 817.333007812 254.666992188 768 188 c 0
 745.333007812 158 720 129.166992188 692 101.5 c 0
 664 73.8330078125 633.333007812 49.5 600 28.5 c 0
 566.666992188 7.5 531 -9.3330078125 493 -22 c 0
 455 -34.6669921875 415 -41 373 -41 c 0
 359 -41 343 -37.5 325 -30.5 c 0
 307 -23.5 288.666992188 -13.6669921875 270 -1 c 0
 251.333007812 11.6669921875 233 26.5 215 43.5 c 0
 197 60.5 181 78.8330078125 167 98.5 c 0
 153 118.166992188 141.666992188 138.833007812 133 160.5 c 0
 124.333007812 182.166992188 120 203.666992188 120 225 c 0
 120 242.333007812 122.166992188 269.333007812 126.5 306 c 0
 130.833007812 342.666992188 136.333007812 385.166992188 143 433.5 c 0
 149.666992188 481.833007812 157.333007812 534.666992188 166 592 c 0
 174.666992188 649.333007812 183.666992188 707.666992188 193 767 c 0
 202.333007812 826.333007812 211.333007812 885 220 943 c 0
 228.666992188 1001 236.333007812 1055 243 1105 c 0
 249.666992188 1155 255.166992188 1199.16699219 259.5 1237.5 c 0
 263.833007812 1275.83300781 266 1305.33300781 266 1326 c 0
 266 1341.33300781 264.333007812 1353.5 261 1362.5 c 0
 257.666992188 1371.5 253.333007812 1378.16699219 248 1382.5 c 0
 242.666992188 1386.83300781 237 1389.66699219 231 1391 c 0
 225 1392.33300781 219 1393 213 1393 c 0
 207 1393 198.5 1391.5 187.5 1388.5 c 0
 176.5 1385.5 165.666992188 1382.33300781 155 1379 c 0
 142.333007812 1375 129 1370.66699219 115 1366 c 0
 101 1415 l 0
 129.666992188 1428.33300781 160 1441.33300781 192 1454 c 0
 224 1466.66699219 254.333007812 1477.83300781 283 1487.5 c 0
 311.666992188 1497.16699219 337.166992188 1505 359.5 1511 c 0
 381.833007812 1517 397.666992188 1520 407 1520 c 0
 426.333007812 1520 439.666992188 1514 447 1502 c 0
 454.333007812 1490 458 1468.66699219 458 1438 c 0
 458 1418 456.333007812 1391.83300781 453 1359.5 c 0
 449.666992188 1327.16699219 445.333007812 1290.33300781 440 1249 c 0
 434.666992188 1207.66699219 428.5 1163 421.5 1115 c 0
 414.5 1067 407 1017.5 399 966.5 c 0
 391 915.5 382.833007812 864 374.5 812 c 0
 366.166992188 760 358.333007812 709.333007812 351 660 c 0
 385 712.666992188 419.333007812 756.666992188 454 792 c 0
 488.666992188 827.333007812 521.833007812 855.666992188 553.5 877 c 0
 585.166992188 898.333007812 614.666992188 913.5 642 922.5 c 0
 669.333007812 931.5 693 936 713 936 c 0
 741 936 767.166992188 929 791.5 915 c 0
 815.833007812 901 837 880.166992188 855 852.5 c 0
 873 824.833007812 887 790.666992188 897 750 c 0
 907 709.333007812 911.666992188 662.666992188 911 610 c 0
610 788 m 0
 598.666992188 788 582.333007812 781 561 767 c 0
 539.666992188 753 515.833007812 732.833007812 489.5 706.5 c 0
 463.166992188 680.166992188 435.833007812 648.333007812 407.5 611 c 0
 379.166992188 573.666992188 352 531.666992188 326 485 c 0
 319.333007812 437 314 394.5 310 357.5 c 0
 306 320.5 304 291.666992188 304 271 c 0
 304 253.666992188 309.166992188 235.333007812 319.5 216 c 0
 329.833007812 196.666992188 343.166992188 178.833007812 359.5 162.5 c 0
 375.833007812 146.166992188 394.166992188 132.666992188 414.5 122 c 0
 434.833007812 111.333007812 455 106 475 106 c 0
 496.333007812 106 516.333007812 109.5 535 116.5 c 0
 553.666992188 123.5 570.833007812 133 586.5 145 c 0
 602.166992188 157 616.5 170.5 629.5 185.5 c 0
 642.5 200.5 654 216 664 232 c 0
 678.666992188 254.666992188 690.666992188 278.666992188 700 304 c 0
 709.333007812 329.333007812 716.833007812 355 722.5 381 c 0
 728.166992188 407 732 432.666992188 734 458 c 0
 736 483.333007812 737 507.333007812 737 530 c 0
 737 572 733.333007812 609.166992188 726 641.5 c 0
 718.666992188 673.833007812 709.166992188 700.833007812 697.5 722.5 c 0
 685.833007812 744.166992188 672.333007812 760.5 657 771.5 c 0
 641.666992188 782.5 626 788 610 788 c 0
EndSplineSet
EndChar

StartChar: c
Encoding: 70 99 70
Width: 821
VWidth: 1024
Flags: HW
LayerCount: 2
Fore
SplineSet
844 818 m 0
 830 806.666992188 814.5 794.333007812 797.5 781 c 0
 780.5 767.666992188 763.833007812 755.333007812 747.5 744 c 0
 731.166992188 732.666992188 715.666992188 723.166992188 701 715.5 c 0
 686.333007812 707.833007812 674.333007812 704 665 704 c 0
 657 704 647.5 710 636.5 722 c 0
 625.5 734 613 747.166992188 599 761.5 c 0
 585 775.833007812 569.5 789 552.5 801 c 0
 535.5 813 516.666992188 819 496 819 c 0
 467.333007812 819 441.166992188 812.166992188 417.5 798.5 c 0
 393.833007812 784.833007812 372.333007812 766.5 353 743.5 c 0
 333.666992188 720.5 316.666992188 693.833007812 302 663.5 c 0
 287.333007812 633.166992188 275 601.333007812 265 568 c 0
 255 534.666992188 247.5 500.833007812 242.5 466.5 c 0
 237.5 432.166992188 235 399.333007812 235 368 c 0
 235 324.666992188 239.5 285.833007812 248.5 251.5 c 0
 257.5 217.166992188 269.833007812 188 285.5 164 c 0
 301.166992188 140 320 121.5 342 108.5 c 0
 364 95.5 388 89 414 89 c 0
 428 89 444.666992188 91.5 464 96.5 c 0
 483.333007812 101.5 505.5 109.833007812 530.5 121.5 c 0
 555.5 133.166992188 583 148.666992188 613 168 c 0
 643 187.333007812 676 211.666992188 712 241 c 0
 717.333007812 233.666992188 724 224.666992188 732 214 c 0
 740 203.333007812 745.666992188 195.333007812 749 190 c 0
 697 142.666992188 650 104 608 74 c 0
 566 44 527.666992188 20.5 493 3.5 c 0
 458.333007812 -13.5 426.666992188 -25.1669921875 398 -31.5 c 0
 369.333007812 -37.8330078125 342 -41 316 -41 c 0
 291.333007812 -41 264.166992188 -35.3330078125 234.5 -24 c 0
 204.833007812 -12.6669921875 177 7 151 35 c 0
 125 63 103.166992188 100.333007812 85.5 147 c 0
 67.8330078125 193.666992188 59 252 59 322 c 0
 59 366.666992188 63.6669921875 412.5 73 459.5 c 0
 82.3330078125 506.5 97.5 552.5 118.5 597.5 c 0
 139.5 642.5 166.833007812 685.5 200.5 726.5 c 0
 234.166992188 767.5 275.666992188 804.333007812 325 837 c 0
 343.666992188 849 364.666992188 861 388 873 c 0
 411.333007812 885 435.666992188 895.666992188 461 905 c 0
 486.333007812 914.333007812 511.833007812 921.833007812 537.5 927.5 c 0
 563.166992188 933.166992188 587.666992188 936 611 936 c 0
 640.333007812 936 666.5 930.666992188 689.5 920 c 0
 712.5 909.333007812 733.333007812 897.166992188 752 883.5 c 0
 770.666992188 869.833007812 787.5 856.5 802.5 843.5 c 0
 817.5 830.5 831.333007812 822 844 818 c 0
EndSplineSet
EndChar

StartChar: d
Encoding: 71 100 71
Width: 985
VWidth: 1024
Flags: HW
LayerCount: 2
Fore
SplineSet
945 80 m 0
 888.333007812 42 839.5 12.3330078125 798.5 -9 c 0
 757.5 -30.3330078125 725 -41 701 -41 c 0
 689 -41 677 -36.1669921875 665 -26.5 c 0
 653 -16.8330078125 642.333007812 -0.5 633 22.5 c 0
 623.666992188 45.5 615.833007812 75.6669921875 609.5 113 c 0
 603.166992188 150.333007812 599.333007812 197 598 253 c 0
 574 211.666992188 548.666992188 173.166992188 522 137.5 c 0
 495.333007812 101.833007812 468.166992188 70.8330078125 440.5 44.5 c 0
 412.833007812 18.1669921875 384.833007812 -2.6669921875 356.5 -18 c 0
 328.166992188 -33.3330078125 300.666992188 -41 274 -41 c 0
 250 -41 224.833007812 -34.1669921875 198.5 -20.5 c 0
 172.166992188 -6.8330078125 147.833007812 14.5 125.5 43.5 c 0
 103.166992188 72.5 84.6669921875 109.5 70 154.5 c 0
 55.3330078125 199.5 48 253 48 315 c 0
 48 367.666992188 54 418.833007812 66 468.5 c 0
 78 518.166992188 95.8330078125 565.5 119.5 610.5 c 0
 143.166992188 655.5 172.666992188 697.5 208 736.5 c 0
 243.333007812 775.5 284.666992188 810.666992188 332 842 c 0
 350.666992188 854 371 865.5 393 876.5 c 0
 415 887.5 437.666992188 897.5 461 906.5 c 0
 484.333007812 915.5 507.833007812 922.666992188 531.5 928 c 0
 555.166992188 933.333007812 578 936 600 936 c 0
 613.333007812 936 627.5 932 642.5 924 c 0
 657.5 916 672.666992188 906.333007812 688 895 c 0
 695.333007812 940.333007812 702.166992188 984.666992188 708.5 1028 c 0
 714.833007812 1071.33300781 720.5 1111.83300781 725.5 1149.5 c 0
 730.5 1187.16699219 734.5 1221.16699219 737.5 1251.5 c 0
 740.5 1281.83300781 742 1306.66699219 742 1326 c 0
 742 1341.33300781 740.833007812 1353.5 738.5 1362.5 c 0
 736.166992188 1371.5 732.833007812 1378.16699219 728.5 1382.5 c 0
 724.166992188 1386.83300781 719.333007812 1389.66699219 714 1391 c 0
 708.666992188 1392.33300781 703 1393 697 1393 c 0
 691 1393 682.166992188 1391.5 670.5 1388.5 c 0
 658.833007812 1385.5 647.333007812 1382.33300781 636 1379 c 0
 622.666992188 1375 608 1370.66699219 592 1366 c 0
 579 1415 l 0
 609 1429 639.333007812 1442.33300781 670 1455 c 0
 700.666992188 1467.66699219 729.5 1478.83300781 756.5 1488.5 c 0
 783.5 1498.16699219 807.333007812 1505.83300781 828 1511.5 c 0
 848.666992188 1517.16699219 863.666992188 1520 873 1520 c 0
 893 1520 908 1514 918 1502 c 0
 928 1490 933 1468.66699219 933 1438 c 0
 933 1412 930.666992188 1378.33300781 926 1337 c 0
 921.333007812 1295.66699219 915.166992188 1249.5 907.5 1198.5 c 0
 899.833007812 1147.5 891.166992188 1093.16699219 881.5 1035.5 c 0
 871.833007812 977.833007812 861.833007812 919.666992188 851.5 861 c 0
 841.166992188 802.333007812 831.166992188 744.5 821.5 687.5 c 0
 811.833007812 630.5 803.166992188 577.333007812 795.5 528 c 0
 787.833007812 478.666992188 781.666992188 434.666992188 777 396 c 0
 772.333007812 357.333007812 770 326.666992188 770 304 c 0
 770 233.333007812 774.166992188 181.833007812 782.5 149.5 c 0
 790.833007812 117.166992188 802.666992188 101 818 101 c 0
 835.333007812 101 852.666992188 102.833007812 870 106.5 c 0
 887.333007812 110.166992188 907.666992188 117 931 127 c 0
 945 80 l 0
611 411 m 0
 616.333007812 452.333007812 623.5 499.333007812 632.5 552 c 0
 641.5 604.666992188 650.666992188 660.333007812 660 719 c 0
 648.666992188 731 637 742.833007812 625 754.5 c 0
 613 766.166992188 600.166992188 776.833007812 586.5 786.5 c 0
 572.833007812 796.166992188 558.5 804 543.5 810 c 0
 528.5 816 513 819 497 819 c 0
 467.666992188 819 440.333007812 811.833007812 415 797.5 c 0
 389.666992188 783.166992188 366.5 764 345.5 740 c 0
 324.5 716 305.833007812 688.666992188 289.5 658 c 0
 273.166992188 627.333007812 259.5 595.666992188 248.5 563 c 0
 237.5 530.333007812 229.166992188 498 223.5 466 c 0
 217.833007812 434 215 405 215 379 c 0
 215 337.666992188 218.833007812 300.833007812 226.5 268.5 c 0
 234.166992188 236.166992188 244.5 208.666992188 257.5 186 c 0
 270.5 163.333007812 285.333007812 146 302 134 c 0
 318.666992188 122 336 116 354 116 c 0
 369.333007812 116 386.666992188 123 406 137 c 0
 425.333007812 151 446 170.833007812 468 196.5 c 0
 490 222.166992188 513 253.166992188 537 289.5 c 0
 561 325.833007812 585.666992188 366.333007812 611 411 c 0
EndSplineSet
EndChar

StartChar: e
Encoding: 72 101 72
Width: 825
VWidth: 1024
Flags: HW
LayerCount: 2
Fore
SplineSet
394 767 m 0
 374 747 354.666992188 723.833007812 336 697.5 c 0
 317.333007812 671.166992188 300.5 642.833007812 285.5 612.5 c 0
 270.5 582.166992188 258.166992188 550.166992188 248.5 516.5 c 0
 238.833007812 482.833007812 233 448.666992188 231 414 c 0
 311.666992188 446.666992188 375.5 476.166992188 422.5 502.5 c 0
 469.5 528.833007812 505 553.833007812 529 577.5 c 0
 553 601.166992188 568.333007812 623.833007812 575 645.5 c 0
 581.666992188 667.166992188 585 689.666992188 585 713 c 0
 585 731.666992188 582.666992188 747.833007812 578 761.5 c 0
 573.333007812 775.166992188 567 786.5 559 795.5 c 0
 551 804.5 542 811 532 815 c 0
 522 819 511.666992188 821 501 821 c 0
 490.333007812 821 474.5 816.666992188 453.5 808 c 0
 432.5 799.333007812 412.666992188 785.666992188 394 767 c 0
775 760 m 0
 775 741.333007812 772.833007812 721.833007812 768.5 701.5 c 0
 764.166992188 681.166992188 755.333007812 659.833007812 742 637.5 c 0
 728.666992188 615.166992188 709.666992188 591.833007812 685 567.5 c 0
 660.333007812 543.166992188 628 518 588 492 c 0
 548 466 499 439.166992188 441 411.5 c 0
 383 383.833007812 313.666992188 355.333007812 233 326 c 0
 237 290.666992188 244.5 258.333007812 255.5 229 c 0
 266.5 199.666992188 279.5 174.666992188 294.5 154 c 0
 309.5 133.333007812 325.666992188 117.333007812 343 106 c 0
 360.333007812 94.6669921875 377.666992188 89 395 89 c 0
 409 89 426.166992188 91 446.5 95 c 0
 466.833007812 99 490.166992188 106.666992188 516.5 118 c 0
 542.833007812 129.333007812 572.666992188 145.166992188 606 165.5 c 0
 639.333007812 185.833007812 676 212 716 244 c 0
 720 242 723.833007812 238.666992188 727.5 234 c 0
 731.166992188 229.333007812 734.666992188 224.333007812 738 219 c 0
 741.333007812 213.666992188 744 208.666992188 746 204 c 0
 752 193 l 0
 697.333007812 145.666992188 648.666992188 106.833007812 606 76.5 c 0
 563.333007812 46.1669921875 524.833007812 22.3330078125 490.5 5 c 0
 456.166992188 -12.3330078125 424.833007812 -24.3330078125 396.5 -31 c 0
 368.166992188 -37.6669921875 341 -41 315 -41 c 0
 291 -41 264.166992188 -34.8330078125 234.5 -22.5 c 0
 204.833007812 -10.1669921875 177 9.5 151 36.5 c 0
 125 63.5 103 98.8330078125 85 142.5 c 0
 67 186.166992188 58 239.666992188 58 303 c 0
 58 355 64.3330078125 405.833007812 77 455.5 c 0
 89.6669921875 505.166992188 107.833007812 552.666992188 131.5 598 c 0
 155.166992188 643.333007812 184.166992188 686.166992188 218.5 726.5 c 0
 252.833007812 766.833007812 291.666992188 804.333007812 335 839 c 0
 349.666992188 851 367 862.833007812 387 874.5 c 0
 407 886.166992188 428.333007812 896.5 451 905.5 c 0
 473.666992188 914.5 496.833007812 921.833007812 520.5 927.5 c 0
 544.166992188 933.166992188 567.333007812 936 590 936 c 0
 621.333007812 936 648.666992188 930.833007812 672 920.5 c 0
 695.333007812 910.166992188 714.666992188 896.666992188 730 880 c 0
 745.333007812 863.333007812 756.666992188 844.5 764 823.5 c 0
 771.333007812 802.5 775 781.333007812 775 760 c 0
EndSplineSet
EndChar

StartChar: f
Encoding: 73 102 73
Width: 592
VWidth: 1024
Flags: HW
LayerCount: 2
Fore
SplineSet
941 1401 m 0
 927 1391 910.833007812 1379.16699219 892.5 1365.5 c 0
 874.166992188 1351.83300781 856.333007812 1338.83300781 839 1326.5 c 0
 821.666992188 1314.16699219 805.333007812 1303.83300781 790 1295.5 c 0
 774.666992188 1287.16699219 763 1283 755 1283 c 0
 745.666992188 1283 736.333007812 1289 727 1301 c 0
 717.666992188 1313 707.5 1326 696.5 1340 c 0
 685.5 1354 673.166992188 1367 659.5 1379 c 0
 645.833007812 1391 629.666992188 1397 611 1397 c 0
 588.333007812 1397 568 1390 550 1376 c 0
 532 1362 516.166992188 1343.16699219 502.5 1319.5 c 0
 488.833007812 1295.83300781 477 1268.66699219 467 1238 c 0
 457 1207.33300781 448.5 1175.5 441.5 1142.5 c 0
 434.5 1109.5 428.666992188 1076.5 424 1043.5 c 0
 419.333007812 1010.5 415.666992188 980 413 952 c 0
 407 905 l 0
 661 905 l 0
 683 875 l 0
 676.333007812 865.666992188 667 855.166992188 655 843.5 c 0
 643 831.833007812 630.5 820.333007812 617.5 809 c 0
 604.5 797.666992188 591.833007812 787.5 579.5 778.5 c 0
 567.166992188 769.5 557.666992188 763.333007812 551 760 c 0
 547.666992188 769.333007812 542.5 776.833007812 535.5 782.5 c 0
 528.5 788.166992188 519.166992188 792.666992188 507.5 796 c 0
 495.833007812 799.333007812 481.5 801.666992188 464.5 803 c 0
 447.5 804.333007812 427 805 403 805 c 0
 396 805 l 0
 325 193 l 0
 316.333007812 119.666992188 300.166992188 48.8330078125 276.5 -19.5 c 0
 252.833007812 -87.8330078125 223.666992188 -151.5 189 -210.5 c 0
 154.333007812 -269.5 115 -322.5 71 -369.5 c 0
 27 -416.5 -19.6669921875 -455 -69 -485 c 0
 -100 -415 l 0
 -66.6669921875 -396.333007812 -36.5 -367.333007812 -9.5 -328 c 0
 17.5 -288.666992188 41.1669921875 -243.5 61.5 -192.5 c 0
 81.8330078125 -141.5 98.6669921875 -87.1669921875 112 -29.5 c 0
 125.333007812 28.1669921875 135 84.3330078125 141 139 c 0
 218 805 l 0
 71 805 l 0
 53 839 l 0
 164 905 l 0
 229 905 l 0
 235.666992188 958.333007812 244 1009.66699219 254 1059 c 0
 264 1108.33300781 277.833007812 1155 295.5 1199 c 0
 313.166992188 1243 336 1284.16699219 364 1322.5 c 0
 392 1360.83300781 427 1395.66699219 469 1427 c 0
 505 1453 540.333007812 1475 575 1493 c 0
 609.666992188 1511 647.666992188 1520 689 1520 c 0
 719.666992188 1520 748 1514.5 774 1503.5 c 0
 800 1492.5 823.666992188 1480 845 1466 c 0
 866.333007812 1452 885.166992188 1438.5 901.5 1425.5 c 0
 917.833007812 1412.5 931 1404.33300781 941 1401 c 0
EndSplineSet
EndChar

StartChar: g
Encoding: 74 103 74
Width: 928
VWidth: 1024
Flags: HW
LayerCount: 2
Fore
SplineSet
901 891 m 0
 878.333007812 872.333007812 860.5 849.333007812 847.5 822 c 0
 834.5 794.666992188 825 757 819 709 c 0
 809.666992188 629.666992188 803 557.833007812 799 493.5 c 0
 795 429.166992188 791.333007812 369 788 313 c 0
 784.666992188 257 781 203.833007812 777 153.5 c 0
 773 103.166992188 766.333007812 52.3330078125 757 1 c 0
 745 -68.3330078125 722.666992188 -133.333007812 690 -194 c 0
 657.333007812 -254.666992188 618.666992188 -307.666992188 574 -353 c 0
 529.333007812 -398.333007812 480.666992188 -434.166992188 428 -460.5 c 0
 375.333007812 -486.833007812 323 -500 271 -500 c 0
 241 -500 209.5 -496 176.5 -488 c 0
 143.5 -480 113.166992188 -470.166992188 85.5 -458.5 c 0
 57.8330078125 -446.833007812 35 -434.166992188 17 -420.5 c 0
 -1 -406.833007812 -10 -394 -10 -382 c 0
 -10 -370.666992188 -5 -357.166992188 5 -341.5 c 0
 15 -325.833007812 26.5 -310.666992188 39.5 -296 c 0
 52.5 -281.333007812 65.1669921875 -269 77.5 -259 c 0
 89.8330078125 -249 98.3330078125 -244 103 -244 c 0
 111 -244 120 -250.5 130 -263.5 c 0
 140 -276.5 154 -290.833007812 172 -306.5 c 0
 190 -322.166992188 213.333007812 -336.5 242 -349.5 c 0
 270.666992188 -362.5 307.333007812 -369 352 -369 c 0
 411.333007812 -369 459.5 -343.166992188 496.5 -291.5 c 0
 533.5 -239.833007812 561.666992188 -158.666992188 581 -48 c 0
 587 -14 591.666992188 18.3330078125 595 49 c 0
 598.333007812 79.6669921875 601.166992188 109.166992188 603.5 137.5 c 0
 605.833007812 165.833007812 607.5 193.666992188 608.5 221 c 0
 609.5 248.333007812 610.666992188 276 612 304 c 0
 588.666992188 262.666992188 563 221.333007812 535 180 c 0
 507 138.666992188 477.833007812 101.666992188 447.5 69 c 0
 417.166992188 36.3330078125 386.333007812 9.8330078125 355 -10.5 c 0
 323.666992188 -30.8330078125 293.333007812 -41 264 -41 c 0
 242 -41 218.166992188 -34.6669921875 192.5 -22 c 0
 166.833007812 -9.3330078125 143 10.8330078125 121 38.5 c 0
 99 66.1669921875 80.6669921875 101.833007812 66 145.5 c 0
 51.3330078125 189.166992188 44 242.333007812 44 305 c 0
 44 357.666992188 50.1669921875 409.166992188 62.5 459.5 c 0
 74.8330078125 509.833007812 93.1669921875 557.833007812 117.5 603.5 c 0
 141.833007812 649.166992188 172.5 692.166992188 209.5 732.5 c 0
 246.5 772.833007812 289.666992188 809.333007812 339 842 c 0
 357.666992188 854 377.833007812 865.666992188 399.5 877 c 0
 421.166992188 888.333007812 443.666992188 898.333007812 467 907 c 0
 490.333007812 915.666992188 514 922.666992188 538 928 c 0
 562 933.333007812 586 936 610 936 c 0
 624 936 637.833007812 933.833007812 651.5 929.5 c 0
 665.166992188 925.166992188 678.666992188 919.833007812 692 913.5 c 0
 705.333007812 907.166992188 718.166992188 900 730.5 892 c 0
 742.833007812 884 754.666992188 876.333007812 766 869 c 0
 784 883 802.166992188 895.5 820.5 906.5 c 0
 838.833007812 917.5 856.666992188 927.333007812 874 936 c 0
 901 891 l 0
346 116 m 0
 358 116 374.333007812 124.833007812 395 142.5 c 0
 415.666992188 160.166992188 438.833007812 185 464.5 217 c 0
 490.166992188 249 516.666992188 287.166992188 544 331.5 c 0
 571.333007812 375.833007812 597.333007812 424.666992188 622 478 c 0
 624.666992188 507.333007812 627.833007812 537.833007812 631.5 569.5 c 0
 635.166992188 601.166992188 640 635.333007812 646 672 c 0
 647.333007812 683.333007812 649.666992188 694.333007812 653 705 c 0
 656.333007812 715.666992188 660 726 664 736 c 0
 653.333007812 744.666992188 642 754 630 764 c 0
 618 774 605.333007812 783 592 791 c 0
 578.666992188 799 564.666992188 805.666992188 550 811 c 0
 535.333007812 816.333007812 520.333007812 819 505 819 c 0
 475 819 447.166992188 811.833007812 421.5 797.5 c 0
 395.833007812 783.166992188 372.166992188 764 350.5 740 c 0
 328.833007812 716 309.5 688.666992188 292.5 658 c 0
 275.5 627.333007812 261.166992188 595.666992188 249.5 563 c 0
 237.833007812 530.333007812 228.833007812 498 222.5 466 c 0
 216.166992188 434 213 405 213 379 c 0
 213 337.666992188 216.5 300.833007812 223.5 268.5 c 0
 230.5 236.166992188 240 208.666992188 252 186 c 0
 264 163.333007812 278.166992188 146 294.5 134 c 0
 310.833007812 122 328 116 346 116 c 0
EndSplineSet
EndChar

StartChar: h
Encoding: 75 104 75
Width: 1033
VWidth: 1024
Flags: HW
LayerCount: 2
Fore
SplineSet
995 85 m 0
 933 49 877.333007812 19 828 -5 c 0
 778.666992188 -29 738.666992188 -41 708 -41 c 0
 688.666992188 -41 671.5 -30.5 656.5 -9.5 c 0
 641.5 11.5 634 40 634 76 c 0
 634 88 636 109.166992188 640 139.5 c 0
 644 169.833007812 649.166992188 204.833007812 655.5 244.5 c 0
 661.833007812 284.166992188 668.666992188 326.333007812 676 371 c 0
 683.333007812 415.666992188 690.166992188 458.333007812 696.5 499 c 0
 702.833007812 539.666992188 708 576.333007812 712 609 c 0
 716 641.666992188 718 665.333007812 718 680 c 0
 718 704 717 724 715 740 c 0
 713 756 709.666992188 768.833007812 705 778.5 c 0
 700.333007812 788.166992188 693.833007812 795 685.5 799 c 0
 677.166992188 803 666.666992188 805 654 805 c 0
 645.333007812 805 631 800.666992188 611 792 c 0
 591 783.333007812 568.333007812 770 543 752 c 0
 517.666992188 734 491.333007812 710.833007812 464 682.5 c 0
 436.666992188 654.166992188 411.333007812 620.666992188 388 582 c 0
 370 550 354.833007812 510.166992188 342.5 462.5 c 0
 330.166992188 414.833007812 319.333007812 361 310 301 c 0
 304 264.333007812 299.333007812 232.5 296 205.5 c 0
 292.666992188 178.5 290.166992188 154.666992188 288.5 134 c 0
 286.833007812 113.333007812 286 95.3330078125 286 80 c 0
 286 64.6669921875 286.333007812 50.6669921875 287 38 c 0
 278.333007812 33.3330078125 266.166992188 27.3330078125 250.5 20 c 0
 234.833007812 12.6669921875 218.5 5.3330078125 201.5 -2 c 0
 184.5 -9.3330078125 168.166992188 -16.5 152.5 -23.5 c 0
 136.833007812 -30.5 125 -36.3330078125 117 -41 c 0
 81 -8 l 0
 87 28 94.5 72.3330078125 103.5 125 c 0
 112.5 177.666992188 122 235.333007812 132 298 c 0
 142 360.666992188 152.5 426.5 163.5 495.5 c 0
 174.5 564.5 185.333007812 633.666992188 196 703 c 0
 206.666992188 772.333007812 216.666992188 839.666992188 226 905 c 0
 235.333007812 970.333007812 243.5 1030.66699219 250.5 1086 c 0
 257.5 1141.33300781 263.166992188 1189.83300781 267.5 1231.5 c 0
 271.833007812 1273.16699219 274 1304.66699219 274 1326 c 0
 274 1341.33300781 272.833007812 1353.5 270.5 1362.5 c 0
 268.166992188 1371.5 265.166992188 1378.16699219 261.5 1382.5 c 0
 257.833007812 1386.83300781 253.5 1389.66699219 248.5 1391 c 0
 243.5 1392.33300781 238.333007812 1393 233 1393 c 0
 226.333007812 1393 216.833007812 1391.5 204.5 1388.5 c 0
 192.166992188 1385.5 179.666992188 1382.33300781 167 1379 c 0
 152.333007812 1375 136.666992188 1370.66699219 120 1366 c 0
 107 1415 l 0
 135 1427.66699219 164.5 1440.16699219 195.5 1452.5 c 0
 226.5 1464.83300781 255.833007812 1476 283.5 1486 c 0
 311.166992188 1496 336 1504.16699219 358 1510.5 c 0
 380 1516.83300781 396 1520 406 1520 c 0
 424.666992188 1520 439.5 1514 450.5 1502 c 0
 461.5 1490 467 1468.66699219 467 1438 c 0
 467 1422 465 1396 461 1360 c 0
 457 1324 451.833007812 1282.33300781 445.5 1235 c 0
 439.166992188 1187.66699219 432.166992188 1137.33300781 424.5 1084 c 0
 416.833007812 1030.66699219 409.166992188 979.166992188 401.5 929.5 c 0
 393.833007812 879.833007812 386.666992188 834 380 792 c 0
 373.333007812 750 368 717 364 693 c 0
 402.666992188 737.666992188 440.833007812 775.5 478.5 806.5 c 0
 516.166992188 837.5 552.833007812 862.666992188 588.5 882 c 0
 624.166992188 901.333007812 658.333007812 915.166992188 691 923.5 c 0
 723.666992188 931.833007812 755 936 785 936 c 0
 805.666992188 936 823.666992188 933.166992188 839 927.5 c 0
 854.333007812 921.833007812 867 912.333007812 877 899 c 0
 887 885.666992188 894.333007812 868 899 846 c 0
 903.666992188 824 906 797 906 765 c 0
 906 741.666992188 903.833007812 713.166992188 899.5 679.5 c 0
 895.166992188 645.833007812 890 609.5 884 570.5 c 0
 878 531.5 871.166992188 491.666992188 863.5 451 c 0
 855.833007812 410.333007812 849 371.333007812 843 334 c 0
 837 296.666992188 831.833007812 262.666992188 827.5 232 c 0
 823.166992188 201.333007812 821 176.666992188 821 158 c 0
 821 135.333007812 824.666992188 119.833007812 832 111.5 c 0
 839.333007812 103.166992188 847.666992188 99 857 99 c 0
 875.666992188 99 894.166992188 101.833007812 912.5 107.5 c 0
 930.833007812 113.166992188 952.333007812 121.333007812 977 132 c 0
 995 85 l 0
EndSplineSet
EndChar

StartChar: i
Encoding: 76 105 76
Width: 525
VWidth: 1024
Flags: HW
LayerCount: 2
Fore
SplineSet
508 1262 m 0
 508 1243.33300781 504.833007812 1224.5 498.5 1205.5 c 0
 492.166992188 1186.5 483 1169.16699219 471 1153.5 c 0
 459 1137.83300781 444.333007812 1125.16699219 427 1115.5 c 0
 409.666992188 1105.83300781 390 1101 368 1101 c 0
 342.666992188 1101 323.333007812 1107.83300781 310 1121.5 c 0
 296.666992188 1135.16699219 290 1153.33300781 290 1176 c 0
 290 1194 293.333007812 1212.5 300 1231.5 c 0
 306.666992188 1250.5 316 1267.83300781 328 1283.5 c 0
 340 1299.16699219 354.666992188 1312.16699219 372 1322.5 c 0
 389.333007812 1332.83300781 409 1338 431 1338 c 0
 456.333007812 1338 475.5 1331 488.5 1317 c 0
 501.5 1303 508 1284.66699219 508 1262 c 0
483 85 m 0
 420.333007812 47.6669921875 365.166992188 17.3330078125 317.5 -6 c 0
 269.833007812 -29.3330078125 230 -41 198 -41 c 0
 175.333007812 -41 156.833007812 -30.5 142.5 -9.5 c 0
 128.166992188 11.5 121 40 121 76 c 0
 121 96 123.5 124 128.5 160 c 0
 133.5 196 139.5 235.833007812 146.5 279.5 c 0
 153.5 323.166992188 161.333007812 368.666992188 170 416 c 0
 178.666992188 463.333007812 186.5 508.333007812 193.5 551 c 0
 200.5 593.666992188 206.5 631.666992188 211.5 665 c 0
 216.5 698.333007812 219 723.333007812 219 740 c 0
 219 755.333007812 218 767.5 216 776.5 c 0
 214 785.5 211.333007812 792.166992188 208 796.5 c 0
 204.666992188 800.833007812 200.333007812 803.666992188 195 805 c 0
 189.666992188 806.333007812 184 807 178 807 c 0
 172.666992188 807 164.666992188 805.833007812 154 803.5 c 0
 143.333007812 801.166992188 132.333007812 798.333007812 121 795 c 0
 108.333007812 791.666992188 94.6669921875 787.666992188 80 783 c 0
 65 830 l 0
 93 842.666992188 122.166992188 855.333007812 152.5 868 c 0
 182.833007812 880.666992188 211.5 892 238.5 902 c 0
 265.5 912 289.666992188 920.166992188 311 926.5 c 0
 332.333007812 932.833007812 348 936 358 936 c 0
 376.666992188 936 390.166992188 929.666992188 398.5 917 c 0
 406.833007812 904.333007812 411 882.666992188 411 852 c 0
 411 832.666992188 408.5 804.666992188 403.5 768 c 0
 398.5 731.333007812 392.333007812 690.666992188 385 646 c 0
 377.666992188 601.333007812 369.5 554.333007812 360.5 505 c 0
 351.5 455.666992188 343.333007812 408.666992188 336 364 c 0
 328.666992188 319.333007812 322.5 278.666992188 317.5 242 c 0
 312.5 205.333007812 310 177.333007812 310 158 c 0
 310 137.333007812 312.166992188 122.333007812 316.5 113 c 0
 320.833007812 103.666992188 328.666992188 99 340 99 c 0
 360.666992188 99 380 101.666992188 398 107 c 0
 416 112.333007812 438.666992188 120.666992188 466 132 c 0
 483 85 l 0
EndSplineSet
EndChar

StartChar: j
Encoding: 77 106 77
Width: 523
VWidth: 1024
Flags: HW
LayerCount: 2
Fore
SplineSet
484 1262 m 0
 484 1243.33300781 480.666992188 1224.5 474 1205.5 c 0
 467.333007812 1186.5 458 1169.16699219 446 1153.5 c 0
 434 1137.83300781 419.166992188 1125.16699219 401.5 1115.5 c 0
 383.833007812 1105.83300781 364 1101 342 1101 c 0
 316.666992188 1101 297.5 1107.83300781 284.5 1121.5 c 0
 271.5 1135.16699219 265 1153.33300781 265 1176 c 0
 265 1194 268.166992188 1212.5 274.5 1231.5 c 0
 280.833007812 1250.5 290.166992188 1267.83300781 302.5 1283.5 c 0
 314.833007812 1299.16699219 329.666992188 1312.16699219 347 1322.5 c 0
 364.333007812 1332.83300781 384 1338 406 1338 c 0
 431.333007812 1338 450.666992188 1331 464 1317 c 0
 477.333007812 1303 484 1284.66699219 484 1262 c 0
401 870 m 0
 401 862.666992188 400.166992188 849.833007812 398.5 831.5 c 0
 396.833007812 813.166992188 394.666992188 791.666992188 392 767 c 0
 389.333007812 742.333007812 386.5 715.833007812 383.5 687.5 c 0
 380.5 659.166992188 377.5 631.5 374.5 604.5 c 0
 371.5 577.5 368.666992188 552.5 366 529.5 c 0
 363.333007812 506.5 361.333007812 487.666992188 360 473 c 0
 354.666992188 427 348.666992188 369.833007812 342 301.5 c 0
 335.333007812 233.166992188 325.666992188 157.333007812 313 74 c 0
 300.333007812 -0.6669921875 284 -64.3330078125 264 -117 c 0
 244 -169.666992188 221.666992188 -214.666992188 197 -252 c 0
 172.333007812 -289.333007812 146.166992188 -321.166992188 118.5 -347.5 c 0
 90.8330078125 -373.833007812 63.3330078125 -397.666992188 36 -419 c 0
 18 -433 -1.6669921875 -445.166992188 -23 -455.5 c 0
 -44.3330078125 -465.833007812 -65.5 -474.333007812 -86.5 -481 c 0
 -107.5 -487.666992188 -127.666992188 -492.5 -147 -495.5 c 0
 -166.333007812 -498.5 -183 -500 -197 -500 c 0
 -218.333007812 -500 -240.333007812 -497 -263 -491 c 0
 -285.666992188 -485 -306.333007812 -477.666992188 -325 -469 c 0
 -343.666992188 -460.333007812 -358.833007812 -451.166992188 -370.5 -441.5 c 0
 -382.166992188 -431.833007812 -388 -423.666992188 -388 -417 c 0
 -388 -408.333007812 -383 -396.166992188 -373 -380.5 c 0
 -363 -364.833007812 -351.5 -349.5 -338.5 -334.5 c 0
 -325.5 -319.5 -312.333007812 -306.5 -299 -295.5 c 0
 -285.666992188 -284.5 -275.666992188 -279 -269 -279 c 0
 -263 -279 -255.166992188 -283.5 -245.5 -292.5 c 0
 -235.833007812 -301.5 -224 -311.5 -210 -322.5 c 0
 -196 -333.5 -179 -343.5 -159 -352.5 c 0
 -139 -361.5 -115.333007812 -366 -88 -366 c 0
 -60 -366 -35.1669921875 -358.166992188 -13.5 -342.5 c 0
 8.1669921875 -326.833007812 27.3330078125 -303.166992188 44 -271.5 c 0
 60.6669921875 -239.833007812 75.3330078125 -200.5 88 -153.5 c 0
 100.666992188 -106.5 112.333007812 -51.6669921875 123 11 c 0
 131.666992188 60.3330078125 139 107.333007812 145 152 c 0
 151 196.666992188 156.166992188 238 160.5 276 c 0
 164.833007812 314 168.5 347.833007812 171.5 377.5 c 0
 174.5 407.166992188 177 431.666992188 179 451 c 0
 180.333007812 467 182.5 489.166992188 185.5 517.5 c 0
 188.5 545.833007812 191.5 574.666992188 194.5 604 c 0
 197.5 633.333007812 200 660.666992188 202 686 c 0
 204 711.333007812 205 729.333007812 205 740 c 0
 205 755.333007812 204 767.5 202 776.5 c 0
 200 785.5 197.166992188 792.166992188 193.5 796.5 c 0
 189.833007812 800.833007812 185.5 803.666992188 180.5 805 c 0
 175.5 806.333007812 170 807 164 807 c 0
 158 807 149.666992188 805.833007812 139 803.5 c 0
 128.333007812 801.166992188 117.333007812 798.333007812 106 795 c 0
 93.3330078125 791.666992188 80 787.666992188 66 783 c 0
 50 830 l 0
 78 842.666992188 107.333007812 855.333007812 138 868 c 0
 168.666992188 880.666992188 197.666992188 892 225 902 c 0
 252.333007812 912 276.5 920.166992188 297.5 926.5 c 0
 318.5 932.833007812 333.666992188 936 343 936 c 0
 361.666992188 936 376 932 386 924 c 0
 396 916 401 898 401 870 c 0
EndSplineSet
EndChar

StartChar: k
Encoding: 78 107 78
Width: 934
VWidth: 1024
Flags: HW
LayerCount: 2
Fore
SplineSet
465 1417 m 0
 465 1391 463 1358.66699219 459 1320 c 0
 455 1281.33300781 449.833007812 1237.83300781 443.5 1189.5 c 0
 437.166992188 1141.16699219 429.666992188 1089.33300781 421 1034 c 0
 412.333007812 978.666992188 403.333007812 922 394 864 c 0
 384.666992188 806 375.166992188 747.333007812 365.5 688 c 0
 355.833007812 628.666992188 346.666992188 571 338 515 c 0
 538 665 l 0
 584 699.666992188 621.5 729 650.5 753 c 0
 679.5 777 697.833007812 796.166992188 705.5 810.5 c 0
 713.166992188 824.833007812 709.166992188 835 693.5 841 c 0
 677.833007812 847 648.666992188 849.333007812 606 848 c 0
 601 897 l 0
 645 903 688 910 730 918 c 0
 772 926 814 930 856 930 c 0
 873.333007812 930 887.333007812 928.833007812 898 926.5 c 0
 908.666992188 924.166992188 917 920.333007812 923 915 c 0
 929 909.666992188 933.166992188 903 935.5 895 c 0
 937.833007812 887 939 877.333007812 939 866 c 0
 939 856 931.833007812 842.166992188 917.5 824.5 c 0
 903.166992188 806.833007812 882.166992188 786 854.5 762 c 0
 826.833007812 738 793.333007812 711.833007812 754 683.5 c 0
 714.666992188 655.166992188 670 625.666992188 620 595 c 0
 501 522 l 0
 518.333007812 501.333007812 535.5 476.666992188 552.5 448 c 0
 569.5 419.333007812 586.5 389.333007812 603.5 358 c 0
 620.5 326.666992188 637 295.5 653 264.5 c 0
 669 233.5 684.666992188 205.833007812 700 181.5 c 0
 715.333007812 157.166992188 730.166992188 137.333007812 744.5 122 c 0
 758.833007812 106.666992188 772.666992188 99 786 99 c 0
 801.333007812 99 818.666992188 100.166992188 838 102.5 c 0
 857.333007812 104.833007812 879.666992188 113 905 127 c 0
 927 83 l 0
 883 45.6669921875 841.166992188 16 801.5 -6 c 0
 761.833007812 -28 728.333007812 -39 701 -39 c 0
 677.666992188 -39 654.833007812 -28.1669921875 632.5 -6.5 c 0
 610.166992188 15.1669921875 588.5 43 567.5 77 c 0
 546.5 111 525.833007812 148.666992188 505.5 190 c 0
 485.166992188 231.333007812 465.333007812 271.666992188 446 311 c 0
 426.666992188 350.333007812 407.666992188 386.5 389 419.5 c 0
 370.333007812 452.5 352.333007812 477.333007812 335 494 c 0
 327 439.333007812 319.666992188 387.5 313 338.5 c 0
 306.333007812 289.5 301 245 297 205 c 0
 293 165 290.666992188 130.833007812 290 102.5 c 0
 289.333007812 74.1669921875 291 53.3330078125 295 40 c 0
 285.666992188 35.3330078125 272.833007812 29.3330078125 256.5 22 c 0
 240.166992188 14.6669921875 223.166992188 7 205.5 -1 c 0
 187.833007812 -9 171 -16.5 155 -23.5 c 0
 139 -30.5 127 -36.3330078125 119 -41 c 0
 81 -8 l 0
 83.6669921875 11.3330078125 88.3330078125 42.5 95 85.5 c 0
 101.666992188 128.5 109.833007812 179.166992188 119.5 237.5 c 0
 129.166992188 295.833007812 139.666992188 359.5 151 428.5 c 0
 162.333007812 497.5 173.666992188 568 185 640 c 0
 196.333007812 712 207.333007812 783.333007812 218 854 c 0
 228.666992188 924.666992188 238.166992188 990.5 246.5 1051.5 c 0
 254.833007812 1112.5 261.5 1166.66699219 266.5 1214 c 0
 271.5 1261.33300781 274 1297.66699219 274 1323 c 0
 274 1339.66699219 273 1352.66699219 271 1362 c 0
 269 1371.33300781 266 1378.33300781 262 1383 c 0
 258 1387.66699219 253 1390.5 247 1391.5 c 0
 241 1392.5 234 1393 226 1393 c 0
 220.666992188 1393 212.166992188 1391.5 200.5 1388.5 c 0
 188.833007812 1385.5 177 1382.33300781 165 1379 c 0
 151 1375 136 1370.66699219 120 1366 c 0
 105 1415 l 0
 133 1427.66699219 162.666992188 1440.16699219 194 1452.5 c 0
 225.333007812 1464.83300781 255.166992188 1476 283.5 1486 c 0
 311.833007812 1496 337 1504.16699219 359 1510.5 c 0
 381 1516.83300781 396.666992188 1520 406 1520 c 0
 415.333007812 1520 423.666992188 1519 431 1517 c 0
 438.333007812 1515 444.5 1510.5 449.5 1503.5 c 0
 454.5 1496.5 458.333007812 1486.16699219 461 1472.5 c 0
 463.666992188 1458.83300781 465 1440.33300781 465 1417 c 0
EndSplineSet
EndChar

StartChar: l
Encoding: 79 108 79
Width: 503
VWidth: 1024
Flags: HW
LayerCount: 2
Fore
SplineSet
463 85 m 0
 397 43.6669921875 340.833007812 12.3330078125 294.5 -9 c 0
 248.166992188 -30.3330078125 206.666992188 -41 170 -41 c 0
 151.333007812 -41 134.666992188 -31 120 -11 c 0
 105.333007812 9 98 38.6669921875 98 78 c 0
 98 94.6669921875 100.5 122.666992188 105.5 162 c 0
 110.5 201.333007812 116.833007812 248.166992188 124.5 302.5 c 0
 132.166992188 356.833007812 141.166992188 416.666992188 151.5 482 c 0
 161.833007812 547.333007812 172.166992188 614 182.5 682 c 0
 192.833007812 750 203.166992188 817.333007812 213.5 884 c 0
 223.833007812 950.666992188 232.833007812 1012.83300781 240.5 1070.5 c 0
 248.166992188 1128.16699219 254.5 1179.33300781 259.5 1224 c 0
 264.5 1268.66699219 267 1302.66699219 267 1326 c 0
 267 1341.33300781 265.5 1353.5 262.5 1362.5 c 0
 259.5 1371.5 255.666992188 1378.16699219 251 1382.5 c 0
 246.333007812 1386.83300781 240.833007812 1389.66699219 234.5 1391 c 0
 228.166992188 1392.33300781 222 1393 216 1393 c 0
 210.666992188 1393 202.333007812 1391.5 191 1388.5 c 0
 179.666992188 1385.5 168.333007812 1382.33300781 157 1379 c 0
 143.666992188 1375 129.666992188 1370.66699219 115 1366 c 0
 99 1415 l 0
 127 1427.66699219 156.5 1440.16699219 187.5 1452.5 c 0
 218.5 1464.83300781 248 1476 276 1486 c 0
 304 1496 329 1504.16699219 351 1510.5 c 0
 373 1516.83300781 389 1520 399 1520 c 0
 417.666992188 1520 432.5 1514 443.5 1502 c 0
 454.5 1490 460 1468.66699219 460 1438 c 0
 460 1412 457.5 1376.33300781 452.5 1331 c 0
 447.5 1285.66699219 441 1234.16699219 433 1176.5 c 0
 425 1118.83300781 415.833007812 1056.66699219 405.5 990 c 0
 395.166992188 923.333007812 384.666992188 856.166992188 374 788.5 c 0
 363.333007812 720.833007812 352.833007812 654.166992188 342.5 588.5 c 0
 332.166992188 522.833007812 323 461.833007812 315 405.5 c 0
 307 349.166992188 300.5 299.5 295.5 256.5 c 0
 290.5 213.5 288 180.666992188 288 158 c 0
 288 135.333007812 291.166992188 119.833007812 297.5 111.5 c 0
 303.833007812 103.166992188 312.333007812 99 323 99 c 0
 338.333007812 99 355.833007812 101.666992188 375.5 107 c 0
 395.166992188 112.333007812 420 120.666992188 450 132 c 0
 463 85 l 0
EndSplineSet
EndChar

StartChar: m
Encoding: 80 109 80
Width: 1506
VWidth: 1024
Flags: HW
LayerCount: 2
Fore
SplineSet
1447 85 m 0
 1385 49 1329.5 19 1280.5 -5 c 0
 1231.5 -29 1191.33300781 -41 1160 -41 c 0
 1140.66699219 -41 1123.83300781 -30.5 1109.5 -9.5 c 0
 1095.16699219 11.5 1088 40 1088 76 c 0
 1088 88 1090.16699219 108.5 1094.5 137.5 c 0
 1098.83300781 166.5 1104.33300781 200.5 1111 239.5 c 0
 1117.66699219 278.5 1125 320.166992188 1133 364.5 c 0
 1141 408.833007812 1148.33300781 452 1155 494 c 0
 1161.66699219 536 1167.16699219 575.166992188 1171.5 611.5 c 0
 1175.83300781 647.833007812 1178 677 1178 699 c 0
 1178 737 1174 764 1166 780 c 0
 1158 796 1148 804 1136 804 c 0
 1125.33300781 804 1111.5 800.333007812 1094.5 793 c 0
 1077.5 785.666992188 1058.5 773.833007812 1037.5 757.5 c 0
 1016.5 741.166992188 994.166992188 720 970.5 694 c 0
 946.833007812 668 923 636.666992188 899 600 c 0
 885 578.666992188 873.333007812 557.166992188 864 535.5 c 0
 854.666992188 513.833007812 846.666992188 490.833007812 840 466.5 c 0
 833.333007812 442.166992188 827.5 416 822.5 388 c 0
 817.5 360 812.333007812 329 807 295 c 0
 797.666992188 234.333007812 791.833007812 183.333007812 789.5 142 c 0
 787.166992188 100.666992188 787 66 789 38 c 0
 779.666992188 33.3330078125 766.833007812 27.3330078125 750.5 20 c 0
 734.166992188 12.6669921875 717.333007812 5.3330078125 700 -2 c 0
 682.666992188 -9.3330078125 666 -16.5 650 -23.5 c 0
 634 -30.5 621.666992188 -36.3330078125 613 -41 c 0
 579 -8 l 0
 593.666992188 60 607.666992188 129.833007812 621 201.5 c 0
 634.333007812 273.166992188 646.166992188 340.666992188 656.5 404 c 0
 666.833007812 467.333007812 675 523.833007812 681 573.5 c 0
 687 623.166992188 690 660.333007812 690 685 c 0
 690 729.666992188 685.333007812 760.666992188 676 778 c 0
 666.666992188 795.333007812 653.333007812 804 636 804 c 0
 628.666992188 804 617 800.333007812 601 793 c 0
 585 785.666992188 566.5 774 545.5 758 c 0
 524.5 742 502 721.166992188 478 695.5 c 0
 454 669.833007812 430.333007812 638.666992188 407 602 c 0
 393.666992188 582 382.333007812 561.166992188 373 539.5 c 0
 363.666992188 517.833007812 355.333007812 494.5 348 469.5 c 0
 340.666992188 444.5 334.166992188 417.666992188 328.5 389 c 0
 322.833007812 360.333007812 317 329 311 295 c 0
 301 234.333007812 294.333007812 183.333007812 291 142 c 0
 287.666992188 100.666992188 286.666992188 66 288 38 c 0
 279.333007812 33.3330078125 267.166992188 27.3330078125 251.5 20 c 0
 235.833007812 12.6669921875 219.5 5.3330078125 202.5 -2 c 0
 185.5 -9.3330078125 169.166992188 -16.5 153.5 -23.5 c 0
 137.833007812 -30.5 126 -36.3330078125 118 -41 c 0
 82 -8 l 0
 96 62.6669921875 109.5 136 122.5 212 c 0
 135.5 288 147.333007812 360.333007812 158 429 c 0
 168.666992188 497.666992188 177.166992188 559.5 183.5 614.5 c 0
 189.833007812 669.5 193 711.333007812 193 740 c 0
 193 755.333007812 192 767.5 190 776.5 c 0
 188 785.5 185.166992188 792.5 181.5 797.5 c 0
 177.833007812 802.5 173.666992188 805.666992188 169 807 c 0
 164.333007812 808.333007812 159.333007812 809 154 809 c 0
 147.333007812 809 138.166992188 807.666992188 126.5 805 c 0
 114.833007812 802.333007812 103.333007812 799.333007812 92 796 c 0
 78.6669921875 792 64.3330078125 787.666992188 49 783 c 0
 36 832 l 0
 64 844 93.3330078125 856.166992188 124 868.5 c 0
 154.666992188 880.833007812 183.5 892 210.5 902 c 0
 237.5 912 261.666992188 920.166992188 283 926.5 c 0
 304.333007812 932.833007812 319.666992188 936 329 936 c 0
 339 936 347.166992188 934.333007812 353.5 931 c 0
 359.833007812 927.666992188 364.666992188 921.833007812 368 913.5 c 0
 371.333007812 905.166992188 373.5 893.5 374.5 878.5 c 0
 375.5 863.5 376 844.333007812 376 821 c 0
 376 814.333007812 375.666992188 806 375 796 c 0
 374.333007812 786 373.5 775.166992188 372.5 763.5 c 0
 371.5 751.833007812 370.333007812 739.833007812 369 727.5 c 0
 367.666992188 715.166992188 366.666992188 703.666992188 366 693 c 0
 405.333007812 738.333007812 442.166992188 776.5 476.5 807.5 c 0
 510.833007812 838.5 543.333007812 863.5 574 882.5 c 0
 604.666992188 901.5 634 915.166992188 662 923.5 c 0
 690 931.833007812 717.666992188 936 745 936 c 0
 769.666992188 936 790.333007812 931.166992188 807 921.5 c 0
 823.666992188 911.833007812 837 898.833007812 847 882.5 c 0
 857 866.166992188 864.166992188 847.666992188 868.5 827 c 0
 872.833007812 806.333007812 875 785 875 763 c 0
 875 753 874.833007812 743.666992188 874.5 735 c 0
 874.166992188 726.333007812 873.333007812 715.666992188 872 703 c 0
 910.666992188 745.666992188 946.166992188 781.833007812 978.5 811.5 c 0
 1010.83300781 841.166992188 1041.33300781 865.166992188 1070 883.5 c 0
 1098.66699219 901.833007812 1125.66699219 915.166992188 1151 923.5 c 0
 1176.33300781 931.833007812 1201.66699219 936 1227 936 c 0
 1246.33300781 936 1264.16699219 932.833007812 1280.5 926.5 c 0
 1296.83300781 920.166992188 1310.83300781 910 1322.5 896 c 0
 1334.16699219 882 1343.33300781 863.833007812 1350 841.5 c 0
 1356.66699219 819.166992188 1360 792 1360 760 c 0
 1360 734.666992188 1357.83300781 704.833007812 1353.5 670.5 c 0
 1349.16699219 636.166992188 1343.83300781 599.666992188 1337.5 561 c 0
 1331.16699219 522.333007812 1324.33300781 483.166992188 1317 443.5 c 0
 1309.66699219 403.833007812 1302.83300781 365.833007812 1296.5 329.5 c 0
 1290.16699219 293.166992188 1284.83300781 260.166992188 1280.5 230.5 c 0
 1276.16699219 200.833007812 1274 176.666992188 1274 158 c 0
 1274 135.333007812 1277.33300781 120.166992188 1284 112.5 c 0
 1290.66699219 104.833007812 1299.66699219 101 1311 101 c 0
 1330.33300781 101 1349.16699219 103.5 1367.5 108.5 c 0
 1385.83300781 113.5 1408.66699219 121.333007812 1436 132 c 0
 1447 85 l 0
EndSplineSet
EndChar

StartChar: n
Encoding: 81 110 81
Width: 1035
VWidth: 1024
Flags: HW
LayerCount: 2
Fore
SplineSet
1001 85 m 0
 971 67 941.833007812 50.3330078125 913.5 35 c 0
 885.166992188 19.6669921875 858.666992188 6.3330078125 834 -5 c 0
 809.333007812 -16.3330078125 787 -25.1669921875 767 -31.5 c 0
 747 -37.8330078125 730 -41 716 -41 c 0
 692.666992188 -41 674.166992188 -30.5 660.5 -9.5 c 0
 646.833007812 11.5 640 40 640 76 c 0
 640 88 642.166992188 109.166992188 646.5 139.5 c 0
 650.833007812 169.833007812 656.166992188 204.833007812 662.5 244.5 c 0
 668.833007812 284.166992188 675.833007812 326.333007812 683.5 371 c 0
 691.166992188 415.666992188 698.166992188 458.333007812 704.5 499 c 0
 710.833007812 539.666992188 716.166992188 576.333007812 720.5 609 c 0
 724.833007812 641.666992188 727 665.333007812 727 680 c 0
 727 726.666992188 722.333007812 759.333007812 713 778 c 0
 703.666992188 796.666992188 685.666992188 806 659 806 c 0
 650.333007812 806 636.166992188 801.5 616.5 792.5 c 0
 596.833007812 783.5 574.666992188 769.666992188 550 751 c 0
 525.333007812 732.333007812 499.5 708.833007812 472.5 680.5 c 0
 445.5 652.166992188 420.666992188 618.666992188 398 580 c 0
 378.666992188 548 363.333007812 509.666992188 352 465 c 0
 340.666992188 420.333007812 329.333007812 365.666992188 318 301 c 0
 312.666992188 271 308.333007812 244 305 220 c 0
 301.666992188 196 299.166992188 173.5 297.5 152.5 c 0
 295.833007812 131.5 294.833007812 111.833007812 294.5 93.5 c 0
 294.166992188 75.1669921875 294.333007812 56.6669921875 295 38 c 0
 286.333007812 33.3330078125 274 27.3330078125 258 20 c 0
 242 12.6669921875 225.5 5.3330078125 208.5 -2 c 0
 191.5 -9.3330078125 175.166992188 -16.5 159.5 -23.5 c 0
 143.833007812 -30.5 132 -36.3330078125 124 -41 c 0
 89 -8 l 0
 98.3330078125 36.6669921875 107.5 84 116.5 134 c 0
 125.5 184 134 234.166992188 142 284.5 c 0
 150 334.833007812 157.5 384 164.5 432 c 0
 171.5 480 177.5 524.333007812 182.5 565 c 0
 187.5 605.666992188 191.5 641.5 194.5 672.5 c 0
 197.5 703.5 199 726.666992188 199 742 c 0
 199 757.333007812 198.166992188 769.5 196.5 778.5 c 0
 194.833007812 787.5 192.5 794.166992188 189.5 798.5 c 0
 186.5 802.833007812 182.666992188 805.666992188 178 807 c 0
 173.333007812 808.333007812 168 809 162 809 c 0
 156 809 147.166992188 807.666992188 135.5 805 c 0
 123.833007812 802.333007812 112.333007812 799.333007812 101 796 c 0
 87.6669921875 792 73.3330078125 787.666992188 58 783 c 0
 42 832 l 0
 70 844 99.6669921875 856.166992188 131 868.5 c 0
 162.333007812 880.833007812 192 892 220 902 c 0
 248 912 272.666992188 920.166992188 294 926.5 c 0
 315.333007812 932.833007812 330.333007812 936 339 936 c 0
 348.333007812 936 355.666992188 934.5 361 931.5 c 0
 366.333007812 928.5 370.5 923 373.5 915 c 0
 376.5 907 378.5 895.666992188 379.5 881 c 0
 380.5 866.333007812 381 847 381 823 c 0
 381 815.666992188 380.666992188 806.5 380 795.5 c 0
 379.333007812 784.5 378.666992188 772.666992188 378 760 c 0
 377.333007812 747.333007812 376.333007812 735 375 723 c 0
 373.666992188 711 372.666992188 701 372 693 c 0
 408 735.666992188 444.333007812 772.333007812 481 803 c 0
 517.666992188 833.666992188 553.5 858.833007812 588.5 878.5 c 0
 623.5 898.166992188 657.5 912.666992188 690.5 922 c 0
 723.5 931.333007812 755 936 785 936 c 0
 805.666992188 936 824.166992188 933.166992188 840.5 927.5 c 0
 856.833007812 921.833007812 870.5 912.5 881.5 899.5 c 0
 892.5 886.5 900.833007812 869.166992188 906.5 847.5 c 0
 912.166992188 825.833007812 915 799 915 767 c 0
 915 743.666992188 912.833007812 715 908.5 681 c 0
 904.166992188 647 898.666992188 610.666992188 892 572 c 0
 885.333007812 533.333007812 878.166992188 493.333007812 870.5 452 c 0
 862.833007812 410.666992188 855.666992188 371.333007812 849 334 c 0
 842.333007812 296.666992188 836.833007812 262.666992188 832.5 232 c 0
 828.166992188 201.333007812 826 176.666992188 826 158 c 0
 826 135.333007812 829 119.833007812 835 111.5 c 0
 841 103.166992188 850 99 862 99 c 0
 877.333007812 99 894.166992188 101.666992188 912.5 107 c 0
 930.833007812 112.333007812 954 120.666992188 982 132 c 0
 1001 85 l 0
EndSplineSet
EndChar

StartChar: o
Encoding: 82 111 82
Width: 879
VWidth: 1024
Flags: HW
LayerCount: 2
Fore
SplineSet
831 559 m 0
 831 514.333007812 825.833007812 469.166992188 815.5 423.5 c 0
 805.166992188 377.833007812 790 333.5 770 290.5 c 0
 750 247.5 725.5 206.5 696.5 167.5 c 0
 667.5 128.5 634.333007812 93.6669921875 597 63 c 0
 579.666992188 49 561 35.6669921875 541 23 c 0
 521 10.3330078125 500.5 -0.8330078125 479.5 -10.5 c 0
 458.5 -20.1669921875 437.5 -27.6669921875 416.5 -33 c 0
 395.5 -38.3330078125 375 -41 355 -41 c 0
 306.333007812 -41 263 -31.1669921875 225 -11.5 c 0
 187 8.1669921875 154.833007812 35.1669921875 128.5 69.5 c 0
 102.166992188 103.833007812 82.1669921875 144.5 68.5 191.5 c 0
 54.8330078125 238.5 48 289.333007812 48 344 c 0
 48 392 52.1669921875 438.166992188 60.5 482.5 c 0
 68.8330078125 526.833007812 82.3330078125 569.833007812 101 611.5 c 0
 119.666992188 653.166992188 144.333007812 693 175 731 c 0
 205.666992188 769 243 805.333007812 287 840 c 0
 321 866.666992188 359.5 889.333007812 402.5 908 c 0
 445.5 926.666992188 488.333007812 936 531 936 c 0
 583 936 628 926.666992188 666 908 c 0
 704 889.333007812 735.166992188 863.333007812 759.5 830 c 0
 783.833007812 796.666992188 801.833007812 757 813.5 711 c 0
 825.166992188 665 831 614.333007812 831 559 c 0
658 496 m 0
 658 598 640.333007812 676.166992188 605 730.5 c 0
 569.666992188 784.833007812 522 812 462 812 c 0
 432 812 405.166992188 805.833007812 381.5 793.5 c 0
 357.833007812 781.166992188 337.166992188 764.833007812 319.5 744.5 c 0
 301.833007812 724.166992188 286.833007812 700.333007812 274.5 673 c 0
 262.166992188 645.666992188 252 617 244 587 c 0
 236 557 230.333007812 526.333007812 227 495 c 0
 223.666992188 463.666992188 222 434 222 406 c 0
 222 361.333007812 227.333007812 319.333007812 238 280 c 0
 248.666992188 240.666992188 263 206.166992188 281 176.5 c 0
 299 146.833007812 320.166992188 123.333007812 344.5 106 c 0
 368.833007812 88.6669921875 395 80 423 80 c 0
 451.666992188 80 477.333007812 86.5 500 99.5 c 0
 522.666992188 112.5 542.666992188 129.833007812 560 151.5 c 0
 577.333007812 173.166992188 592.166992188 198.166992188 604.5 226.5 c 0
 616.833007812 254.833007812 627 284.333007812 635 315 c 0
 643 345.666992188 648.833007812 376.666992188 652.5 408 c 0
 656.166992188 439.333007812 658 468.666992188 658 496 c 0
EndSplineSet
EndChar

StartChar: p
Encoding: 83 112 83
Width: 985
VWidth: 1024
Flags: HW
LayerCount: 2
Fore
SplineSet
373 870 m 0
 373 852 371 827.333007812 367 796 c 0
 363 764.666992188 357.333007812 724 350 674 c 0
 390.666992188 732 428.666992188 778.166992188 464 812.5 c 0
 499.333007812 846.833007812 531.833007812 873.166992188 561.5 891.5 c 0
 591.166992188 909.833007812 618.333007812 921.833007812 643 927.5 c 0
 667.666992188 933.166992188 690.333007812 936 711 936 c 0
 737.666992188 936 763.166992188 929.333007812 787.5 916 c 0
 811.833007812 902.666992188 833 882.833007812 851 856.5 c 0
 869 830.166992188 883.333007812 797.833007812 894 759.5 c 0
 904.666992188 721.166992188 910 677 910 627 c 0
 910 556.333007812 899.5 482 878.5 404 c 0
 857.5 326 826.666992188 251.666992188 786 181 c 0
 770.666992188 155 753.166992188 128.833007812 733.5 102.5 c 0
 713.833007812 76.1669921875 692.5 52.3330078125 669.5 31 c 0
 646.5 9.6669921875 622 -7.6669921875 596 -21 c 0
 570 -34.3330078125 543 -41 515 -41 c 0
 494.333007812 -41 473.166992188 -34.8330078125 451.5 -22.5 c 0
 429.833007812 -10.1669921875 408.5 6.1669921875 387.5 26.5 c 0
 366.5 46.8330078125 345.833007812 70.1669921875 325.5 96.5 c 0
 305.166992188 122.833007812 286 150 268 178 c 0
 240 6 l 0
 228.666992188 -62.6669921875 219.666992188 -122.5 213 -173.5 c 0
 206.333007812 -224.5 201.5 -267.833007812 198.5 -303.5 c 0
 195.5 -339.166992188 194.333007812 -367.666992188 195 -389 c 0
 195.666992188 -410.333007812 197.666992188 -425.666992188 201 -435 c 0
 191 -437.666992188 177.833007812 -441.833007812 161.5 -447.5 c 0
 145.166992188 -453.166992188 128.333007812 -459.166992188 111 -465.5 c 0
 93.6669921875 -471.833007812 77 -478.166992188 61 -484.5 c 0
 45 -490.833007812 32.6669921875 -496 24 -500 c 0
 -11 -469 l 0
 -8.3330078125 -449.666992188 -3.6669921875 -420 3 -380 c 0
 9.6669921875 -340 17.8330078125 -293.166992188 27.5 -239.5 c 0
 37.1669921875 -185.833007812 47.6669921875 -127.333007812 59 -64 c 0
 70.3330078125 -0.6669921875 81.8330078125 63.6669921875 93.5 129 c 0
 105.166992188 194.333007812 116.333007812 259 127 323 c 0
 137.666992188 387 147.166992188 446.333007812 155.5 501 c 0
 163.833007812 555.666992188 170.5 603.833007812 175.5 645.5 c 0
 180.5 687.166992188 183 718.666992188 183 740 c 0
 183 755.333007812 181.666992188 767.5 179 776.5 c 0
 176.333007812 785.5 172.666992188 792.166992188 168 796.5 c 0
 163.333007812 800.833007812 158.333007812 803.666992188 153 805 c 0
 147.666992188 806.333007812 142 807 136 807 c 0
 130 807 121.5 805.833007812 110.5 803.5 c 0
 99.5 801.166992188 88.6669921875 798.333007812 78 795 c 0
 65.3330078125 791.666992188 52 787.666992188 38 783 c 0
 23 830 l 0
 51.6669921875 843.333007812 81.6669921875 856.333007812 113 869 c 0
 144.333007812 881.666992188 174 893 202 903 c 0
 230 913 255 921 277 927 c 0
 299 933 314.666992188 936 324 936 c 0
 338.666992188 936 350.5 931.5 359.5 922.5 c 0
 368.5 913.5 373 896 373 870 c 0
615 790 m 0
 599.666992188 790 579.666992188 782.666992188 555 768 c 0
 530.333007812 753.333007812 504.166992188 732.5 476.5 705.5 c 0
 448.833007812 678.5 421.166992188 646 393.5 608 c 0
 365.833007812 570 341 527.333007812 319 480 c 0
 315 454 310.5 426.5 305.5 397.5 c 0
 300.5 368.5 295.333007812 337.666992188 290 305 c 0
 300 286.333007812 314 266.333007812 332 245 c 0
 350 223.666992188 370.166992188 204 392.5 186 c 0
 414.833007812 168 438.166992188 153.166992188 462.5 141.5 c 0
 486.833007812 129.833007812 510.666992188 124 534 124 c 0
 568 124 597.666992188 133.166992188 623 151.5 c 0
 648.333007812 169.833007812 668.333007812 195.666992188 683 229 c 0
 693.666992188 252.333007812 702.5 277 709.5 303 c 0
 716.5 329 721.666992188 355.166992188 725 381.5 c 0
 728.333007812 407.833007812 730.666992188 433.666992188 732 459 c 0
 733.333007812 484.333007812 734 508 734 530 c 0
 734 572.666992188 730.5 610.333007812 723.5 643 c 0
 716.5 675.666992188 707.5 702.833007812 696.5 724.5 c 0
 685.5 746.166992188 672.833007812 762.5 658.5 773.5 c 0
 644.166992188 784.5 629.666992188 790 615 790 c 0
EndSplineSet
EndChar

StartChar: q
Encoding: 84 113 84
Width: 932
VWidth: 1024
Flags: HW
LayerCount: 2
Fore
SplineSet
356 116 m 0
 370.666992188 116 388.166992188 124.166992188 408.5 140.5 c 0
 428.833007812 156.833007812 450.5 178.666992188 473.5 206 c 0
 496.5 233.333007812 520.333007812 265.333007812 545 302 c 0
 569.666992188 338.666992188 594 377 618 417 c 0
 627.333007812 473.666992188 636.666992188 529.5 646 584.5 c 0
 655.333007812 639.5 664.333007812 693.333007812 673 746 c 0
 662.333007812 754.666992188 651 763.333007812 639 772 c 0
 627 780.666992188 614.5 788.5 601.5 795.5 c 0
 588.5 802.5 574.666992188 808.166992188 560 812.5 c 0
 545.333007812 816.833007812 530.333007812 819 515 819 c 0
 485.666992188 819 457.666992188 811.833007812 431 797.5 c 0
 404.333007812 783.166992188 379.5 764 356.5 740 c 0
 333.5 716 312.833007812 688.666992188 294.5 658 c 0
 276.166992188 627.333007812 260.5 595.666992188 247.5 563 c 0
 234.5 530.333007812 224.5 498 217.5 466 c 0
 210.5 434 207 405 207 379 c 0
 207 337.666992188 211.5 300.833007812 220.5 268.5 c 0
 229.5 236.166992188 241 208.666992188 255 186 c 0
 269 163.333007812 284.833007812 146 302.5 134 c 0
 320.166992188 122 338 116 356 116 c 0
914 891 m 0
 902.666992188 881.666992188 893.166992188 873.333007812 885.5 866 c 0
 877.833007812 858.666992188 871 850.166992188 865 840.5 c 0
 859 830.833007812 853.833007812 819 849.5 805 c 0
 845.166992188 791 841 772.666992188 837 750 c 0
 793 484 l 0
 778.333007812 395.333007812 764.333007812 309.5 751 226.5 c 0
 737.666992188 143.5 725.833007812 65.1669921875 715.5 -8.5 c 0
 705.166992188 -82.1669921875 697.166992188 -148.166992188 691.5 -206.5 c 0
 685.833007812 -264.833007812 682.833007812 -313.833007812 682.5 -353.5 c 0
 682.166992188 -393.166992188 685.666992188 -420.333007812 693 -435 c 0
 683.666992188 -438.333007812 670.833007812 -442.666992188 654.5 -448 c 0
 638.166992188 -453.333007812 621.166992188 -459.333007812 603.5 -466 c 0
 585.833007812 -472.666992188 568.833007812 -479 552.5 -485 c 0
 536.166992188 -491 524 -496 516 -500 c 0
 478 -469 l 0
 481.333007812 -445 486.5 -409.833007812 493.5 -363.5 c 0
 500.5 -317.166992188 508.833007812 -263.333007812 518.5 -202 c 0
 528.166992188 -140.666992188 539 -73.3330078125 551 0 c 0
 563 73.3330078125 575.333007812 149.333007812 588 228 c 0
 562 190 535.833007812 154.666992188 509.5 122 c 0
 483.166992188 89.3330078125 456.666992188 60.8330078125 430 36.5 c 0
 403.333007812 12.1669921875 376.833007812 -6.8330078125 350.5 -20.5 c 0
 324.166992188 -34.1669921875 298.666992188 -41 274 -41 c 0
 251.333007812 -41 226.833007812 -34.6669921875 200.5 -22 c 0
 174.166992188 -9.3330078125 149.666992188 10.8330078125 127 38.5 c 0
 104.333007812 66.1669921875 85.5 101.833007812 70.5 145.5 c 0
 55.5 189.166992188 48 242.333007812 48 305 c 0
 48 357.666992188 54.8330078125 409.5 68.5 460.5 c 0
 82.1669921875 511.5 102 560.166992188 128 606.5 c 0
 154 652.833007812 185.5 696 222.5 736 c 0
 259.5 776 301.666992188 811.333007812 349 842 c 0
 367.666992188 854 388.166992188 865.666992188 410.5 877 c 0
 432.833007812 888.333007812 455.833007812 898.333007812 479.5 907 c 0
 503.166992188 915.666992188 526.666992188 922.666992188 550 928 c 0
 573.333007812 933.333007812 595.666992188 936 617 936 c 0
 645.666992188 936 673.5 929.166992188 700.5 915.5 c 0
 727.5 901.833007812 752.333007812 888 775 874 c 0
 792.333007812 885.333007812 810.666992188 896.166992188 830 906.5 c 0
 849.333007812 916.833007812 868.333007812 926.666992188 887 936 c 0
 914 891 l 0
EndSplineSet
EndChar

StartChar: r
Encoding: 85 114 85
Width: 763
VWidth: 1024
Flags: HW
LayerCount: 2
Fore
SplineSet
809 850 m 0
 801 839.333007812 791.5 825 780.5 807 c 0
 769.5 789 758.5 771.333007812 747.5 754 c 0
 736.5 736.666992188 726 721.666992188 716 709 c 0
 706 696.333007812 697.666992188 690 691 690 c 0
 678.333007812 690 667.166992188 693.666992188 657.5 701 c 0
 647.833007812 708.333007812 638.5 716.5 629.5 725.5 c 0
 620.5 734.5 611.833007812 742.833007812 603.5 750.5 c 0
 595.166992188 758.166992188 586 762 576 762 c 0
 558.666992188 762 538.833007812 751.333007812 516.5 730 c 0
 494.166992188 708.666992188 471.666992188 680.166992188 449 644.5 c 0
 426.333007812 608.833007812 404.833007812 568.333007812 384.5 523 c 0
 364.166992188 477.666992188 347 431 333 383 c 0
 325.666992188 357.666992188 319.166992188 330.5 313.5 301.5 c 0
 307.833007812 272.5 302.833007812 242.833007812 298.5 212.5 c 0
 294.166992188 182.166992188 291 152.166992188 289 122.5 c 0
 287 92.8330078125 286.666992188 64.6669921875 288 38 c 0
 278.666992188 33.3330078125 266.166992188 27.3330078125 250.5 20 c 0
 234.833007812 12.6669921875 218.5 5.3330078125 201.5 -2 c 0
 184.5 -9.3330078125 168.333007812 -16.5 153 -23.5 c 0
 137.666992188 -30.5 126 -36.3330078125 118 -41 c 0
 82 -8 l 0
 92 39.3330078125 101.666992188 88 111 138 c 0
 120.333007812 188 129 237.333007812 137 286 c 0
 145 334.666992188 152.5 381.833007812 159.5 427.5 c 0
 166.5 473.166992188 172.5 515.833007812 177.5 555.5 c 0
 182.5 595.166992188 186.333007812 630.833007812 189 662.5 c 0
 191.666992188 694.166992188 193 720 193 740 c 0
 193 755.333007812 191.833007812 767.5 189.5 776.5 c 0
 187.166992188 785.5 184.166992188 792.166992188 180.5 796.5 c 0
 176.833007812 800.833007812 172.5 803.666992188 167.5 805 c 0
 162.5 806.333007812 157.333007812 807 152 807 c 0
 145.333007812 807 136.5 805.833007812 125.5 803.5 c 0
 114.5 801.166992188 103.333007812 798.333007812 92 795 c 0
 79.3330078125 791.666992188 65.6669921875 787.666992188 51 783 c 0
 36 830 l 0
 64 842.666992188 93.5 855.333007812 124.5 868 c 0
 155.5 880.666992188 184.833007812 892 212.5 902 c 0
 240.166992188 912 264.833007812 920.166992188 286.5 926.5 c 0
 308.166992188 932.833007812 323.666992188 936 333 936 c 0
 342.333007812 936 349.666992188 934.5 355 931.5 c 0
 360.333007812 928.5 364.5 922.833007812 367.5 914.5 c 0
 370.5 906.166992188 372.333007812 894.833007812 373 880.5 c 0
 373.666992188 866.166992188 374 848 374 826 c 0
 374 818.666992188 373.166992188 807.166992188 371.5 791.5 c 0
 369.833007812 775.833007812 367.833007812 758.666992188 365.5 740 c 0
 363.166992188 721.333007812 360.666992188 702.833007812 358 684.5 c 0
 355.333007812 666.166992188 353 650.666992188 351 638 c 0
 383 699.333007812 413.166992188 749.333007812 441.5 788 c 0
 469.833007812 826.666992188 496.666992188 857 522 879 c 0
 547.333007812 901 571.5 916 594.5 924 c 0
 617.5 932 639.666992188 936 661 936 c 0
 673 936 684.666992188 932.666992188 696 926 c 0
 707.333007812 919.333007812 718.833007812 911.333007812 730.5 902 c 0
 742.166992188 892.666992188 754.5 883.166992188 767.5 873.5 c 0
 780.5 863.833007812 794.333007812 856 809 850 c 0
EndSplineSet
EndChar

StartChar: s
Encoding: 86 115 86
Width: 736
VWidth: 1024
Flags: HW
LayerCount: 2
Fore
SplineSet
728 844 m 0
 715.333007812 828.666992188 702.333007812 813.833007812 689 799.5 c 0
 675.666992188 785.166992188 662.833007812 772.5 650.5 761.5 c 0
 638.166992188 750.5 627 741.5 617 734.5 c 0
 607 727.5 599.333007812 724 594 724 c 0
 584.666992188 724 574.666992188 730.166992188 564 742.5 c 0
 553.333007812 754.833007812 541.166992188 768.333007812 527.5 783 c 0
 513.833007812 797.666992188 498.166992188 811.166992188 480.5 823.5 c 0
 462.833007812 835.833007812 442.666992188 842 420 842 c 0
 401.333007812 842 383.666992188 838.833007812 367 832.5 c 0
 350.333007812 826.166992188 335.666992188 817.333007812 323 806 c 0
 310.333007812 794.666992188 300.166992188 781 292.5 765 c 0
 284.833007812 749 281 731.333007812 281 712 c 0
 281 686 293 660.333007812 317 635 c 0
 341 609.666992188 380 584.333007812 434 559 c 0
 461.333007812 545.666992188 488.5 530.833007812 515.5 514.5 c 0
 542.5 498.166992188 566.666992188 479.166992188 588 457.5 c 0
 609.333007812 435.833007812 626.666992188 411.166992188 640 383.5 c 0
 653.333007812 355.833007812 660 324.333007812 660 289 c 0
 660 243 647.5 199.833007812 622.5 159.5 c 0
 597.5 119.166992188 565.5 84.1669921875 526.5 54.5 c 0
 487.5 24.8330078125 444.5 1.5 397.5 -15.5 c 0
 350.5 -32.5 305.333007812 -41 262 -41 c 0
 226.666992188 -41 192.833007812 -36.1669921875 160.5 -26.5 c 0
 128.166992188 -16.8330078125 99.3330078125 -4.8330078125 74 9.5 c 0
 48.6669921875 23.8330078125 28.5 39.5 13.5 56.5 c 0
 -1.5 73.5 -9 89 -9 103 c 0
 -9 111 -4.6669921875 123 4 139 c 0
 12.6669921875 155 22.6669921875 171.166992188 34 187.5 c 0
 45.3330078125 203.833007812 57 218 69 230 c 0
 81 242 90.6669921875 248 98 248 c 0
 102.666992188 248 108 243.5 114 234.5 c 0
 120 225.5 127 214.166992188 135 200.5 c 0
 143 186.833007812 152.666992188 172.166992188 164 156.5 c 0
 175.333007812 140.833007812 189 126.166992188 205 112.5 c 0
 221 98.8330078125 239.833007812 87.5 261.5 78.5 c 0
 283.166992188 69.5 308.333007812 65 337 65 c 0
 359.666992188 65 381 69 401 77 c 0
 421 85 438.166992188 96 452.5 110 c 0
 466.833007812 124 478.166992188 140.5 486.5 159.5 c 0
 494.833007812 178.5 499 199 499 221 c 0
 499 245.666992188 493.5 268.333007812 482.5 289 c 0
 471.5 309.666992188 457 328.5 439 345.5 c 0
 421 362.5 400.166992188 378 376.5 392 c 0
 352.833007812 406 328.666992188 419 304 431 c 0
 268.666992188 447.666992188 239.166992188 464.666992188 215.5 482 c 0
 191.833007812 499.333007812 172.666992188 517 158 535 c 0
 143.333007812 553 133 571.833007812 127 591.5 c 0
 121 611.166992188 118 631.666992188 118 653 c 0
 118 695 129 733.333007812 151 768 c 0
 173 802.666992188 201.166992188 832.5 235.5 857.5 c 0
 269.833007812 882.5 308 901.833007812 350 915.5 c 0
 392 929.166992188 433 936 473 936 c 0
 507.666992188 936 537.333007812 932 562 924 c 0
 586.666992188 916 608.666992188 906.666992188 628 896 c 0
 647.333007812 885.333007812 664.833007812 875 680.5 865 c 0
 696.166992188 855 712 848 728 844 c 0
EndSplineSet
EndChar

StartChar: t
Encoding: 87 116 87
Width: 650
VWidth: 1024
Flags: HW
LayerCount: 2
Fore
SplineSet
608 130 m 0
 574 103.333007812 539.833007812 79.5 505.5 58.5 c 0
 471.166992188 37.5 438.833007812 19.6669921875 408.5 5 c 0
 378.166992188 -9.6669921875 350.333007812 -21 325 -29 c 0
 299.666992188 -37 279 -41 263 -41 c 0
 245 -41 227.666992188 -36 211 -26 c 0
 194.333007812 -16 179.5 -2.1669921875 166.5 15.5 c 0
 153.5 33.1669921875 143 54.3330078125 135 79 c 0
 127 103.666992188 123 130.666992188 123 160 c 0
 123 172.666992188 123.333007812 185.333007812 124 198 c 0
 124.666992188 210.666992188 125.5 223.833007812 126.5 237.5 c 0
 127.5 251.166992188 128.833007812 265.666992188 130.5 281 c 0
 132.166992188 296.333007812 134.333007812 313.333007812 137 332 c 0
 212 805 l 0
 72 805 l 0
 54 839 l 0
 161 905 l 0
 228 905 l 0
 234 940 l 0
 238 967.333007812 242.166992188 989.666992188 246.5 1007 c 0
 250.833007812 1024.33300781 255.833007812 1038.5 261.5 1049.5 c 0
 267.166992188 1060.5 273.333007812 1069.5 280 1076.5 c 0
 286.666992188 1083.5 294.333007812 1090.33300781 303 1097 c 0
 434 1176 l 0
 462 1151 l 0
 457.333007812 1145 452.333007812 1134.33300781 447 1119 c 0
 442.333007812 1105.66699219 436.833007812 1086.66699219 430.5 1062 c 0
 424.166992188 1037.33300781 417.666992188 1004.33300781 411 963 c 0
 402 905 l 0
 649 905 l 0
 671 875 l 0
 664.333007812 865.666992188 655 855.166992188 643 843.5 c 0
 631 831.833007812 618.5 820.333007812 605.5 809 c 0
 592.5 797.666992188 580 787.5 568 778.5 c 0
 556 769.5 547 763.333007812 541 760 c 0
 533 778.666992188 517.666992188 790.833007812 495 796.5 c 0
 472.333007812 802.166992188 437.333007812 805 390 805 c 0
 386 805 l 0
 320 379 l 0
 318 366.333007812 316.166992188 352.833007812 314.5 338.5 c 0
 312.833007812 324.166992188 311.5 310.5 310.5 297.5 c 0
 309.5 284.5 308.833007812 272.333007812 308.5 261 c 0
 308.166992188 249.666992188 308 240.666992188 308 234 c 0
 308 192.666992188 315.166992188 162.5 329.5 143.5 c 0
 343.833007812 124.5 360.333007812 115 379 115 c 0
 402.333007812 115 430.333007812 120 463 130 c 0
 495.666992188 140 537 156.333007812 587 179 c 0
 608 130 l 0
EndSplineSet
EndChar

StartChar: u
Encoding: 88 117 88
Width: 1048
VWidth: 1024
Flags: HW
LayerCount: 2
Fore
SplineSet
1006 81 m 0
 952 45 904 15.6669921875 862 -7 c 0
 820 -29.6669921875 785 -41 757 -41 c 0
 743.666992188 -41 730.166992188 -35.3330078125 716.5 -24 c 0
 702.833007812 -12.6669921875 691 5.1669921875 681 29.5 c 0
 671 53.8330078125 663.333007812 85.5 658 124.5 c 0
 652.666992188 163.5 651.333007812 210.666992188 654 266 c 0
 627.333007812 221.333007812 599 180.333007812 569 143 c 0
 539 105.666992188 507.833007812 73.3330078125 475.5 46 c 0
 443.166992188 18.6669921875 410 -2.6669921875 376 -18 c 0
 342 -33.3330078125 308 -41 274 -41 c 0
 258.666992188 -41 242 -35.8330078125 224 -25.5 c 0
 206 -15.1669921875 189 0.3330078125 173 21 c 0
 157 41.6669921875 143.666992188 67.3330078125 133 98 c 0
 122.333007812 128.666992188 117 164.333007812 117 205 c 0
 117 225 118.833007812 249.833007812 122.5 279.5 c 0
 126.166992188 309.166992188 130.666992188 341 136 375 c 0
 141.333007812 409 147 444.166992188 153 480.5 c 0
 159 516.833007812 164.666992188 551.5 170 584.5 c 0
 175.333007812 617.5 179.833007812 647.5 183.5 674.5 c 0
 187.166992188 701.5 189 723.333007812 189 740 c 0
 189 755.333007812 188 767.5 186 776.5 c 0
 184 785.5 181.166992188 792.166992188 177.5 796.5 c 0
 173.833007812 800.833007812 169.5 803.666992188 164.5 805 c 0
 159.5 806.333007812 154 807 148 807 c 0
 142 807 133.5 805.833007812 122.5 803.5 c 0
 111.5 801.166992188 100.333007812 798.333007812 89 795 c 0
 76.3330078125 791.666992188 62.3330078125 787.666992188 47 783 c 0
 34 830 l 0
 62 842.666992188 91.5 855.333007812 122.5 868 c 0
 153.5 880.666992188 182.833007812 892 210.5 902 c 0
 238.166992188 912 262.833007812 920.166992188 284.5 926.5 c 0
 306.166992188 932.833007812 321.666992188 936 331 936 c 0
 350.333007812 936 363.333007812 929.666992188 370 917 c 0
 376.666992188 904.333007812 380 882.666992188 380 852 c 0
 380 832.666992188 378 807.333007812 374 776 c 0
 370 744.666992188 365 710.5 359 673.5 c 0
 353 636.5 346.666992188 598.166992188 340 558.5 c 0
 333.333007812 518.833007812 327 480.5 321 443.5 c 0
 315 406.5 310 372.333007812 306 341 c 0
 302 309.666992188 300 284.333007812 300 265 c 0
 300 209.666992188 306.5 169.166992188 319.5 143.5 c 0
 332.5 117.833007812 349.333007812 105 370 105 c 0
 382.666992188 105 399.333007812 110.833007812 420 122.5 c 0
 440.666992188 134.166992188 464 153.166992188 490 179.5 c 0
 516 205.833007812 544.5 240 575.5 282 c 0
 606.5 324 638.666992188 375.333007812 672 436 c 0
 676 464 680.5 492.166992188 685.5 520.5 c 0
 690.5 548.833007812 695.166992188 576.333007812 699.5 603 c 0
 703.833007812 629.666992188 707.5 654.666992188 710.5 678 c 0
 713.5 701.333007812 715 722 715 740 c 0
 715 755.333007812 714.166992188 767.5 712.5 776.5 c 0
 710.833007812 785.5 708.333007812 792.166992188 705 796.5 c 0
 701.666992188 800.833007812 697.833007812 803.666992188 693.5 805 c 0
 689.166992188 806.333007812 684 807 678 807 c 0
 672 807 664 805.833007812 654 803.5 c 0
 644 801.166992188 634 798.333007812 624 795 c 0
 612 791.666992188 599.666992188 787.666992188 587 783 c 0
 571 830 l 0
 599 842.666992188 628 855.333007812 658 868 c 0
 688 880.666992188 716.333007812 892 743 902 c 0
 769.666992188 912 793.333007812 920.166992188 814 926.5 c 0
 834.666992188 932.833007812 850 936 860 936 c 0
 878.666992188 936 891 929.666992188 897 917 c 0
 903 904.333007812 906 882.666992188 906 852 c 0
 906 832.666992188 904 807.833007812 900 777.5 c 0
 896 747.166992188 891.166992188 714.166992188 885.5 678.5 c 0
 879.833007812 642.833007812 873.5 605.666992188 866.5 567 c 0
 859.5 528.333007812 853.166992188 490.833007812 847.5 454.5 c 0
 841.833007812 418.166992188 837 384.166992188 833 352.5 c 0
 829 320.833007812 827 294 827 272 c 0
 827 211.333007812 831.5 167.333007812 840.5 140 c 0
 849.5 112.666992188 862.333007812 99 879 99 c 0
 896.333007812 99 913.333007812 101.166992188 930 105.5 c 0
 946.666992188 109.833007812 967 117 991 127 c 0
 1006 81 l 0
EndSplineSet
EndChar

StartChar: v
Encoding: 89 118 89
Width: 934
VWidth: 1024
Flags: HW
LayerCount: 2
Fore
SplineSet
919 852 m 0
 919 830.666992188 911.5 799.666992188 896.5 759 c 0
 881.5 718.333007812 857 664.833007812 823 598.5 c 0
 789 532.166992188 744.166992188 451.166992188 688.5 355.5 c 0
 632.833007812 259.833007812 564 146.333007812 482 15 c 0
 476 11.6669921875 467.833007812 7.5 457.5 2.5 c 0
 447.166992188 -2.5 436 -7.6669921875 424 -13 c 0
 412 -18.3330078125 400.5 -23.6669921875 389.5 -29 c 0
 378.5 -34.3330078125 369.666992188 -38.3330078125 363 -41 c 0
 329 -8 l 0
 324.333007812 29.3330078125 318.666992188 70.6669921875 312 116 c 0
 305.333007812 161.333007812 298.166992188 207.666992188 290.5 255 c 0
 282.833007812 302.333007812 274.833007812 349.5 266.5 396.5 c 0
 258.166992188 443.5 249.833007812 487.833007812 241.5 529.5 c 0
 233.166992188 571.166992188 225.333007812 608.666992188 218 642 c 0
 210.666992188 675.333007812 204 702.333007812 198 723 c 0
 192.666992188 741 187 755.333007812 181 766 c 0
 175 776.666992188 168.833007812 785 162.5 791 c 0
 156.166992188 797 150 800.833007812 144 802.5 c 0
 138 804.166992188 132 805 126 805 c 0
 119.333007812 805 110.666992188 803.833007812 100 801.5 c 0
 89.3330078125 799.166992188 78.6669921875 796.333007812 68 793 c 0
 56 789.666992188 42.6669921875 785.666992188 28 781 c 0
 11 828 l 0
 39 840.666992188 67 853.5 95 866.5 c 0
 123 879.5 149 891.166992188 173 901.5 c 0
 197 911.833007812 218.166992188 920.166992188 236.5 926.5 c 0
 254.833007812 932.833007812 268.666992188 936 278 936 c 0
 297.333007812 936 312.5 926.5 323.5 907.5 c 0
 334.5 888.5 346.666992188 855.666992188 360 809 c 0
 364.666992188 791.666992188 370.833007812 765.333007812 378.5 730 c 0
 386.166992188 694.666992188 394.166992188 655.166992188 402.5 611.5 c 0
 410.833007812 567.833007812 419.166992188 522.166992188 427.5 474.5 c 0
 435.833007812 426.833007812 443.333007812 382.5 450 341.5 c 0
 456.666992188 300.5 462.166992188 265.166992188 466.5 235.5 c 0
 470.833007812 205.833007812 473 186.666992188 473 178 c 0
 521.666992188 256 563.166992188 328 597.5 394 c 0
 631.833007812 460 660 518.666992188 682 570 c 0
 704 621.333007812 720 664.166992188 730 698.5 c 0
 740 732.833007812 745 757.333007812 745 772 c 0
 745 786.666992188 739.833007812 797.666992188 729.5 805 c 0
 719.166992188 812.333007812 704.666992188 816 686 816 c 0
 674.666992188 816 662.5 814.833007812 649.5 812.5 c 0
 636.5 810.166992188 622.666992188 806.333007812 608 801 c 0
 589 846 l 0
 609 856 631 866.5 655 877.5 c 0
 679 888.5 702.833007812 898.333007812 726.5 907 c 0
 750.166992188 915.666992188 772.333007812 922.666992188 793 928 c 0
 813.666992188 933.333007812 830.333007812 936 843 936 c 0
 866.333007812 936 884.833007812 930 898.5 918 c 0
 912.166992188 906 919 884 919 852 c 0
EndSplineSet
EndChar

StartChar: w
Encoding: 90 119 90
Width: 1323
VWidth: 1024
Flags: HW
LayerCount: 2
Fore
SplineSet
1316 860 m 0
 1316 842 1314.16699219 821.666992188 1310.5 799 c 0
 1306.83300781 776.333007812 1300.16699219 749.166992188 1290.5 717.5 c 0
 1280.83300781 685.833007812 1267.5 648.833007812 1250.5 606.5 c 0
 1233.5 564.166992188 1211.83300781 514.666992188 1185.5 458 c 0
 1159.16699219 401.333007812 1127.33300781 336.666992188 1090 264 c 0
 1052.66699219 191.333007812 1009 108.666992188 959 16 c 0
 953 12.6669921875 944.833007812 8.5 934.5 3.5 c 0
 924.166992188 -1.5 913.333007812 -6.6669921875 902 -12 c 0
 869 -29 l 0
 858.333007812 -34.3330078125 849.666992188 -38.3330078125 843 -41 c 0
 807 -8 l 0
 799.666992188 48.6669921875 791.666992188 109 783 173 c 0
 774.333007812 237 765.333007812 299.166992188 756 359.5 c 0
 746.666992188 419.833007812 737.333007812 475.666992188 728 527 c 0
 718.666992188 578.333007812 709.666992188 619.333007812 701 650 c 0
 699 635.333007812 694.333007812 615 687 589 c 0
 679.666992188 563 669.833007812 533.166992188 657.5 499.5 c 0
 645.166992188 465.833007812 630.833007812 429.166992188 614.5 389.5 c 0
 598.166992188 349.833007812 580.5 309.333007812 561.5 268 c 0
 542.5 226.666992188 522.5 185.166992188 501.5 143.5 c 0
 480.5 101.833007812 459 62.3330078125 437 25 c 0
 431 21.6669921875 422.333007812 17 411 11 c 0
 399.666992188 5 387.666992188 -1.3330078125 375 -8 c 0
 362.333007812 -14.6669921875 350 -21.1669921875 338 -27.5 c 0
 326 -33.8330078125 316.666992188 -38.3330078125 310 -41 c 0
 276 -8 l 0
 271.333007812 29.3330078125 266.5 70.6669921875 261.5 116 c 0
 256.5 161.333007812 251.5 207.833007812 246.5 255.5 c 0
 241.5 303.166992188 236.5 350.666992188 231.5 398 c 0
 226.5 445.333007812 221.5 489.833007812 216.5 531.5 c 0
 211.5 573.166992188 206.333007812 610.666992188 201 644 c 0
 195.666992188 677.333007812 190.666992188 703.666992188 186 723 c 0
 182 741 177.166992188 755.333007812 171.5 766 c 0
 165.833007812 776.666992188 159.833007812 785 153.5 791 c 0
 147.166992188 797 140.666992188 800.833007812 134 802.5 c 0
 127.333007812 804.166992188 121 805 115 805 c 0
 109 805 100.666992188 803.833007812 90 801.5 c 0
 79.3330078125 799.166992188 68.3330078125 796.333007812 57 793 c 0
 44.3330078125 789.666992188 30.6669921875 785.666992188 16 781 c 0
 -1 828 l 0
 27.6669921875 841.333007812 55.8330078125 854.5 83.5 867.5 c 0
 111.166992188 880.5 136.833007812 892 160.5 902 c 0
 184.166992188 912 205 920.166992188 223 926.5 c 0
 241 932.833007812 254.666992188 936 264 936 c 0
 282.666992188 936 296.666992188 925.166992188 306 903.5 c 0
 315.333007812 881.833007812 325.666992188 847 337 799 c 0
 341 781.666992188 345.5 757.166992188 350.5 725.5 c 0
 355.5 693.833007812 360.666992188 658.5 366 619.5 c 0
 371.333007812 580.5 376.5 539.666992188 381.5 497 c 0
 386.5 454.333007812 391.166992188 413.5 395.5 374.5 c 0
 399.833007812 335.5 403.5 300.333007812 406.5 269 c 0
 409.5 237.666992188 411.666992188 213.666992188 413 197 c 0
 439.666992188 249 466.166992188 304.5 492.5 363.5 c 0
 518.833007812 422.5 542.833007812 481.166992188 564.5 539.5 c 0
 586.166992188 597.833007812 604 653.666992188 618 707 c 0
 632 760.333007812 640.333007812 807.666992188 643 849 c 0
 653.666992188 859 666.166992188 869.166992188 680.5 879.5 c 0
 694.833007812 889.833007812 709 899.166992188 723 907.5 c 0
 737 915.833007812 750.333007812 922.666992188 763 928 c 0
 775.666992188 933.333007812 786 936 794 936 c 0
 796.666992188 936 800 930.5 804 919.5 c 0
 808 908.5 812.333007812 894 817 876 c 0
 821.666992188 858 826.666992188 837.166992188 832 813.5 c 0
 837.333007812 789.833007812 842.5 765.666992188 847.5 741 c 0
 852.5 716.333007812 857.333007812 691.666992188 862 667 c 0
 866.666992188 642.333007812 870.666992188 620 874 600 c 0
 878.666992188 568.666992188 884.166992188 535 890.5 499 c 0
 896.833007812 463 902.833007812 426.666992188 908.5 390 c 0
 914.166992188 353.333007812 919.5 317 924.5 281 c 0
 929.5 245 933.666992188 211.333007812 937 180 c 0
 982.333007812 262 1020 335 1050 399 c 0
 1080 463 1103.83300781 519.166992188 1121.5 567.5 c 0
 1139.16699219 615.833007812 1151.66699219 657.333007812 1159 692 c 0
 1166.33300781 726.666992188 1170 755.666992188 1170 779 c 0
 1170 793 1165.16699219 804 1155.5 812 c 0
 1145.83300781 820 1132.33300781 824 1115 824 c 0
 1105.66699219 824 1093.83300781 822.666992188 1079.5 820 c 0
 1065.16699219 817.333007812 1050.66699219 813.666992188 1036 809 c 0
 1016 856 l 0
 1039.33300781 870 1062.33300781 882.166992188 1085 892.5 c 0
 1107.66699219 902.833007812 1128.5 911.166992188 1147.5 917.5 c 0
 1166.5 923.833007812 1183.33300781 928.5 1198 931.5 c 0
 1212.66699219 934.5 1224 936 1232 936 c 0
 1243.33300781 936 1254 935.166992188 1264 933.5 c 0
 1274 931.833007812 1282.83300781 928.333007812 1290.5 923 c 0
 1298.16699219 917.666992188 1304.33300781 910 1309 900 c 0
 1313.66699219 890 1316 876.666992188 1316 860 c 0
EndSplineSet
EndChar

